<svg width="16" height="16" viewBox="0 0 16 16" fill="none" xmlns="http://www.w3.org/2000/svg">
<g clip-path="url(#clip0_116_5527)">
<path fill-rule="evenodd" clip-rule="evenodd" d="M9.83774 1.74763C11.0568 0.52857 13.0333 0.52857 14.2524 1.74763C15.4714 2.9667 15.4714 4.94319 14.2524 6.16226L7.92883 12.4858C7.56755 12.8471 7.35487 13.0598 7.11828 13.2443C6.83941 13.4618 6.53768 13.6483 6.21842 13.8005C5.94756 13.9296 5.66221 14.0247 5.17747 14.1862L2.95672 14.9265L2.422 15.1047C1.98829 15.2493 1.51013 15.1364 1.18686 14.8131C0.863593 14.4899 0.750714 14.0117 0.895284 13.578L1.81377 10.8225C1.97533 10.3378 2.07044 10.0524 2.19953 9.78158C2.35168 9.46232 2.53816 9.16058 2.75567 8.88172C2.94021 8.64512 3.1529 8.43244 3.51422 8.07115L9.83774 1.74763ZM2.93365 13.8801L4.828 13.2486C5.35541 13.0728 5.57949 12.9972 5.7882 12.8977C6.04189 12.7768 6.28166 12.6287 6.50326 12.4558C6.68556 12.3136 6.8534 12.147 7.24651 11.7539L12.2928 6.70758C11.7671 6.52214 11.0897 6.17842 10.4557 5.54434C9.82158 4.91026 9.47785 4.23293 9.29242 3.70717L4.2461 8.75349C3.85299 9.1466 3.68637 9.31443 3.54418 9.49674C3.37134 9.71833 3.22316 9.9581 3.10225 10.2118C3.00278 10.4205 2.92718 10.6446 2.75138 11.172L2.11993 13.0663L2.93365 13.8801ZM10.1036 2.89603C10.1264 3.01267 10.1649 3.17123 10.2292 3.35659C10.374 3.77389 10.6475 4.32192 11.1628 4.83723C11.6781 5.35254 12.2261 5.62603 12.6434 5.7708C12.8288 5.83511 12.9873 5.87364 13.104 5.89644L13.5453 5.45515C14.3738 4.62661 14.3738 3.28328 13.5453 2.45474C12.7167 1.6262 11.3734 1.6262 10.5448 2.45474L10.1036 2.89603Z" fill="#3684B3"/>
</g>
<defs>
<clipPath id="clip0_116_5527">
<rect width="16" height="16" fill="white"/>
</clipPath>
</defs>
</svg>
