<svg width="24" height="25" viewBox="0 0 24 25" fill="none" xmlns="http://www.w3.org/2000/svg">
<path d="M7.87509 13.25C7.87504 13.8153 7.69252 14.3654 7.3547 14.8186C7.01687 15.2718 6.54178 15.6038 6.00009 15.7653V20.75C6.00009 20.9489 5.92107 21.1397 5.78042 21.2803C5.63977 21.421 5.449 21.5 5.25009 21.5C5.05118 21.5 4.86041 21.421 4.71976 21.2803C4.57911 21.1397 4.50009 20.9489 4.50009 20.75V15.7653C3.95857 15.6037 3.48367 15.2715 3.14602 14.8184C2.80836 14.3652 2.62598 13.8151 2.62598 13.25C2.62598 12.6849 2.80836 12.1348 3.14602 11.6816C3.48367 11.2285 3.95857 10.8963 4.50009 10.7347V4.25C4.50009 4.05109 4.57911 3.86032 4.71976 3.71967C4.86041 3.57902 5.05118 3.5 5.25009 3.5C5.449 3.5 5.63977 3.57902 5.78042 3.71967C5.92107 3.86032 6.00009 4.05109 6.00009 4.25V10.7347C6.54178 10.8962 7.01687 11.2282 7.3547 11.6814C7.69252 12.1346 7.87504 12.6847 7.87509 13.25ZM12.7501 6.23469V4.25C12.7501 4.05109 12.6711 3.86032 12.5304 3.71967C12.3898 3.57902 12.199 3.5 12.0001 3.5C11.8012 3.5 11.6104 3.57902 11.4698 3.71967C11.3291 3.86032 11.2501 4.05109 11.2501 4.25V6.23469C10.7086 6.39635 10.2337 6.72845 9.89602 7.18163C9.55836 7.63481 9.37598 8.18486 9.37598 8.75C9.37598 9.31514 9.55836 9.86519 9.89602 10.3184C10.2337 10.7715 10.7086 11.1037 11.2501 11.2653V20.75C11.2501 20.9489 11.3291 21.1397 11.4698 21.2803C11.6104 21.421 11.8012 21.5 12.0001 21.5C12.199 21.5 12.3898 21.421 12.5304 21.2803C12.6711 21.1397 12.7501 20.9489 12.7501 20.75V11.2653C13.2916 11.1037 13.7665 10.7715 14.1042 10.3184C14.4418 9.86519 14.6242 9.31514 14.6242 8.75C14.6242 8.18486 14.4418 7.63481 14.1042 7.18163C13.7665 6.72845 13.2916 6.39635 12.7501 6.23469ZM19.5001 13.7347V4.25C19.5001 4.05109 19.4211 3.86032 19.2804 3.71967C19.1398 3.57902 18.949 3.5 18.7501 3.5C18.5512 3.5 18.3604 3.57902 18.2198 3.71967C18.0791 3.86032 18.0001 4.05109 18.0001 4.25V13.7347C17.4586 13.8963 16.9837 14.2285 16.646 14.6816C16.3084 15.1348 16.126 15.6849 16.126 16.25C16.126 16.8151 16.3084 17.3652 16.646 17.8184C16.9837 18.2715 17.4586 18.6037 18.0001 18.7653V20.75C18.0001 20.9489 18.0791 21.1397 18.2198 21.2803C18.3604 21.421 18.5512 21.5 18.7501 21.5C18.949 21.5 19.1398 21.421 19.2804 21.2803C19.4211 21.1397 19.5001 20.9489 19.5001 20.75V18.7653C20.0416 18.6037 20.5165 18.2715 20.8542 17.8184C21.1918 17.3652 21.3742 16.8151 21.3742 16.25C21.3742 15.6849 21.1918 15.1348 20.8542 14.6816C20.5165 14.2285 20.0416 13.8963 19.5001 13.7347Z" fill="#636363"/>
</svg>
