<svg xmlns="http://www.w3.org/2000/svg" xmlns:xlink="http://www.w3.org/1999/xlink" width="150" zoomAndPan="magnify" viewBox="0 0 112.5 112.499997" height="150" preserveAspectRatio="xMidYMid meet" version="1.0"><defs><clipPath id="19a234fb12"><path d="M 0 17 L 112.003906 17 L 112.003906 95 L 0 95 Z M 0 17 " clip-rule="nonzero"/></clipPath></defs><g clip-path="url(#19a234fb12)"><path d="M 111.796875 20.355469 C 111.78125 20.308594 111.75 20.273438 111.730469 20.226562 C 111.679688 20.097656 111.601562 19.988281 111.539062 19.863281 C 111.394531 19.585938 111.230469 19.332031 111.027344 19.105469 C 110.925781 18.992188 110.820312 18.894531 110.707031 18.792969 C 110.476562 18.59375 110.230469 18.429688 109.960938 18.289062 C 109.835938 18.226562 109.722656 18.152344 109.589844 18.101562 C 109.171875 17.945312 108.734375 17.835938 108.269531 17.835938 L 3.734375 17.835938 C 3.269531 17.835938 2.832031 17.945312 2.414062 18.101562 C 2.28125 18.152344 2.167969 18.226562 2.042969 18.289062 C 1.773438 18.429688 1.523438 18.59375 1.292969 18.792969 C 1.179688 18.894531 1.074219 18.992188 0.972656 19.105469 C 0.773438 19.332031 0.609375 19.585938 0.464844 19.863281 C 0.398438 19.988281 0.320312 20.097656 0.269531 20.226562 C 0.253906 20.273438 0.21875 20.308594 0.203125 20.355469 C 0.0703125 20.742188 0.0078125 21.144531 0.0078125 21.539062 C 0.0078125 21.550781 0 21.558594 0 21.570312 L 0 90.804688 C 0 92.867188 1.671875 94.539062 3.734375 94.539062 L 108.269531 94.539062 C 110.332031 94.539062 112.003906 92.867188 112.003906 90.804688 L 112.003906 21.570312 C 112.003906 21.558594 111.996094 21.550781 111.996094 21.539062 C 111.992188 21.144531 111.933594 20.742188 111.796875 20.355469 Z M 97.421875 25.304688 L 56 57.648438 L 14.578125 25.304688 Z M 7.46875 87.070312 L 7.46875 29.222656 L 53.703125 65.328125 C 54.378906 65.855469 55.191406 66.121094 56 66.121094 C 56.8125 66.121094 57.625 65.855469 58.300781 65.328125 L 104.535156 29.222656 L 104.535156 87.070312 Z M 7.46875 87.070312 "/></g></svg>