<svg width="16" height="17" viewBox="0 0 16 17" fill="none" xmlns="http://www.w3.org/2000/svg">
<path d="M14.9888 10.3125L14.2388 4.3125C14.1931 3.94993 14.0166 3.6165 13.7425 3.37483C13.4684 3.13316 13.1154 2.99987 12.75 3H2C1.73478 3 1.48043 3.10536 1.29289 3.29289C1.10536 3.48043 1 3.73478 1 4V9.5C1 9.76522 1.10536 10.0196 1.29289 10.2071C1.48043 10.3946 1.73478 10.5 2 10.5H4.69125L7.0525 15.2238C7.09407 15.3068 7.15795 15.3767 7.237 15.4255C7.31604 15.4743 7.40711 15.5001 7.5 15.5C8.16304 15.5 8.79893 15.2366 9.26777 14.7678C9.73661 14.2989 10 13.663 10 13V12H13.5C13.7129 12.0001 13.9233 11.9548 14.1173 11.8673C14.3113 11.7798 14.4845 11.652 14.6253 11.4923C14.7662 11.3327 14.8714 11.145 14.9341 10.9415C14.9967 10.7381 15.0154 10.5237 14.9888 10.3125ZM4.5 9.5H2V4H4.5V9.5Z" fill="#A9A8AA"/>
</svg>
