<svg class="svg-icon" style="width: 1em; height: 1em;vertical-align: middle;fill: currentColor;overflow: hidden;" viewBox="0 0 1024 1024" version="1.1" xmlns="http://www.w3.org/2000/svg"><path d="M939.314286 487.2c4.114286-13.714286 6.171429-27.885714 6.171428-42.285714 0-32.342857-10.628571-63.428571-29.828571-88.8 4.114286-13.714286 6.171429-27.885714 6.171428-42.285715 0-32.342857-10.628571-63.428571-29.828571-88.8 4.114286-13.714286 6.171429-27.885714 6.171429-42.285714 0-58.971429-35.085714-112.114286-89.485715-135.314286a75.542857 75.542857 0 0 0-30.285714-6.171428H91.428571c-20.228571 0-36.571429 16.342857-36.571428 36.571428v416c0 20.228571 16.342857 36.571429 36.571428 36.571429h147.771429l98.057143 355.2C353.028571 942.857143 405.6 982.857143 465.028571 982.857143c33.942857 0 65.6-13.485714 89.028572-38.171429 23.428571-24.571429 35.428571-56.8 33.714286-90.742857l-6.857143-140.457143h274.171428c13.828571 0 27.314286-3.657143 39.2-10.628571 46.171429-26.857143 74.857143-75.542857 74.857143-126.857143 0-32.342857-10.628571-63.428571-29.828571-88.8zM137.142857 448V123.428571h92.571429v324.571429h-92.571429z m716.8 183.314286H494.628571l10.971429 226.742857c0.685714 13.6-5.371429 26.4-16.685714 34.857143-6.971429 5.142857-15.542857 7.771429-24.114286 7.657143a50.605714 50.605714 0 0 1-48.228571-36.914286L302.857143 451.657143V123.428571h474.742857a64.971429 64.971429 0 0 1 38.4 59.2c0 11.085714-2.628571 21.6-7.885714 31.2l-15.885715 29.028572 25.028572 21.714286a64.868571 64.868571 0 0 1 22.4 49.142857c0 11.085714-2.628571 21.6-7.885714 31.2l-15.885715 29.028571 25.028572 21.714286a64.868571 64.868571 0 0 1 22.4 49.142857c0 11.085714-2.628571 21.6-7.885715 31.2l-16 29.142857 25.028572 21.714286a64.868571 64.868571 0 0 1 22.4 49.142857c0 21.828571-12.571429 42.857143-32.914286 55.314286z"  /></svg>