<svg width="24" height="24" viewBox="0 0 24 24" fill="none" xmlns="http://www.w3.org/2000/svg">
<path d="M20.25 3.93756H3.75C3.4019 3.93756 3.06806 4.07584 2.82192 4.32198C2.57578 4.56812 2.4375 4.90196 2.4375 5.25006V18.7501C2.4375 19.0982 2.57578 19.432 2.82192 19.6781C3.06806 19.9243 3.4019 20.0626 3.75 20.0626H20.25C20.5981 20.0626 20.9319 19.9243 21.1781 19.6781C21.4242 19.432 21.5625 19.0982 21.5625 18.7501V5.25006C21.5625 4.90196 21.4242 4.56812 21.1781 4.32198C20.9319 4.07584 20.5981 3.93756 20.25 3.93756ZM3.5625 8.06256H11.4375V15.9376H3.5625V8.06256ZM12.5625 6.93756V5.06256H15.9375V6.93756H12.5625ZM11.4375 6.93756H8.0625V5.06256H11.4375V6.93756ZM11.4375 17.0626V18.9376H8.0625V17.0626H11.4375ZM12.5625 17.0626H15.9375V18.9376H12.5625V17.0626ZM12.5625 15.9376V8.06256H20.4375V15.9376H12.5625ZM20.4375 5.25006V6.93756H17.0625V5.06256H20.25C20.2997 5.06256 20.3474 5.08232 20.3826 5.11748C20.4177 5.15264 20.4375 5.20033 20.4375 5.25006ZM3.75 5.06256H6.9375V6.93756H3.5625V5.25006C3.5625 5.20033 3.58225 5.15264 3.61742 5.11748C3.65258 5.08232 3.70027 5.06256 3.75 5.06256ZM3.5625 18.7501V17.0626H6.9375V18.9376H3.75C3.70027 18.9376 3.65258 18.9178 3.61742 18.8826C3.58225 18.8475 3.5625 18.7998 3.5625 18.7501ZM20.25 18.9376H17.0625V17.0626H20.4375V18.7501C20.4375 18.7998 20.4177 18.8475 20.3826 18.8826C20.3474 18.9178 20.2997 18.9376 20.25 18.9376Z" fill="#636363"/>
</svg>
