<?xml version="1.0" encoding="UTF-8" standalone="no"?>
<!DOCTYPE svg PUBLIC "-//W3C//DTD SVG 1.1//EN" "http://www.w3.org/Graphics/SVG/1.1/DTD/svg11.dtd">
<svg width="100%" height="100%" viewBox="0 0 24 24" version="1.1" xmlns="http://www.w3.org/2000/svg" xmlns:xlink="http://www.w3.org/1999/xlink" xml:space="preserve" xmlns:serif="http://www.serif.com/" style="fill-rule:evenodd;clip-rule:evenodd;stroke-linejoin:round;stroke-miterlimit:2;">
    <path d="M23.514,8.504L12.264,2.504C12.183,2.46 12.092,2.437 12,2.437C11.908,2.437 11.817,2.46 11.736,2.504L0.486,8.504C0.396,8.552 0.321,8.624 0.268,8.711C0.216,8.798 0.188,8.898 0.188,9C0.188,9.102 0.216,9.202 0.268,9.289C0.321,9.376 0.396,9.448 0.486,9.496L3.187,10.938L3.187,15.59C3.187,15.912 3.306,16.223 3.52,16.464C4.727,17.807 7.433,20.063 12,20.063C13.608,20.078 15.202,19.767 16.687,19.15L16.687,22.5C16.687,22.649 16.747,22.792 16.852,22.898C16.958,23.003 17.101,23.063 17.25,23.063C17.399,23.063 17.542,23.003 17.648,22.898C17.753,22.792 17.812,22.649 17.812,22.5L17.812,18.595C18.811,18.033 19.712,17.313 20.48,16.463C20.695,16.223 20.813,15.912 20.812,15.59L20.812,10.938L23.514,9.496C23.604,9.448 23.679,9.376 23.731,9.289C23.784,9.202 23.811,9.102 23.811,9C23.811,8.898 23.784,8.798 23.731,8.711C23.679,8.624 23.604,8.552 23.514,8.504ZM12,18.938C7.875,18.938 5.437,16.916 4.357,15.712C4.328,15.678 4.312,15.634 4.312,15.59L4.312,11.538L11.736,15.496C11.817,15.539 11.908,15.562 12,15.562C12.092,15.562 12.183,15.539 12.264,15.496L16.687,13.137L16.687,17.919C15.469,18.502 13.917,18.938 12,18.938ZM19.687,15.59C19.687,15.634 19.672,15.678 19.642,15.712C19.102,16.31 18.487,16.837 17.812,17.278L17.812,12.537L19.687,11.538L19.687,15.59ZM17.611,11.371C17.582,11.346 17.551,11.323 17.517,11.304L12.267,8.505C12.136,8.442 11.986,8.432 11.848,8.478C11.711,8.523 11.596,8.619 11.527,8.748C11.459,8.876 11.443,9.025 11.482,9.165C11.522,9.304 11.613,9.423 11.738,9.497L16.43,12L12,14.363L1.945,9L12,3.638L22.055,9L17.611,11.371Z" style="fill:white;fill-rule:nonzero;"/>
</svg>
