<svg width="24" height="24" viewBox="0 0 24 24" fill="none" xmlns="http://www.w3.org/2000/svg">
<path d="M20.0625 8.48256V6.75006C20.0625 5.80523 19.6872 4.89909 19.0191 4.23099C18.351 3.56289 17.4448 3.18756 16.5 3.18756H7.50001C6.55517 3.18756 5.64904 3.56289 4.98094 4.23099C4.31284 4.89909 3.93751 5.80523 3.93751 6.75006V8.48256C3.10059 8.61614 2.33872 9.04372 1.78869 9.6885C1.23866 10.3333 0.936523 11.153 0.936523 12.0005C0.936523 12.848 1.23866 13.6678 1.78869 14.3126C2.33872 14.9573 3.10059 15.3849 3.93751 15.5185V18.7501C3.93751 19.0982 4.07579 19.432 4.32193 19.6781C4.56807 19.9243 4.90191 20.0626 5.25001 20.0626H18.75C19.0981 20.0626 19.4319 19.9243 19.6781 19.6781C19.9242 19.432 20.0625 19.0982 20.0625 18.7501V15.5185C20.8964 15.3819 21.6545 14.9533 22.2016 14.3093C22.7486 13.6653 23.049 12.8479 23.049 12.0029C23.049 11.1579 22.7486 10.3404 22.2016 9.69643C21.6545 9.05244 20.8964 8.62387 20.0625 8.48725V8.48256ZM7.50001 4.31256H16.5C17.1465 4.31256 17.7665 4.56937 18.2236 5.02649C18.6807 5.48361 18.9375 6.1036 18.9375 6.75006V8.48256C18.1013 8.61724 17.3402 9.04509 16.7906 9.68955C16.2409 10.334 15.9385 11.153 15.9375 12.0001V12.1876H8.06251V12.0001C8.06148 11.153 7.75909 10.334 7.20944 9.68955C6.65979 9.04509 5.89875 8.61724 5.06251 8.48256V6.75006C5.06251 6.1036 5.31931 5.48361 5.77643 5.02649C6.23355 4.56937 6.85354 4.31256 7.50001 4.31256ZM19.5328 14.4376H19.5C19.3508 14.4376 19.2077 14.4968 19.1023 14.6023C18.9968 14.7078 18.9375 14.8509 18.9375 15.0001V18.7501C18.9375 18.7998 18.9178 18.8475 18.8826 18.8826C18.8474 18.9178 18.7997 18.9376 18.75 18.9376H5.25001C5.20028 18.9376 5.15259 18.9178 5.11742 18.8826C5.08226 18.8475 5.06251 18.7998 5.06251 18.7501V15.0001C5.06251 14.8509 5.00324 14.7078 4.89775 14.6023C4.79226 14.4968 4.64919 14.4376 4.50001 14.4376H4.46719C3.98655 14.4311 3.51855 14.2827 3.12205 14.0109C2.72554 13.7392 2.41823 13.3563 2.23877 12.9103C2.0593 12.4644 2.01569 11.9754 2.11341 11.5047C2.21113 11.0341 2.44583 10.6028 2.78799 10.2652C3.13016 9.92761 3.5645 9.6987 4.03641 9.60727C4.50832 9.51585 4.99673 9.566 5.44022 9.75141C5.8837 9.93683 6.26247 10.2492 6.52888 10.6493C6.79529 11.0494 6.93746 11.5194 6.93751 12.0001V15.7501C6.93751 15.8992 6.99677 16.0423 7.10226 16.1478C7.20775 16.2533 7.35082 16.3126 7.50001 16.3126C7.64919 16.3126 7.79226 16.2533 7.89775 16.1478C8.00324 16.0423 8.06251 15.8992 8.06251 15.7501V13.3126H15.9375V15.7501C15.9375 15.8992 15.9968 16.0423 16.1023 16.1478C16.2077 16.2533 16.3508 16.3126 16.5 16.3126C16.6492 16.3126 16.7923 16.2533 16.8978 16.1478C17.0032 16.0423 17.0625 15.8992 17.0625 15.7501V12.0001C17.0625 11.5194 17.2047 11.0494 17.4711 10.6493C17.7375 10.2492 18.1163 9.93683 18.5598 9.75141C19.0033 9.566 19.4917 9.51585 19.9636 9.60727C20.4355 9.6987 20.8699 9.92761 21.212 10.2652C21.5542 10.6028 21.7889 11.0341 21.8866 11.5047C21.9843 11.9754 21.9407 12.4644 21.7612 12.9103C21.5818 13.3563 21.2745 13.7392 20.878 14.0109C20.4815 14.2827 20.0135 14.4311 19.5328 14.4376Z" fill="#636363"/>
</svg>
