<svg width="20" height="20" viewBox="0 0 20 20" fill="none" xmlns="http://www.w3.org/2000/svg">
<path fill-rule="evenodd" clip-rule="evenodd" d="M15.686 2.29377C15.1547 2.38832 14.4554 2.61972 13.4352 2.95979L10.1019 4.0709C9.53821 4.25879 9.16554 4.38401 8.891 4.51173C8.63104 4.63266 8.51864 4.72999 8.44662 4.82991C8.37461 4.92983 8.31781 5.06723 8.28529 5.35211C8.25094 5.65295 8.25 6.04609 8.25 6.64025V8.37058L17 5.45391C16.9999 4.41925 16.9966 3.70464 16.9201 3.18329C16.8439 2.66393 16.7134 2.47692 16.5674 2.37172C16.4214 2.26651 16.2027 2.20179 15.686 2.29377ZM18.2418 4.23772C18.2316 3.7673 18.2086 3.35474 18.1569 3.00191C18.06 2.34136 17.8445 1.75133 17.2983 1.35767C16.7521 0.963999 16.1242 0.946124 15.4669 1.06311C14.8347 1.17563 14.0482 1.43783 13.0882 1.75783L9.6737 2.89601C9.15172 3.06998 8.71062 3.217 8.36376 3.37836C7.99506 3.54988 7.67515 3.76246 7.43257 4.09902C7.18999 4.43558 7.08948 4.8063 7.04336 5.21032C7.0198 5.41664 7.00904 5.64798 7.00412 5.90439H7V6.53703C7 6.55973 7 6.58258 7 6.60558L7 12.5708C6.47771 12.1785 5.8285 11.9461 5.125 11.9461C3.39911 11.9461 2 13.3452 2 15.0711C2 16.7969 3.39911 18.1961 5.125 18.1961C6.85089 18.1961 8.25 16.7969 8.25 15.0711V9.68819L17 6.77153V10.9042C16.4777 10.5119 15.8285 10.2794 15.125 10.2794C13.3991 10.2794 12 11.6785 12 13.4044C12 15.1303 13.3991 16.5294 15.125 16.5294C16.8509 16.5294 18.25 15.1303 18.25 13.4044V5.4782C18.25 5.44846 18.25 5.41888 18.25 5.38946V4.23772H18.2418ZM17 13.4044C17 12.3689 16.1605 11.5294 15.125 11.5294C14.0895 11.5294 13.25 12.3689 13.25 13.4044C13.25 14.4399 14.0895 15.2794 15.125 15.2794C16.1605 15.2794 17 14.4399 17 13.4044ZM7 15.0711C7 14.0355 6.16053 13.1961 5.125 13.1961C4.08947 13.1961 3.25 14.0355 3.25 15.0711C3.25 16.1066 4.08947 16.9461 5.125 16.9461C6.16053 16.9461 7 16.1066 7 15.0711Z" fill="#A9A8AA"/>
</svg>
