<svg width="20" height="20" viewBox="0 0 20 20" fill="none" xmlns="http://www.w3.org/2000/svg">
<path fill-rule="evenodd" clip-rule="evenodd" d="M8.10314 3H8.17593C9.36832 2.99999 10.313 2.99998 11.0603 3.08816C11.8275 3.17869 12.4591 3.36874 12.9867 3.80095C13.1657 3.94758 13.3298 4.1114 13.4767 4.29007C13.9097 4.81672 14.1001 5.44718 14.1907 6.21304C14.2111 6.38519 14.2268 6.56782 14.2389 6.76156C14.8238 6.47057 15.3195 6.23147 15.7326 6.09653C16.2174 5.93818 16.7316 5.87428 17.2059 6.16686C17.6801 6.45945 17.8528 6.94715 17.9278 7.4508C18.0001 7.93671 18 8.5768 18 9.34581V9.65419C18 10.4232 18.0001 11.0633 17.9278 11.5492C17.8528 12.0529 17.6801 12.5405 17.2059 12.8331C16.7316 13.1257 16.2174 13.0618 15.7326 12.9035C15.3195 12.7685 14.8238 12.5294 14.2389 12.2384C14.2268 12.4322 14.2111 12.6148 14.1907 12.787C14.1001 13.5528 13.9097 14.1833 13.4767 14.7099C13.3298 14.8886 13.1657 15.0524 12.9867 15.1991C12.4591 15.6313 11.8275 15.8213 11.0603 15.9118C10.313 16 9.36833 16 8.17596 16H8.10311C6.91074 16 5.96611 16 5.21879 15.9118C4.45156 15.8213 3.81997 15.6313 3.29238 15.1991C3.11339 15.0524 2.94927 14.8886 2.80238 14.7099C2.3694 14.1833 2.17901 13.5528 2.08832 12.787C1.99998 12.041 1.99999 11.098 2 9.90776V9.09224C1.99999 7.90198 1.99998 6.95903 2.08832 6.21304C2.17901 5.44718 2.3694 4.81672 2.80238 4.29007C2.94927 4.1114 3.11339 3.94758 3.29238 3.80095C3.81997 3.36874 4.45156 3.17869 5.21879 3.08816C5.96612 2.99998 6.91075 2.99999 8.10314 3ZM13.1628 9.87143V9.12857C13.1628 7.89386 13.1619 7.01681 13.0822 6.34384C13.004 5.68318 12.8565 5.29218 12.6138 4.99697C12.5133 4.87472 12.401 4.76263 12.2785 4.6623C11.9828 4.42003 11.5911 4.27284 10.9292 4.19474C10.2551 4.1152 9.37646 4.11429 8.13954 4.11429C6.90261 4.11429 6.02399 4.1152 5.34983 4.19474C4.68798 4.27284 4.29628 4.42003 4.00054 4.6623C3.87807 4.76263 3.76578 4.87472 3.66528 4.99697C3.42257 5.29218 3.27511 5.68318 3.19688 6.34384C3.11719 7.01681 3.11628 7.89386 3.11628 9.12857V9.87143C3.11628 11.1061 3.11719 11.9832 3.19688 12.6562C3.27511 13.3168 3.42257 13.7078 3.66528 14.003C3.76578 14.1253 3.87807 14.2374 4.00054 14.3377C4.29628 14.58 4.68798 14.7272 5.34983 14.8053C6.02399 14.8848 6.90261 14.8857 8.13954 14.8857C9.37646 14.8857 10.2551 14.8848 10.9292 14.8053C11.5911 14.7272 11.9828 14.58 12.2785 14.3377C12.401 14.2374 12.5133 14.1253 12.6138 14.003C12.8565 13.7078 13.004 13.3168 13.0822 12.6562C13.1619 11.9832 13.1628 11.1061 13.1628 9.87143ZM14.2791 11.0128L14.4605 11.1034C15.2012 11.4731 15.7003 11.7205 16.0797 11.8444C16.4513 11.9658 16.5639 11.9193 16.619 11.8853C16.6742 11.8512 16.7662 11.7716 16.8236 11.3855C16.8822 10.9913 16.8837 10.4351 16.8837 9.60838V9.39162C16.8837 8.56491 16.8822 8.00866 16.8236 7.61447C16.7662 7.2284 16.6742 7.14876 16.619 7.11473C16.5639 7.08071 16.4514 7.03418 16.0797 7.15556C15.7003 7.2795 15.2012 7.52693 14.4605 7.89665L14.2791 7.98719V9.02939C14.2791 9.05027 14.2791 9.07121 14.2791 9.09224V9.90776C14.2791 9.92879 14.2791 9.94974 14.2791 9.97061V11.0128Z" fill="white"/>
</svg>
