<svg width="23" height="23" viewBox="0 0 23 23" fill="none" xmlns="http://www.w3.org/2000/svg">
<path d="M15.2809 8.21975C15.3506 8.28941 15.4059 8.37213 15.4437 8.46317C15.4814 8.55422 15.5009 8.65182 15.5009 8.75038C15.5009 8.84894 15.4814 8.94654 15.4437 9.03758C15.4059 9.12863 15.3506 9.21135 15.2809 9.281L9.28089 15.281C9.21121 15.3507 9.12848 15.406 9.03744 15.4437C8.9464 15.4814 8.84881 15.5008 8.75027 15.5008C8.65172 15.5008 8.55414 15.4814 8.4631 15.4437C8.37205 15.406 8.28932 15.3507 8.21964 15.281C8.14996 15.2113 8.09468 15.1286 8.05697 15.0376C8.01926 14.9465 7.99985 14.8489 7.99985 14.7504C7.99985 14.6518 8.01926 14.5543 8.05697 14.4632C8.09468 14.3722 8.14996 14.2894 8.21964 14.2198L14.2196 8.21975C14.2893 8.15002 14.372 8.0947 14.4631 8.05696C14.5541 8.01922 14.6517 7.99979 14.7503 7.99979C14.8488 7.99979 14.9464 8.01922 15.0375 8.05696C15.1285 8.0947 15.2112 8.15002 15.2809 8.21975ZM19.9628 3.53788C19.4753 3.05031 18.8965 2.66355 18.2595 2.39968C17.6225 2.13581 16.9398 2 16.2503 2C15.5608 2 14.878 2.13581 14.2411 2.39968C13.6041 2.66355 13.0253 3.05031 12.5378 3.53788L9.71964 6.35507C9.57891 6.4958 9.49985 6.68667 9.49985 6.88569C9.49985 7.08471 9.57891 7.27559 9.71964 7.41632C9.86037 7.55705 10.0512 7.63611 10.2503 7.63611C10.4493 7.63611 10.6402 7.55705 10.7809 7.41632L13.599 4.60382C14.3048 3.91349 15.2544 3.52936 16.2417 3.5348C17.229 3.54024 18.1743 3.9348 18.8725 4.63286C19.5707 5.33092 19.9654 6.27615 19.971 7.26343C19.9766 8.25071 19.5927 9.20037 18.9025 9.90632L16.0834 12.7244C15.9427 12.865 15.8636 13.0558 15.8635 13.2547C15.8634 13.4537 15.9423 13.6445 16.0829 13.7852C16.2235 13.926 16.4143 14.0051 16.6132 14.0052C16.8122 14.0052 17.003 13.9263 17.1437 13.7857L19.9628 10.9629C20.4503 10.4754 20.8371 9.89659 21.101 9.25959C21.3648 8.6226 21.5006 7.93986 21.5006 7.25038C21.5006 6.56089 21.3648 5.87816 21.101 5.24117C20.8371 4.60417 20.4503 4.02539 19.9628 3.53788ZM12.7196 16.0835L9.90152 18.9016C9.55472 19.2562 9.14102 19.5385 8.68438 19.7321C8.22774 19.9257 7.73722 20.0268 7.24124 20.0295C6.74526 20.0323 6.25367 19.9366 5.79492 19.748C5.33617 19.5594 4.91939 19.2817 4.56871 18.931C4.21802 18.5802 3.9404 18.1634 3.75192 17.7046C3.56343 17.2459 3.46783 16.7542 3.47065 16.2583C3.47347 15.7623 3.57465 15.2718 3.76834 14.8152C3.96203 14.3586 4.24437 13.9449 4.59902 13.5982L7.41621 10.781C7.55694 10.6403 7.636 10.4494 7.636 10.2504C7.636 10.0514 7.55694 9.86048 7.41621 9.71975C7.27547 9.57902 7.0846 9.49996 6.88558 9.49996C6.68656 9.49996 6.49569 9.57902 6.35496 9.71975L3.53777 12.5379C2.55315 13.5225 2 14.8579 2 16.2504C2 17.6428 2.55315 18.9783 3.53777 19.9629C4.52238 20.9475 5.85781 21.5006 7.25027 21.5006C8.64273 21.5006 9.97815 20.9475 10.9628 19.9629L13.7809 17.1438C13.9215 17.0031 14.0004 16.8123 14.0004 16.6133C14.0003 16.4144 13.9212 16.2236 13.7804 16.083C13.6397 15.9424 13.4489 15.8635 13.2499 15.8636C13.051 15.8637 12.8602 15.9428 12.7196 16.0835Z" fill="#636363"/>
</svg>
