<svg width="23" height="23" viewBox="0 0 23 23" fill="none" xmlns="http://www.w3.org/2000/svg">
<path d="M11.75 2C9.82164 2 7.93657 2.57183 6.33319 3.64317C4.72982 4.71452 3.48013 6.23726 2.74218 8.01884C2.00422 9.80042 1.81114 11.7608 2.18735 13.6521C2.56355 15.5434 3.49215 17.2807 4.85571 18.6443C6.21928 20.0079 7.95656 20.9365 9.84787 21.3127C11.7392 21.6889 13.6996 21.4958 15.4812 20.7578C17.2627 20.0199 18.7855 18.7702 19.8568 17.1668C20.9282 15.5634 21.5 13.6784 21.5 11.75C21.4973 9.16498 20.4692 6.68661 18.6413 4.85872C16.8134 3.03084 14.335 2.00273 11.75 2ZM11.75 20C10.1183 20 8.52326 19.5161 7.16655 18.6096C5.80984 17.7031 4.75242 16.4146 4.128 14.9071C3.50358 13.3996 3.3402 11.7408 3.65853 10.1405C3.97685 8.54016 4.76259 7.07015 5.91637 5.91637C7.07016 4.76259 8.54017 3.97685 10.1405 3.65852C11.7409 3.34019 13.3997 3.50357 14.9071 4.12799C16.4146 4.75242 17.7031 5.80984 18.6096 7.16655C19.5162 8.52325 20 10.1183 20 11.75C19.9975 13.9373 19.1275 16.0343 17.5809 17.5809C16.0343 19.1275 13.9373 19.9975 11.75 20ZM7.25 9.875C7.25 9.6525 7.31598 9.43499 7.4396 9.24998C7.56322 9.06498 7.73892 8.92078 7.94449 8.83564C8.15005 8.75049 8.37625 8.72821 8.59448 8.77162C8.81271 8.81502 9.01317 8.92217 9.1705 9.0795C9.32783 9.23684 9.43498 9.43729 9.47839 9.65552C9.5218 9.87375 9.49952 10.1 9.41437 10.3055C9.32922 10.5111 9.18503 10.6868 9.00002 10.8104C8.81502 10.934 8.59751 11 8.375 11C8.07664 11 7.79049 10.8815 7.57951 10.6705C7.36853 10.4595 7.25 10.1734 7.25 9.875ZM16.25 9.875C16.25 10.0975 16.184 10.315 16.0604 10.5C15.9368 10.685 15.7611 10.8292 15.5555 10.9144C15.35 10.9995 15.1238 11.0218 14.9055 10.9784C14.6873 10.935 14.4868 10.8278 14.3295 10.6705C14.1722 10.5132 14.065 10.3127 14.0216 10.0945C13.9782 9.87625 14.0005 9.65005 14.0856 9.44448C14.1708 9.23891 14.315 9.06321 14.5 8.9396C14.685 8.81598 14.9025 8.75 15.125 8.75C15.4234 8.75 15.7095 8.86853 15.9205 9.0795C16.1315 9.29048 16.25 9.57663 16.25 9.875ZM16.1497 14.375C15.185 16.0428 13.5809 17 11.75 17C9.91907 17 8.31594 16.0437 7.35125 14.375C7.29699 14.2896 7.26055 14.1942 7.24413 14.0944C7.22772 13.9946 7.23166 13.8925 7.25573 13.7942C7.27979 13.696 7.32348 13.6036 7.38417 13.5227C7.44485 13.4417 7.52128 13.3739 7.60886 13.3233C7.69643 13.2727 7.79334 13.2403 7.89375 13.2281C7.99417 13.2159 8.09601 13.2242 8.19316 13.2523C8.2903 13.2805 8.38074 13.3281 8.45904 13.3921C8.53734 13.4562 8.60187 13.5354 8.64875 13.625C9.34907 14.8353 10.4497 15.5 11.75 15.5C13.0503 15.5 14.1509 14.8344 14.8503 13.625C14.9498 13.4527 15.1136 13.3269 15.3058 13.2754C15.4979 13.2239 15.7027 13.2509 15.875 13.3503C16.0473 13.4498 16.1731 13.6136 16.2246 13.8058C16.2761 13.9979 16.2491 14.2027 16.1497 14.375Z" fill="#3684B3"/>
</svg>
