<svg width="20" height="20" viewBox="0 0 20 20" fill="none" xmlns="http://www.w3.org/2000/svg">
<path fill-rule="evenodd" clip-rule="evenodd" d="M12.9857 1.18328C14.0791 1.55122 14.7916 2.58 14.7916 3.92877C14.7916 4.77672 14.3096 5.55719 13.7724 6.17988C13.2202 6.81998 12.5213 7.3944 11.91 7.84003C11.8838 7.85913 11.8579 7.8781 11.8321 7.89694C11.2387 8.33048 10.7492 8.68813 9.99997 8.68813C9.25069 8.68813 8.76121 8.33047 8.16787 7.89693C8.14209 7.8781 8.11612 7.85912 8.08992 7.84002C7.47859 7.39439 6.77971 6.81997 6.22751 6.17987C5.69034 5.55719 5.2083 4.77672 5.2083 3.92878C5.2083 2.58 5.92082 1.55123 7.01419 1.18328C7.94675 0.869441 9.03228 1.07659 9.99997 1.781C10.9677 1.07659 12.0532 0.869441 12.9857 1.18328ZM12.5871 2.36799C12.0437 2.18513 11.2334 2.30343 10.4229 3.04842C10.1838 3.26822 9.81615 3.26822 9.57701 3.04842C8.76653 2.30343 7.95625 2.18513 7.41288 2.36799C6.89165 2.5434 6.4583 3.04658 6.4583 3.92878C6.4583 4.31842 6.6954 4.80859 7.174 5.36337C7.63757 5.90074 8.25107 6.41063 8.82625 6.82991C9.52886 7.34209 9.69582 7.43813 9.99997 7.43813C10.3041 7.43813 10.4711 7.34209 11.1737 6.82992C11.7489 6.41064 12.3624 5.90075 12.8259 5.36338C13.3045 4.8086 13.5416 4.31843 13.5416 3.92877C13.5416 3.04658 13.1083 2.5434 12.5871 2.36799ZM7.23656 12.0399C8.79141 11.7387 10.4559 11.8063 11.8027 12.6096C11.9919 12.7225 12.1692 12.863 12.3239 13.0368C12.6371 13.3886 12.7989 13.8259 12.8065 14.2643C12.9659 14.1615 13.1256 14.0473 13.2878 13.9248L14.7938 12.7872C15.5476 12.2177 16.6431 12.2176 17.397 12.7869C18.0936 13.3129 18.3714 14.2569 17.8727 15.0563C17.5182 15.6244 16.9845 16.4102 16.4413 16.9133C15.8922 17.4219 15.1107 17.8494 14.5195 18.1348C13.8016 18.4813 13.0263 18.6729 12.2723 18.7949C10.7313 19.0444 9.12782 19.0062 7.60413 18.6923C6.82546 18.5319 6.01626 18.4485 5.21658 18.4485H3.3333C2.98812 18.4485 2.7083 18.1686 2.7083 17.8235C2.7083 17.4783 2.98812 17.1985 3.3333 17.1985H5.21658C6.10167 17.1985 6.99537 17.2906 7.85636 17.468C9.23306 17.7516 10.6834 17.7858 12.0726 17.561C12.7633 17.4492 13.4084 17.2831 13.9762 17.0091C14.5457 16.7342 15.186 16.3721 15.5919 15.9962C16.0023 15.6161 16.4617 14.9564 16.8121 14.3946C16.9179 14.2251 16.9033 13.9804 16.6438 13.7845C16.3357 13.5518 15.8552 13.5519 15.5472 13.7846L14.0412 14.9222C13.44 15.3763 12.7001 15.8622 11.7822 16.0086C11.6896 16.0234 11.5932 16.0369 11.4931 16.0488C11.4453 16.0574 11.3957 16.0631 11.3443 16.0651C10.8757 16.1116 10.3331 16.1224 9.73435 16.0659C9.3907 16.0335 9.13843 15.7286 9.17088 15.3849C9.20332 15.0413 9.50821 14.789 9.85186 14.8214C10.3747 14.8708 10.8438 14.8599 11.2418 14.819C11.2499 14.8182 11.2579 14.8174 11.266 14.8165C11.2826 14.8069 11.308 14.7893 11.3413 14.7602C11.6075 14.5278 11.6313 14.1387 11.3903 13.868C11.3292 13.7994 11.254 13.7378 11.1624 13.6832C10.1781 13.0961 8.8635 12.998 7.47431 13.2671C6.09304 13.5347 4.72073 14.1512 3.69485 14.8787C3.41329 15.0784 3.02317 15.012 2.82349 14.7305C2.62381 14.4489 2.69019 14.0588 2.97176 13.8591C4.13706 13.0327 5.6738 12.3427 7.23656 12.0399Z" fill="white"/>
</svg>
