<svg width="20" height="20" viewBox="0 0 20 20" fill="none" xmlns="http://www.w3.org/2000/svg">
<path fill-rule="evenodd" clip-rule="evenodd" d="M4.68705 3.68682C3.30455 4.31876 2.29175 5.82185 2.29175 7.61424C2.29175 9.4454 3.0411 10.8569 4.11532 12.0665C5.00069 13.0634 6.07244 13.8897 7.11769 14.6955C7.36594 14.8869 7.61271 15.0771 7.85512 15.2682C8.29348 15.6138 8.68452 15.9171 9.06142 16.1373C9.43853 16.3577 9.74208 16.4583 10.0001 16.4583C10.2581 16.4583 10.5616 16.3577 10.9387 16.1373C11.3156 15.9171 11.7067 15.6138 12.145 15.2682C12.3875 15.0771 12.6342 14.8869 12.8825 14.6955C13.9277 13.8897 14.9995 13.0634 15.8848 12.0665C16.9591 10.8569 17.7084 9.4454 17.7084 7.61424C17.7084 5.82185 16.6956 4.31876 15.3131 3.68682C13.97 3.07288 12.1654 3.23547 10.4504 5.01727C10.3326 5.13968 10.17 5.20885 10.0001 5.20885C9.83018 5.20885 9.6676 5.13968 9.54978 5.01727C7.8348 3.23547 6.03014 3.07288 4.68705 3.68682ZM10.0001 3.71567C8.07337 1.99186 5.91588 1.75071 4.16738 2.54995C2.32068 3.39409 1.04175 5.35418 1.04175 7.61424C1.04175 9.83551 1.96716 11.53 3.18068 12.8965C4.15248 13.9908 5.34193 14.9066 6.39244 15.7155C6.63057 15.8988 6.86156 16.0767 7.08126 16.2499C7.50813 16.5864 7.96637 16.9452 8.43077 17.2166C8.89496 17.4878 9.42475 17.7083 10.0001 17.7083C10.5754 17.7083 11.1052 17.4878 11.5694 17.2166C12.0338 16.9452 12.492 16.5864 12.9189 16.2499C13.1386 16.0767 13.3696 15.8988 13.6077 15.7155C14.6582 14.9066 15.8477 13.9908 16.8195 12.8965C18.033 11.53 18.9584 9.83551 18.9584 7.61424C18.9584 5.35418 17.6795 3.39409 15.8328 2.54995C14.0843 1.75071 11.9268 1.99186 10.0001 3.71567Z" fill="white"/>
</svg>
