<svg width="26" height="27" viewBox="0 0 26 27" fill="none" xmlns="http://www.w3.org/2000/svg">
<path d="M13 0.5C10.4288 0.5 7.91543 1.26244 5.77759 2.6909C3.63975 4.11935 1.97351 6.14968 0.989572 8.52512C0.0056327 10.9006 -0.251811 13.5144 0.249797 16.0362C0.751405 18.5579 1.98953 20.8743 3.80762 22.6924C5.6257 24.5105 7.94208 25.7486 10.4638 26.2502C12.9856 26.7518 15.5995 26.4944 17.9749 25.5104C20.3503 24.5265 22.3807 22.8603 23.8091 20.7224C25.2376 18.5846 26 16.0712 26 13.5C25.9964 10.0533 24.6256 6.74882 22.1884 4.31163C19.7512 1.87445 16.4467 0.50364 13 0.5ZM13 24.5C10.8244 24.5 8.69767 23.8549 6.88873 22.6462C5.07979 21.4375 3.66989 19.7195 2.83733 17.7095C2.00477 15.6995 1.78693 13.4878 2.21137 11.354C2.63581 9.22022 3.68345 7.2602 5.22183 5.72183C6.76021 4.18345 8.72022 3.1358 10.854 2.71136C12.9878 2.28692 15.1995 2.50476 17.2095 3.33733C19.2195 4.16989 20.9375 5.57979 22.1462 7.38873C23.3549 9.19767 24 11.3244 24 13.5C23.9967 16.4164 22.8367 19.2123 20.7745 21.2745C18.7123 23.3367 15.9164 24.4967 13 24.5ZM7.00001 11C7.00001 10.7033 7.08798 10.4133 7.2528 10.1666C7.41762 9.91997 7.65189 9.72771 7.92598 9.61418C8.20007 9.50065 8.50167 9.47094 8.79264 9.52882C9.08361 9.5867 9.35089 9.72956 9.56067 9.93934C9.77044 10.1491 9.91331 10.4164 9.97118 10.7074C10.0291 10.9983 9.99936 11.2999 9.88583 11.574C9.77229 11.8481 9.58003 12.0824 9.33336 12.2472C9.08669 12.412 8.79668 12.5 8.50001 12.5C8.10218 12.5 7.72065 12.342 7.43935 12.0607C7.15804 11.7794 7.00001 11.3978 7.00001 11ZM20 11C20 11.2652 19.8946 11.5196 19.7071 11.7071C19.5196 11.8946 19.2652 12 19 12H16C15.7348 12 15.4804 11.8946 15.2929 11.7071C15.1054 11.5196 15 11.2652 15 11C15 10.7348 15.1054 10.4804 15.2929 10.2929C15.4804 10.1054 15.7348 10 16 10H19C19.2652 10 19.5196 10.1054 19.7071 10.2929C19.8946 10.4804 20 10.7348 20 11ZM18.865 17C17.5788 19.2238 15.4413 20.5 13 20.5C10.5588 20.5 8.42126 19.225 7.13376 17C7.06809 16.8862 7.02548 16.7607 7.00835 16.6304C6.99122 16.5002 6.99991 16.3679 7.03392 16.241C7.06793 16.1142 7.1266 15.9952 7.20657 15.891C7.28654 15.7868 7.38625 15.6994 7.50001 15.6338C7.61376 15.5681 7.73934 15.5255 7.86957 15.5083C7.99979 15.4912 8.13212 15.4999 8.25898 15.5339C8.38585 15.5679 8.50478 15.6266 8.60897 15.7066C8.71317 15.7865 8.80059 15.8862 8.86626 16C9.79876 17.6137 11.2663 18.5 13 18.5C14.7338 18.5 16.2013 17.6125 17.135 16C17.1975 15.8805 17.2836 15.7749 17.388 15.6895C17.4924 15.6041 17.6129 15.5407 17.7425 15.5031C17.872 15.4655 18.0078 15.4546 18.1417 15.4708C18.2756 15.4871 18.4048 15.5303 18.5215 15.5978C18.6383 15.6652 18.7402 15.7557 18.8211 15.8636C18.902 15.9715 18.9603 16.0946 18.9924 16.2256C19.0245 16.3566 19.0297 16.4927 19.0078 16.6258C18.9859 16.7589 18.9374 16.8862 18.865 17Z" fill="white"/>
</svg>
