<svg width="21" height="22" viewBox="0 0 21 22" fill="none" xmlns="http://www.w3.org/2000/svg">
<path d="M10.2312 13.8206C11.9306 13.8206 13.3081 12.5578 13.3081 11.0001C13.3081 9.44233 11.9306 8.17954 10.2312 8.17954C8.53188 8.17954 7.1543 9.44233 7.1543 11.0001C7.1543 12.5578 8.53188 13.8206 10.2312 13.8206Z" stroke="#2D2D2D" stroke-width="1.5"/>
<path d="M12.2636 1.15224C11.8937 1 11.4249 1 10.4872 1C9.54946 1 9.08065 1 8.71075 1.15224C8.21765 1.35523 7.82587 1.74458 7.62161 2.23463C7.52837 2.45834 7.49187 2.7185 7.47759 3.09799C7.45661 3.65568 7.16882 4.17189 6.68248 4.45093C6.19616 4.72996 5.60242 4.71954 5.10593 4.45876C4.76809 4.2813 4.52313 4.18262 4.28156 4.15102C3.75237 4.08178 3.21718 4.22429 2.79373 4.5472C2.47614 4.78938 2.24171 5.1929 1.77285 5.99993C1.304 6.80697 1.06957 7.21048 1.01732 7.60491C0.947655 8.1308 1.09106 8.66266 1.41599 9.0835C1.56429 9.2756 1.77272 9.437 2.09622 9.639C2.57179 9.936 2.87778 10.4419 2.87775 11C2.87772 11.5581 2.57174 12.0639 2.09621 12.3608C1.77267 12.5629 1.56421 12.7244 1.41588 12.9165C1.09096 13.3373 0.947554 13.8691 1.01723 14.395C1.06947 14.7894 1.3039 15.193 1.77275 16C2.24162 16.807 2.47604 17.2106 2.79363 17.4527C3.21708 17.7756 3.75227 17.9181 4.28146 17.8489C4.52301 17.8173 4.76796 17.7186 5.10578 17.5412C5.6023 17.2804 6.19608 17.27 6.68244 17.549C7.1688 17.8281 7.45661 18.3443 7.47759 18.9021C7.49188 19.2815 7.52837 19.5417 7.62161 19.7654C7.82587 20.2554 8.21765 20.6448 8.71075 20.8478C9.08065 21 9.54946 21 10.4872 21C11.4249 21 11.8937 21 12.2636 20.8478C12.7567 20.6448 13.1485 20.2554 13.3527 19.7654C13.446 19.5417 13.4825 19.2815 13.4968 18.902C13.5177 18.3443 13.8055 17.8281 14.2918 17.549C14.7782 17.2699 15.3719 17.2804 15.8685 17.5412C16.2063 17.7186 16.4513 17.8172 16.6928 17.8488C17.2219 17.9181 17.7572 17.7756 18.1806 17.4527C18.4982 17.2105 18.7326 16.807 19.2015 15.9999C19.6704 15.1929 19.9048 14.7894 19.957 14.395C20.0267 13.8691 19.8833 13.3372 19.5584 12.9164C19.41 12.7243 19.2016 12.5628 18.878 12.3608C18.4026 12.0639 18.0966 11.558 18.0966 10.9999C18.0966 10.4418 18.4026 9.9361 18.878 9.6392C19.2017 9.4371 19.4102 9.2757 19.5585 9.0835C19.8834 8.66273 20.0268 8.13087 19.9572 7.60497C19.9049 7.21055 19.6705 6.80703 19.2016 6C18.7327 5.19297 18.4983 4.78945 18.1807 4.54727C17.7573 4.22436 17.222 4.08185 16.6929 4.15109C16.4514 4.18269 16.2064 4.28136 15.8685 4.4588C15.3721 4.71959 14.7783 4.73002 14.2919 4.45096C13.8055 4.17191 13.5177 3.65566 13.4968 3.09794C13.4825 2.71848 13.446 2.45833 13.3527 2.23463C13.1485 1.74458 12.7567 1.35523 12.2636 1.15224Z" stroke="#2D2D2D" stroke-width="1.5"/>
</svg>
