<svg width="20" height="20" viewBox="0 0 20 20" fill="none" xmlns="http://www.w3.org/2000/svg">
<path d="M19.4998 9.93974C19.477 8.07026 18.9237 6.24627 17.905 4.68257C16.8864 3.11888 15.4449 1.88061 13.7503 1.1136C12.0556 0.346597 10.1784 0.0827979 8.33977 0.353256C6.50115 0.623727 4.77759 1.41718 3.37212 2.64023C1.96665 3.86325 0.937784 5.46491 0.406699 7.25656C-0.124375 9.04823 -0.135563 10.9552 0.374474 12.7531C0.884511 14.551 1.89452 16.1646 3.28555 17.4043C4.67658 18.6439 6.39071 19.4578 8.22606 19.7501V12.797H5.7885V9.93974H8.22606V7.76921C8.16963 7.26454 8.22399 6.75353 8.38535 6.27229C8.54672 5.79104 8.81108 5.35129 9.15977 4.98408C9.50846 4.61686 9.93297 4.33112 10.4034 4.14704C10.8739 3.96295 11.3788 3.885 11.8824 3.91869C12.6134 3.92876 13.3428 3.99436 14.064 4.1149V6.56748H12.8453C12.6351 6.54081 12.4216 6.562 12.2208 6.62948C12.0198 6.69696 11.8365 6.80901 11.6844 6.95734C11.5323 7.10568 11.4153 7.2865 11.342 7.48643C11.2686 7.68643 11.241 7.90042 11.2608 8.11257V9.96427H13.9665L13.5278 12.8215H11.273V19.6887C13.5764 19.3222 15.673 18.1371 17.1823 16.3485C18.6916 14.5598 19.5138 12.2861 19.4998 9.93974Z" fill="#2D2D2D"/>
</svg>
