<svg width="22" height="22" viewBox="0 0 22 22" fill="none" xmlns="http://www.w3.org/2000/svg">
<path d="M10.75 20.7501C8.65936 20.7501 7.15491 20.749 5.98195 20.6353C4.82244 20.5229 4.0807 20.3069 3.48876 19.9349C2.81221 19.5098 2.24012 18.9378 1.81501 18.2613C1.44318 17.6694 1.22706 16.9276 1.11478 15.7681C1.00103 14.5952 1 13.0907 1 11.0001C1 8.90942 1.00103 7.40497 1.11478 6.23202C1.22706 5.0725 1.44318 4.33077 1.81501 3.73882C2.24011 3.06225 2.81219 2.49017 3.48876 2.06507C4.0807 1.69324 4.82244 1.47712 5.98195 1.36485C7.15476 1.2511 8.65922 1.25006 10.75 1.25006C12.8406 1.25006 14.3451 1.2511 15.518 1.36485C16.6776 1.47712 17.4193 1.69324 18.0112 2.06507C18.6878 2.49019 19.2598 3.06227 19.6848 3.73882C20.0568 4.33077 20.2728 5.0725 20.3852 6.23202C20.499 7.40497 20.5 8.90942 20.5 11.0001C20.5 13.0907 20.499 14.5952 20.3852 15.7681C20.2728 16.9276 20.0568 17.6694 19.6848 18.2613C19.2598 18.9378 18.6877 19.5098 18.0112 19.9349C17.4193 20.3069 16.6776 20.5229 15.518 20.6353C14.3451 20.749 12.8406 20.7501 10.75 20.7501Z" stroke="#2D2D2D" stroke-width="1.5"/>
<path d="M10.4999 15.2207C12.9689 15.2207 14.9705 13.2192 14.9705 10.7501C14.9705 8.28109 12.9689 6.27954 10.4999 6.27954C8.03085 6.27954 6.0293 8.28109 6.0293 10.7501C6.0293 13.2192 8.03085 15.2207 10.4999 15.2207Z" stroke="#2D2D2D" stroke-width="1.5"/>
<path d="M16.0884 6.27939C16.7056 6.27939 17.206 5.779 17.206 5.16174C17.206 4.54449 16.7056 4.0441 16.0884 4.0441C15.4711 4.0441 14.9707 4.54449 14.9707 5.16174C14.9707 5.779 15.4711 6.27939 16.0884 6.27939Z" fill="#2D2D2D"/>
</svg>
