<svg width="20" height="20" viewBox="0 0 20 20" fill="none" xmlns="http://www.w3.org/2000/svg">
<path fill-rule="evenodd" clip-rule="evenodd" d="M5.2161 1.16175C5.827 -0.387211 8.01919 -0.387211 8.63006 1.16175L9.72955 3.94959C9.7597 4.026 9.82022 4.08649 9.89663 4.11662L12.6844 5.21613C14.2335 5.82703 14.2335 8.01922 12.6844 8.63009L9.89663 9.72958C9.82022 9.75974 9.7597 9.82025 9.72955 9.89666L8.63006 12.6845C8.01919 14.2335 5.827 14.2335 5.2161 12.6845L4.11659 9.89666C4.08646 9.82025 4.02597 9.75974 3.94956 9.72958L1.16172 8.63009C-0.387242 8.01922 -0.387242 5.82703 1.16172 5.21613L3.94956 4.11662C4.02597 4.08649 4.08646 4.026 4.11659 3.94959L5.2161 1.16175ZM7.19889 1.7262C7.10018 1.47592 6.74599 1.47593 6.64728 1.7262L5.54777 4.51404C5.36126 4.98695 4.98692 5.36129 4.51402 5.5478L1.72617 6.64731C1.47589 6.74602 1.4759 7.10021 1.72617 7.19892L4.51401 8.2984C4.98692 8.48496 5.36126 8.85932 5.54777 9.33214L6.64728 12.12C6.74599 12.3703 7.10018 12.3703 7.19889 12.12L8.29837 9.33214C8.48493 8.85932 8.85929 8.48496 9.33211 8.2984L12.12 7.19892C12.3703 7.10021 12.3703 6.74602 12.12 6.64731L9.33211 5.5478C8.85929 5.36129 8.48493 4.98695 8.29837 4.51405L7.19889 1.7262ZM13.888 11.1006C14.3318 9.97512 15.9246 9.97512 16.3684 11.1006L17.1568 13.0996L19.1559 13.888C20.2814 14.3318 20.2814 15.9247 19.1559 16.3685L17.1568 17.1569L16.3684 19.156C15.9246 20.2814 14.3318 20.2814 13.888 19.156L13.0996 17.1569L11.1005 16.3685C9.97509 15.9247 9.97509 14.3318 11.1005 13.888L13.0996 13.0996L13.888 11.1006ZM15.1282 12.1491L14.4981 13.747C14.3625 14.0906 14.0906 14.3625 13.747 14.4981L12.149 15.1283L13.747 15.7584C14.0906 15.894 14.3625 16.1659 14.4981 16.5095L15.1282 18.1074L15.7584 16.5095C15.894 16.1659 16.1659 15.894 16.5095 15.7584L18.1074 15.1283L16.5095 14.4981C16.1659 14.3625 15.894 14.0906 15.7584 13.747L15.1282 12.1491Z" fill="#2D2D2D"/>
</svg>
