<svg xmlns="http://www.w3.org/2000/svg" xmlns:xlink="http://www.w3.org/1999/xlink" width="378" zoomAndPan="magnify" viewBox="0 0 283.5 200.249992" height="267" preserveAspectRatio="xMidYMid meet" version="1.0"><defs><g/><clipPath id="a96e1eabdf"><path d="M 72 149 L 88 149 L 88 199.503906 L 72 199.503906 Z M 72 149 " clip-rule="nonzero"/></clipPath><clipPath id="25bf12dfae"><path d="M 0.28125 105 L 52 105 L 52 112 L 0.28125 112 Z M 0.28125 105 " clip-rule="nonzero"/></clipPath><clipPath id="e815ed5adb"><path d="M 91 0 L 97.589844 0 L 97.589844 52 L 91 52 Z M 91 0 " clip-rule="nonzero"/></clipPath></defs><g fill="#ee5f64" fill-opacity="1"><g transform="translate(71.962247, 127.226674)"><g><path d="M 9.167969 0 C 7.542969 -6.488281 7.300781 -12.492188 7.300781 -19.308594 L 7.300781 -53.460938 L 43.484375 0 L 49.648438 0 L 49.648438 -38.941406 C 49.648438 -44.699219 49.972656 -51.191406 51.433594 -56.949219 L 46.808594 -56.949219 C 48.1875 -51.191406 48.59375 -44.78125 48.59375 -38.941406 L 48.59375 -2.757812 L 11.84375 -56.949219 L 6.328125 -56.949219 L 6.328125 -19.308594 C 6.328125 -12.085938 6.003906 -6.488281 4.460938 0 Z M 9.167969 0 "/></g></g></g><g fill="#ee5f64" fill-opacity="1"><g transform="translate(127.530459, 127.226674)"><g><path d="M 9.328125 0 L 19.390625 -25.3125 L 43.726562 -25.3125 L 45.59375 -20.523438 C 48.511719 -13.140625 49.648438 -6.894531 50.785156 0 L 54.839844 0 L 32.042969 -56.949219 L 25.554688 -56.949219 L 2.839844 0 Z M 31.558594 -55.652344 L 43.320312 -26.285156 L 19.792969 -26.285156 Z M 31.558594 -55.652344 "/></g></g></g><g fill="#ee5f64" fill-opacity="1"><g transform="translate(185.207827, 127.226674)"><g><path d="M 41.050781 0 L 41.050781 -4.867188 C 33.179688 -1.785156 24.824219 -0.972656 12.167969 -0.972656 L 12.167969 -56.949219 L 5.679688 -56.949219 L 5.679688 0 Z M 41.050781 0 "/></g></g></g><g fill="#ee5f64" fill-opacity="1"><g transform="translate(230.230246, 127.226674)"><g><path d="M 26.691406 1.21875 C 38.941406 1.21875 48.1875 -5.109375 48.1875 -17.847656 L 48.1875 -56.949219 L 41.699219 -56.949219 L 41.699219 -15.25 C 41.699219 -3.164062 33.75 0.242188 26.691406 0.242188 C 19.550781 0.242188 11.4375 -3.164062 11.4375 -15.25 L 11.4375 -56.949219 L 4.867188 -56.949219 L 4.867188 -17.847656 C 4.867188 -5.109375 14.441406 1.21875 26.691406 1.21875 Z M 26.691406 1.21875 "/></g></g></g><path fill="#ee5f64" d="M 16.613281 92.90625 C 16.449219 92.902344 16.300781 92.953125 16.175781 93.0625 C 16.050781 93.171875 15.980469 93.3125 15.964844 93.476562 C 15.949219 93.644531 15.992188 93.792969 16.09375 93.925781 C 16.195312 94.058594 16.332031 94.136719 16.496094 94.164062 L 51.273438 97.476562 L 51.332031 97.476562 C 51.5 97.476562 51.644531 97.414062 51.761719 97.300781 C 51.882812 97.183594 51.945312 97.042969 51.953125 96.875 C 51.960938 96.707031 51.910156 96.5625 51.804688 96.433594 C 51.695312 96.308594 51.558594 96.234375 51.390625 96.21875 Z M 16.613281 92.90625 " fill-opacity="1" fill-rule="nonzero"/><path fill="#ee5f64" d="M 63.292969 133.960938 C 63.316406 133.679688 63.207031 133.472656 62.957031 133.34375 C 62.707031 133.210938 62.476562 133.234375 62.257812 133.414062 L 35.367188 155.625 C 35.140625 155.8125 35.078125 156.046875 35.175781 156.320312 C 35.273438 156.597656 35.472656 156.738281 35.765625 156.742188 C 35.914062 156.738281 36.046875 156.691406 36.160156 156.597656 L 63.054688 134.390625 C 63.195312 134.28125 63.273438 134.136719 63.292969 133.960938 Z M 63.292969 133.960938 " fill-opacity="1" fill-rule="nonzero"/><path fill="#ee5f64" d="M 69.078125 63.125 C 69.191406 63.246094 69.332031 63.308594 69.496094 63.320312 C 69.660156 63.332031 69.808594 63.285156 69.9375 63.179688 C 70.0625 63.078125 70.140625 62.941406 70.164062 62.777344 C 70.1875 62.617188 70.152344 62.464844 70.058594 62.332031 L 47.667969 35.238281 C 47.566406 35.082031 47.421875 34.992188 47.234375 34.960938 C 47.050781 34.933594 46.886719 34.976562 46.738281 35.097656 C 46.59375 35.214844 46.519531 35.367188 46.507812 35.554688 C 46.5 35.742188 46.5625 35.902344 46.695312 36.035156 Z M 69.078125 63.125 " fill-opacity="1" fill-rule="nonzero"/><path fill="#ee5f64" d="M 53.410156 115.414062 C 53.257812 115.332031 53.097656 115.3125 52.929688 115.367188 L 19.503906 125.214844 C 19.355469 125.261719 19.238281 125.351562 19.15625 125.480469 C 19.074219 125.613281 19.042969 125.757812 19.066406 125.910156 C 19.085938 126.066406 19.15625 126.191406 19.273438 126.296875 C 19.390625 126.398438 19.527344 126.449219 19.683594 126.453125 C 19.746094 126.453125 19.804688 126.445312 19.863281 126.429688 L 53.289062 116.578125 C 53.5625 116.5 53.710938 116.320312 53.742188 116.039062 C 53.773438 115.757812 53.660156 115.546875 53.410156 115.414062 Z M 53.410156 115.414062 " fill-opacity="1" fill-rule="nonzero"/><path fill="#ee5f64" d="M 78.082031 19.238281 C 78.03125 19.074219 77.929688 18.949219 77.78125 18.863281 C 77.625 18.78125 77.464844 18.761719 77.296875 18.8125 C 77.128906 18.859375 77 18.964844 76.914062 19.121094 C 76.832031 19.277344 76.816406 19.4375 76.871094 19.609375 L 86.804688 53.316406 C 86.847656 53.449219 86.921875 53.558594 87.035156 53.644531 C 87.148438 53.726562 87.273438 53.769531 87.414062 53.769531 C 87.472656 53.769531 87.535156 53.761719 87.59375 53.746094 C 87.761719 53.695312 87.886719 53.59375 87.972656 53.4375 C 88.054688 53.28125 88.070312 53.121094 88.019531 52.949219 Z M 78.082031 19.238281 " fill-opacity="1" fill-rule="nonzero"/><path fill="#ee5f64" d="M 57.644531 76.925781 L 26.550781 59.992188 C 26.398438 59.910156 26.238281 59.890625 26.070312 59.941406 C 25.902344 59.988281 25.777344 60.089844 25.691406 60.242188 C 25.609375 60.398438 25.59375 60.558594 25.640625 60.726562 C 25.691406 60.894531 25.792969 61.019531 25.949219 61.101562 L 57.027344 78.035156 C 57.121094 78.085938 57.222656 78.113281 57.332031 78.113281 C 57.582031 78.113281 57.765625 78.003906 57.882812 77.785156 C 57.96875 77.628906 57.984375 77.46875 57.933594 77.300781 C 57.886719 77.136719 57.792969 77.011719 57.644531 76.925781 Z M 57.644531 76.925781 " fill-opacity="1" fill-rule="nonzero"/><path fill="#ee5f64" d="M 78.21875 145.730469 C 78.140625 145.460938 77.960938 145.3125 77.679688 145.285156 C 77.402344 145.253906 77.195312 145.363281 77.058594 145.609375 L 60.175781 176.609375 C 60.089844 176.761719 60.074219 176.921875 60.125 177.089844 C 60.164062 177.226562 60.242188 177.332031 60.351562 177.417969 C 60.464844 177.5 60.589844 177.542969 60.730469 177.542969 C 60.980469 177.542969 61.164062 177.433594 61.285156 177.214844 L 78.167969 146.214844 C 78.253906 146.058594 78.269531 145.898438 78.21875 145.730469 Z M 78.21875 145.730469 " fill-opacity="1" fill-rule="nonzero"/><g clip-path="url(#a96e1eabdf)"><path fill="#ee5f64" d="M 87.4375 149.246094 C 87.269531 149.191406 87.105469 149.207031 86.949219 149.292969 C 86.796875 149.375 86.691406 149.5 86.644531 149.671875 L 72.046875 198.375 C 71.996094 198.542969 72.011719 198.707031 72.09375 198.863281 C 72.175781 199.015625 72.304688 199.121094 72.472656 199.167969 C 72.53125 199.1875 72.589844 199.199219 72.652344 199.199219 C 72.964844 199.195312 73.167969 199.046875 73.261719 198.75 L 87.863281 150.039062 C 87.914062 149.871094 87.898438 149.710938 87.816406 149.554688 C 87.730469 149.398438 87.605469 149.296875 87.4375 149.246094 Z M 87.4375 149.246094 " fill-opacity="1" fill-rule="nonzero"/></g><path fill="#ee5f64" d="M 4.621094 73.199219 L 53.109375 87.738281 C 53.167969 87.753906 53.230469 87.761719 53.292969 87.761719 C 53.449219 87.761719 53.585938 87.710938 53.703125 87.609375 C 53.820312 87.507812 53.890625 87.378906 53.914062 87.222656 C 53.9375 87.070312 53.90625 86.925781 53.824219 86.792969 C 53.742188 86.664062 53.625 86.574219 53.476562 86.527344 L 4.984375 71.992188 C 4.816406 71.941406 4.65625 71.953125 4.5 72.035156 C 4.34375 72.121094 4.242188 72.246094 4.191406 72.414062 C 4.140625 72.582031 4.15625 72.746094 4.242188 72.898438 C 4.324219 73.054688 4.453125 73.152344 4.621094 73.199219 Z M 4.621094 73.199219 " fill-opacity="1" fill-rule="nonzero"/><path fill="#ee5f64" d="M 57.742188 125.859375 C 57.796875 125.691406 57.78125 125.53125 57.695312 125.378906 C 57.613281 125.226562 57.488281 125.125 57.320312 125.074219 C 57.15625 125.023438 56.996094 125.039062 56.839844 125.125 L 12.328125 149.09375 C 12.195312 149.164062 12.101562 149.261719 12.042969 149.398438 C 11.980469 149.53125 11.96875 149.667969 12.007812 149.808594 C 12.042969 149.953125 12.117188 150.066406 12.234375 150.15625 C 12.351562 150.246094 12.480469 150.289062 12.628906 150.285156 C 12.734375 150.285156 12.832031 150.261719 12.925781 150.210938 L 57.441406 126.238281 C 57.597656 126.152344 57.695312 126.027344 57.742188 125.859375 Z M 57.742188 125.859375 " fill-opacity="1" fill-rule="nonzero"/><path fill="#ee5f64" d="M 77.195312 57.496094 C 77.316406 57.71875 77.5 57.828125 77.75 57.828125 C 77.859375 57.828125 77.957031 57.804688 78.050781 57.75 C 78.203125 57.671875 78.304688 57.546875 78.355469 57.378906 C 78.40625 57.210938 78.390625 57.050781 78.308594 56.898438 L 54.285156 12.28125 C 54.203125 12.128906 54.078125 12.027344 53.910156 11.976562 C 53.742188 11.925781 53.582031 11.945312 53.425781 12.027344 C 53.273438 12.109375 53.171875 12.234375 53.121094 12.402344 C 53.074219 12.570312 53.089844 12.730469 53.171875 12.882812 Z M 77.195312 57.496094 " fill-opacity="1" fill-rule="nonzero"/><g clip-path="url(#25bf12dfae)"><path fill="#ee5f64" d="M 51.808594 106.617188 C 51.988281 106.402344 52.015625 106.167969 51.882812 105.921875 C 51.75 105.671875 51.546875 105.558594 51.265625 105.585938 L 0.894531 110.144531 C 0.722656 110.152344 0.574219 110.21875 0.457031 110.347656 C 0.339844 110.476562 0.285156 110.628906 0.292969 110.804688 C 0.300781 110.976562 0.367188 111.125 0.496094 111.242188 C 0.625 111.359375 0.777344 111.414062 0.953125 111.40625 L 1.007812 111.40625 L 51.378906 106.84375 C 51.554688 106.832031 51.699219 106.757812 51.808594 106.617188 Z M 51.808594 106.617188 " fill-opacity="1" fill-rule="nonzero"/></g><g clip-path="url(#e815ed5adb)"><path fill="#ee5f64" d="M 93.210938 0.835938 C 93.199219 0.664062 93.125 0.519531 92.988281 0.40625 C 92.855469 0.296875 92.703125 0.25 92.527344 0.265625 C 92.351562 0.273438 92.210938 0.347656 92.101562 0.488281 C 91.988281 0.621094 91.941406 0.773438 91.957031 0.949219 L 96.503906 51.113281 C 96.519531 51.277344 96.585938 51.414062 96.707031 51.523438 C 96.828125 51.636719 96.972656 51.691406 97.136719 51.691406 L 97.191406 51.691406 C 97.363281 51.675781 97.507812 51.601562 97.621094 51.46875 C 97.734375 51.332031 97.78125 51.179688 97.761719 51.003906 Z M 93.210938 0.835938 " fill-opacity="1" fill-rule="nonzero"/></g><path fill="#ee5f64" d="M 62.578125 69.84375 C 62.691406 69.9375 62.824219 69.984375 62.972656 69.988281 C 63.171875 69.988281 63.335938 69.914062 63.460938 69.757812 C 63.570312 69.625 63.617188 69.472656 63.601562 69.296875 C 63.585938 69.125 63.511719 68.980469 63.378906 68.867188 L 24.417969 36.371094 C 24.28125 36.289062 24.136719 36.257812 23.980469 36.285156 C 23.820312 36.308594 23.691406 36.382812 23.59375 36.507812 C 23.492188 36.628906 23.445312 36.773438 23.449219 36.929688 C 23.457031 37.089844 23.511719 37.226562 23.621094 37.34375 Z M 62.578125 69.84375 " fill-opacity="1" fill-rule="nonzero"/><path fill="#ee5f64" d="M 69.789062 139.925781 C 69.65625 139.816406 69.503906 139.765625 69.328125 139.78125 C 69.15625 139.796875 69.011719 139.871094 68.898438 140.003906 L 36.429688 178.957031 C 36.34375 179.089844 36.3125 179.234375 36.339844 179.394531 C 36.367188 179.550781 36.441406 179.679688 36.5625 179.78125 C 36.6875 179.882812 36.828125 179.929688 36.984375 179.921875 C 37.144531 179.917969 37.28125 179.859375 37.398438 179.75 L 69.871094 140.800781 C 69.976562 140.667969 70.019531 140.515625 70.003906 140.347656 C 69.988281 140.175781 69.917969 140.039062 69.789062 139.925781 Z M 69.789062 139.925781 " fill-opacity="1" fill-rule="nonzero"/></svg>