<svg width="55" height="55" viewBox="0 0 55 55" fill="none" xmlns="http://www.w3.org/2000/svg">
<circle cx="27.5" cy="27.5" r="27.5" fill="white"/>
<path d="M39 19H34V18C34 17.2044 33.6839 16.4413 33.1213 15.8787C32.5587 15.3161 31.7956 15 31 15H25C24.2044 15 23.4413 15.3161 22.8787 15.8787C22.3161 16.4413 22 17.2044 22 18V19H17C16.4696 19 15.9609 19.2107 15.5858 19.5858C15.2107 19.9609 15 20.4696 15 21V37C15 37.5304 15.2107 38.0391 15.5858 38.4142C15.9609 38.7893 16.4696 39 17 39H39C39.5304 39 40.0391 38.7893 40.4142 38.4142C40.7893 38.0391 41 37.5304 41 37V21C41 20.4696 40.7893 19.9609 40.4142 19.5858C40.0391 19.2107 39.5304 19 39 19ZM24 18C24 17.7348 24.1054 17.4804 24.2929 17.2929C24.4804 17.1054 24.7348 17 25 17H31C31.2652 17 31.5196 17.1054 31.7071 17.2929C31.8946 17.4804 32 17.7348 32 18V19H24V18ZM39 37H17V21H39V37ZM32 29C32 29.2652 31.8946 29.5196 31.7071 29.7071C31.5196 29.8946 31.2652 30 31 30H29V32C29 32.2652 28.8946 32.5196 28.7071 32.7071C28.5196 32.8946 28.2652 33 28 33C27.7348 33 27.4804 32.8946 27.2929 32.7071C27.1054 32.5196 27 32.2652 27 32V30H25C24.7348 30 24.4804 29.8946 24.2929 29.7071C24.1054 29.5196 24 29.2652 24 29C24 28.7348 24.1054 28.4804 24.2929 28.2929C24.4804 28.1054 24.7348 28 25 28H27V26C27 25.7348 27.1054 25.4804 27.2929 25.2929C27.4804 25.1054 27.7348 25 28 25C28.2652 25 28.5196 25.1054 28.7071 25.2929C28.8946 25.4804 29 25.7348 29 26V28H31C31.2652 28 31.5196 28.1054 31.7071 28.2929C31.8946 28.4804 32 28.7348 32 29Z" fill="#EE5F64"/>
</svg>
