<svg width="24" height="28" viewBox="0 0 24 28" fill="none" xmlns="http://www.w3.org/2000/svg">
<path d="M19.5857 19.7468L20.3159 20.2539C20.519 19.9619 20.7101 19.6481 20.8852 19.321L20.1017 18.9019C19.9426 19.1979 19.7688 19.4828 19.5857 19.7468Z" fill="#2D2D2D"/>
<path d="M15.5563 4.4444C14.7496 4.4444 13.9598 4.64839 13.2087 5.05017C12.3371 5.51728 11.7616 6.43906 11.6687 7.51728L12.554 7.59373C12.622 6.80484 13.0136 6.16306 13.6283 5.83417C14.2491 5.50173 14.8976 5.33328 15.5563 5.33328C18.6883 5.33328 21.334 9.20039 21.334 13.7777C21.334 15.2679 21.0474 16.7457 20.5051 18.0515L21.326 18.3928C21.9127 16.9795 22.2229 15.3835 22.2229 13.7777C22.2229 8.71862 19.17 4.4444 15.5563 4.4444Z" fill="#2D2D2D"/>
<path d="M15.5556 2.66667C14.4529 2.66667 13.3804 2.94133 12.3689 3.48311C10.9324 4.25244 10.0511 5.69689 9.90133 7.32978C8.11822 5.49867 7.11111 3.04089 7.11111 0.444444V0H4.44444V0.444444C4.44444 4.70978 6.56178 8.60978 10.1151 10.9396C10.0044 11.34 9.81244 11.7022 9.53422 11.9738L9.29022 12.212L9.45689 12.5093C9.66711 12.8827 9.77778 13.3218 9.77778 13.7778C9.77778 14.2338 9.66711 14.6729 9.45733 15.0462L9.29067 15.3436L9.53467 15.5818C9.97156 16.0089 10.2222 16.6467 10.2222 17.3333C10.2222 17.5956 10.1858 17.8516 10.1089 18.1129C9.86044 18.9622 9.06844 19.5556 8.18356 19.5556H7.55556C3.38933 19.5556 0 22.9449 0 27.1111V27.5556H3.47556L3.54711 27.1982C4.02044 24.8298 6.11733 23.1111 8.53244 23.1111H9.18356C10.2716 23.1111 11.2636 23.3796 12.0529 23.8871C12.1547 23.952 12.26 24.0142 12.3684 24.0724C13.3804 24.6142 14.4529 24.8889 15.5556 24.8889C20.212 24.8889 24 19.9044 24 13.7778C24 7.65111 20.212 2.66667 15.5556 2.66667ZM5.34178 0.888889H6.23156C6.35244 3.85822 7.68267 6.62667 9.92533 8.57155C9.96444 8.86667 10.0267 9.16444 10.1142 9.46133C10.1587 9.612 10.1844 9.76933 10.2018 9.92844C7.25956 7.824 5.47644 4.51689 5.34178 0.888889ZM15.5556 24C14.6009 24 13.6698 23.7609 12.788 23.2884C12.7004 23.2418 12.6151 23.1916 12.5338 23.1391C11.6009 22.5396 10.4427 22.2222 9.184 22.2222H8.53289C5.81867 22.2222 3.44622 24.0702 2.75867 26.6667H0.903556C1.13333 23.1969 4.02889 20.4444 7.55556 20.4444H8.18356C9.46089 20.4444 10.6031 19.5884 10.9667 18.3462C11.0627 18.0213 11.1111 17.6804 11.1111 17.3333C11.1111 16.528 10.8471 15.7644 10.3778 15.1893C10.5676 14.7542 10.6667 14.272 10.6667 13.7778C10.6667 13.2836 10.5676 12.8013 10.3778 12.3662C10.8471 11.7911 11.1111 11.0276 11.1111 10.2222C11.1111 9.87511 11.0627 9.53422 10.9667 9.20933C10.372 7.19244 11.1213 5.16 12.7884 4.26711C13.6698 3.79467 14.6009 3.55556 15.5556 3.55556C19.7218 3.55556 23.1111 8.14089 23.1111 13.7778C23.1111 19.4147 19.7218 24 15.5556 24Z" fill="#2D2D2D"/>
</svg>
