<svg width="24" height="24" viewBox="0 0 24 24" fill="none" xmlns="http://www.w3.org/2000/svg">
<g clip-path="url(#clip0_16_1445)">
<path fill-rule="evenodd" clip-rule="evenodd" d="M10.9887 14.3342C11.6064 14.485 12.229 14.5003 12.8506 14.3726L11.9204 16.5466L10.9887 14.3342ZM11.9036 19.1021L14.7533 13.9286C14.9112 14.0179 15.073 14.0928 15.2376 14.1552C14.329 15.5371 13.7708 17.1744 13.6872 18.8285V22.393C12.5616 22.703 11.4399 22.7189 10.3133 22.4006L10.3109 18.7776C10.1823 17.0803 9.69412 15.5722 8.76292 14.1547C8.89636 14.1043 9.02692 14.0453 9.15604 13.9776L11.9036 19.1021ZM15.0557 18.8458C15.1911 17.137 15.721 15.7426 16.7482 14.3813C17.9741 14.315 19.1837 13.6762 19.9388 12.7094C20.3991 12.1214 20.6895 11.4149 20.7164 10.6478C21.8818 10.1736 22.5634 8.78737 22.5346 7.57441C22.4919 5.80753 21.1772 4.78417 19.5586 4.43425C19.6162 2.88241 18.2559 1.65841 16.8384 1.31041C16.2759 1.17217 15.685 1.14865 15.1056 1.22353C13.4122 -0.408468 10.5869 -0.406068 8.89396 1.22545C8.31172 1.14961 7.7218 1.17217 7.16308 1.30801C5.74276 1.65553 4.38244 2.88241 4.44244 4.43425C2.82293 4.78417 1.50869 5.80801 1.46597 7.57441C1.43717 8.78737 2.11877 10.1736 3.2842 10.6478C3.31108 11.4144 3.60148 12.1214 4.0618 12.7094C4.81684 13.6762 6.02644 14.315 7.25284 14.3813C8.28004 15.7421 8.80996 17.137 8.94532 18.8458V23.3746C11.2882 24.2208 12.7095 24.1934 15.0562 23.3846V18.8458H15.0557ZM14.6208 2.67937C15.2756 2.57857 15.8328 2.46913 16.5116 2.63521C17.2983 2.82817 18.3264 3.58417 18.1848 4.50001L18.0212 5.54881L18.6836 5.66353C19.8106 5.85937 21.1373 6.19633 21.1714 7.60657C21.194 8.57089 20.7144 9.22561 19.8231 9.50353L19.3292 9.65761C19.3551 10.5278 19.4501 11.1192 18.864 11.8694C18.3365 12.5453 17.4663 12.9974 16.6076 13.0219C15.649 13.0488 15.1954 12.5942 14.5258 12.071C12.4306 13.3925 11.7864 13.5254 9.4738 12.072C8.80372 12.5947 8.35012 13.0488 7.39252 13.0219C6.5338 12.9974 5.66356 12.5448 5.13604 11.8694C4.54948 11.1192 4.64548 10.5278 4.67092 9.65761L4.177 9.50401C3.28564 9.22609 2.80613 8.57137 2.82869 7.60705C2.85701 6.43009 3.87988 5.91361 4.91332 5.73409L5.97844 5.54929L5.81524 4.50049C5.67364 3.58657 6.6898 2.82673 7.48324 2.63329C8.15716 2.46961 8.71588 2.57809 9.37684 2.68033L9.62452 2.42641C11.054 0.961452 13.01 1.02289 14.3741 2.42593L14.6208 2.67937Z" fill="#8F5F2F"/>
</g>
<defs>
<clipPath id="clip0_16_1445">
<rect width="24" height="24" fill="white"/>
</clipPath>
</defs>
</svg>
