<svg xmlns="http://www.w3.org/2000/svg" xmlns:xlink="http://www.w3.org/1999/xlink" width="150" zoomAndPan="magnify" viewBox="0 0 112.5 112.499997" height="150" preserveAspectRatio="xMidYMid meet" version="1.0"><defs><clipPath id="87b314c32c"><path d="M 0 0 L 112.003906 0 L 112.003906 112.003906 L 0 112.003906 Z M 0 0 " clip-rule="nonzero"/></clipPath></defs><g clip-path="url(#87b314c32c)"><path d="M 56 0 C 54.167969 0 52.335938 0.0898438 50.511719 0.269531 C 48.6875 0.449219 46.875 0.71875 45.074219 1.074219 C 43.277344 1.433594 41.5 1.878906 39.746094 2.410156 C 37.988281 2.945312 36.265625 3.5625 34.570312 4.261719 C 32.875 4.964844 31.21875 5.746094 29.601562 6.613281 C 27.984375 7.476562 26.414062 8.417969 24.886719 9.4375 C 23.363281 10.457031 21.890625 11.546875 20.472656 12.710938 C 19.054688 13.875 17.699219 15.105469 16.402344 16.402344 C 15.105469 17.699219 13.875 19.054688 12.710938 20.472656 C 11.546875 21.890625 10.457031 23.363281 9.4375 24.886719 C 8.417969 26.414062 7.476562 27.984375 6.613281 29.601562 C 5.746094 31.21875 4.964844 32.875 4.261719 34.570312 C 3.5625 36.265625 2.945312 37.988281 2.410156 39.746094 C 1.878906 41.5 1.433594 43.277344 1.074219 45.074219 C 0.71875 46.875 0.449219 48.6875 0.269531 50.511719 C 0.0898438 52.335938 0 54.167969 0 56 C 0 57.835938 0.0898438 59.664062 0.269531 61.488281 C 0.449219 63.316406 0.71875 65.128906 1.074219 66.925781 C 1.433594 68.726562 1.878906 70.503906 2.410156 72.257812 C 2.945312 74.011719 3.5625 75.738281 4.261719 77.433594 C 4.964844 79.125 5.746094 80.78125 6.613281 82.398438 C 7.476562 84.015625 8.417969 85.589844 9.4375 87.113281 C 10.457031 88.636719 11.546875 90.109375 12.710938 91.527344 C 13.875 92.945312 15.105469 94.304688 16.402344 95.601562 C 17.699219 96.898438 19.054688 98.128906 20.472656 99.289062 C 21.890625 100.453125 23.363281 101.546875 24.886719 102.5625 C 26.414062 103.582031 27.984375 104.523438 29.601562 105.390625 C 31.21875 106.253906 32.875 107.039062 34.570312 107.738281 C 36.265625 108.441406 37.988281 109.058594 39.746094 109.589844 C 41.5 110.125 43.277344 110.566406 45.074219 110.925781 C 46.875 111.285156 48.6875 111.554688 50.511719 111.734375 C 52.335938 111.914062 54.167969 112.003906 56 112.003906 C 57.835938 112.003906 59.664062 111.914062 61.488281 111.734375 C 63.316406 111.554688 65.128906 111.285156 66.925781 110.925781 C 68.726562 110.566406 70.503906 110.125 72.257812 109.589844 C 74.011719 109.058594 75.738281 108.441406 77.433594 107.738281 C 79.125 107.039062 80.78125 106.253906 82.398438 105.390625 C 84.015625 104.523438 85.589844 103.582031 87.113281 102.5625 C 88.636719 101.546875 90.109375 100.453125 91.527344 99.289062 C 92.945312 98.128906 94.304688 96.898438 95.601562 95.601562 C 96.898438 94.304688 98.128906 92.945312 99.289062 91.527344 C 100.453125 90.109375 101.546875 88.636719 102.5625 87.113281 C 103.582031 85.589844 104.523438 84.015625 105.390625 82.398438 C 106.253906 80.78125 107.039062 79.125 107.738281 77.433594 C 108.441406 75.738281 109.058594 74.011719 109.589844 72.257812 C 110.125 70.503906 110.566406 68.726562 110.925781 66.925781 C 111.285156 65.128906 111.554688 63.316406 111.734375 61.488281 C 111.914062 59.664062 112.003906 57.835938 112.003906 56 C 112 54.167969 111.910156 52.339844 111.726562 50.515625 C 111.546875 48.6875 111.277344 46.878906 110.917969 45.078125 C 110.558594 43.28125 110.113281 41.503906 109.578125 39.75 C 109.046875 37.996094 108.425781 36.273438 107.726562 34.578125 C 107.023438 32.886719 106.238281 31.230469 105.375 29.613281 C 104.507812 27.996094 103.566406 26.425781 102.546875 24.902344 C 101.527344 23.375 100.4375 21.90625 99.273438 20.488281 C 98.109375 19.070312 96.878906 17.714844 95.585938 16.417969 C 94.289062 15.121094 92.929688 13.890625 91.511719 12.726562 C 90.097656 11.566406 88.625 10.472656 87.101562 9.453125 C 85.578125 8.433594 84.007812 7.492188 82.390625 6.628906 C 80.773438 5.761719 79.117188 4.980469 77.421875 4.277344 C 75.730469 3.574219 74.003906 2.957031 72.25 2.421875 C 70.496094 1.890625 68.722656 1.445312 66.921875 1.085938 C 65.125 0.726562 63.3125 0.457031 61.488281 0.273438 C 59.664062 0.09375 57.835938 0 56 0 Z M 83.894531 58.347656 L 41.226562 80.800781 C 40.835938 80.972656 40.429688 81.0625 40 81.066406 C 39.503906 81.078125 39.039062 80.953125 38.613281 80.695312 C 38.214844 80.453125 37.898438 80.125 37.671875 79.714844 C 37.445312 79.308594 37.332031 78.871094 37.335938 78.402344 L 37.335938 33.601562 C 37.332031 33.132812 37.445312 32.695312 37.671875 32.285156 C 37.898438 31.875 38.214844 31.550781 38.613281 31.308594 C 39.019531 31.078125 39.457031 30.964844 39.921875 30.964844 C 40.386719 30.964844 40.820312 31.078125 41.226562 31.308594 L 83.894531 53.761719 C 84.34375 53.980469 84.699219 54.300781 84.960938 54.726562 C 85.226562 55.148438 85.359375 55.609375 85.359375 56.109375 C 85.359375 56.605469 85.226562 57.066406 84.960938 57.492188 C 84.699219 57.914062 84.34375 58.234375 83.894531 58.453125 Z M 83.894531 58.347656 "/></g></svg>