<svg width="25" height="25" viewBox="0 0 25 25" fill="none" xmlns="http://www.w3.org/2000/svg">
<path d="M21.8103 7.37843L17.6216 3.18874C17.4823 3.04942 17.3169 2.9389 17.1349 2.8635C16.9529 2.78809 16.7578 2.74928 16.5608 2.74928C16.3638 2.74928 16.1687 2.78809 15.9867 2.8635C15.8047 2.9389 15.6393 3.04942 15.5 3.18874L3.93969 14.75C3.7998 14.8888 3.68889 15.054 3.61341 15.236C3.53792 15.418 3.49938 15.6132 3.50001 15.8103V20C3.50001 20.3978 3.65804 20.7793 3.93935 21.0607C4.22065 21.342 4.60218 21.5 5.00001 21.5H9.1897C9.38675 21.5006 9.58197 21.4621 9.76399 21.3866C9.94602 21.3111 10.1112 21.2002 10.25 21.0603L21.8103 9.49999C21.9496 9.3607 22.0602 9.19533 22.1356 9.01332C22.211 8.83131 22.2498 8.63622 22.2498 8.43921C22.2498 8.2422 22.211 8.04712 22.1356 7.86511C22.0602 7.6831 21.9496 7.51772 21.8103 7.37843ZM18.5 10.6887L14.3103 6.49999L16.5603 4.24999L20.75 8.43874L18.5 10.6887Z" fill="#EE5F64"/>
</svg>
