<svg width="25" height="25" viewBox="0 0 25 25" fill="none" xmlns="http://www.w3.org/2000/svg">
<path d="M15.9163 10.3756L11.4163 7.37562C11.3033 7.30025 11.1719 7.25696 11.0363 7.25039C10.9006 7.24382 10.7657 7.27421 10.646 7.33831C10.5263 7.40241 10.4262 7.49782 10.3564 7.61436C10.2867 7.7309 10.2499 7.86419 10.25 8V14C10.2499 14.1358 10.2867 14.2691 10.3564 14.3856C10.4262 14.5022 10.5263 14.5976 10.646 14.6617C10.7657 14.7258 10.9006 14.7562 11.0363 14.7496C11.1719 14.743 11.3033 14.6998 11.4163 14.6244L15.9163 11.6244C16.0191 11.5559 16.1035 11.4631 16.1618 11.3542C16.2202 11.2452 16.2507 11.1236 16.2507 11C16.2507 10.8764 16.2202 10.7548 16.1618 10.6458C16.1035 10.5369 16.0191 10.4441 15.9163 10.3756ZM11.75 12.5984V9.40625L14.1481 11L11.75 12.5984ZM20.75 4.25H4.25C3.85218 4.25 3.47064 4.40804 3.18934 4.68934C2.90804 4.97064 2.75 5.35218 2.75 5.75V16.25C2.75 16.6478 2.90804 17.0294 3.18934 17.3107C3.47064 17.592 3.85218 17.75 4.25 17.75H20.75C21.1478 17.75 21.5294 17.592 21.8107 17.3107C22.092 17.0294 22.25 16.6478 22.25 16.25V5.75C22.25 5.35218 22.092 4.97064 21.8107 4.68934C21.5294 4.40804 21.1478 4.25 20.75 4.25ZM20.75 16.25H4.25V5.75H20.75V16.25ZM22.25 20C22.25 20.1989 22.171 20.3897 22.0303 20.5303C21.8897 20.671 21.6989 20.75 21.5 20.75H3.5C3.30109 20.75 3.11032 20.671 2.96967 20.5303C2.82902 20.3897 2.75 20.1989 2.75 20C2.75 19.8011 2.82902 19.6103 2.96967 19.4697C3.11032 19.329 3.30109 19.25 3.5 19.25H21.5C21.6989 19.25 21.8897 19.329 22.0303 19.4697C22.171 19.6103 22.25 19.8011 22.25 20Z" fill="#636363"/>
</svg>
