<svg xmlns="http://www.w3.org/2000/svg" xmlns:xlink="http://www.w3.org/1999/xlink" width="50" zoomAndPan="magnify" viewBox="0 0 37.5 37.499999" height="50" preserveAspectRatio="xMidYMid meet" version="1.0"><path d="M 18.171875 0.496094 C 16.636719 0.492188 15.128906 0.691406 13.644531 1.089844 C 12.164062 1.492188 10.757812 2.078125 9.433594 2.851562 C 8.105469 3.621094 6.902344 4.554688 5.824219 5.648438 C 4.746094 6.742188 3.828125 7.953125 3.070312 9.292969 C 2.316406 10.628906 1.746094 12.039062 1.367188 13.527344 C 0.984375 15.015625 0.804688 16.527344 0.828125 18.0625 C 0.847656 19.597656 1.070312 21.101562 1.492188 22.578125 C 1.914062 24.054688 2.519531 25.449219 3.3125 26.765625 L 0.867188 34.101562 C 0.824219 34.226562 0.816406 34.355469 0.835938 34.488281 C 0.855469 34.617188 0.902344 34.738281 0.980469 34.847656 C 1.058594 34.953125 1.15625 35.039062 1.277344 35.097656 C 1.394531 35.160156 1.519531 35.1875 1.652344 35.1875 C 1.742188 35.1875 1.828125 35.175781 1.914062 35.148438 L 9.25 32.703125 C 9.820312 33.042969 10.410156 33.351562 11.015625 33.628906 C 11.621094 33.902344 12.242188 34.144531 12.875 34.347656 C 13.511719 34.550781 14.152344 34.71875 14.808594 34.847656 C 15.460938 34.976562 16.121094 35.066406 16.78125 35.121094 C 17.445312 35.175781 18.113281 35.191406 18.777344 35.167969 C 19.441406 35.144531 20.105469 35.082031 20.761719 34.984375 C 21.421875 34.882812 22.074219 34.746094 22.714844 34.574219 C 23.359375 34.398438 23.988281 34.1875 24.609375 33.941406 C 25.226562 33.695312 25.828125 33.414062 26.414062 33.097656 C 27 32.78125 27.566406 32.433594 28.113281 32.050781 C 28.660156 31.667969 29.179688 31.257812 29.679688 30.816406 C 30.175781 30.375 30.648438 29.90625 31.09375 29.410156 C 31.539062 28.914062 31.953125 28.394531 32.335938 27.847656 C 32.722656 27.304688 33.074219 26.742188 33.394531 26.15625 C 33.710938 25.574219 33.996094 24.972656 34.246094 24.355469 C 34.5 23.738281 34.710938 23.109375 34.890625 22.464844 C 35.066406 21.824219 35.207031 21.175781 35.3125 20.515625 C 35.414062 19.859375 35.480469 19.199219 35.503906 18.53125 C 35.53125 17.867188 35.519531 17.203125 35.472656 16.539062 C 35.421875 15.875 35.332031 15.214844 35.207031 14.558594 C 35.082031 13.90625 34.917969 13.261719 34.71875 12.625 C 34.519531 11.992188 34.28125 11.371094 34.011719 10.761719 C 33.738281 10.152344 33.433594 9.5625 33.09375 8.992188 C 32.753906 8.417969 32.382812 7.867188 31.980469 7.335938 C 31.574219 6.804688 31.144531 6.300781 30.683594 5.820312 C 30.21875 5.339844 29.734375 4.886719 29.21875 4.464844 C 28.707031 4.039062 28.167969 3.648438 27.609375 3.285156 C 27.050781 2.921875 26.472656 2.59375 25.878906 2.296875 C 25.28125 2.003906 24.667969 1.742188 24.042969 1.515625 C 23.414062 1.292969 22.777344 1.101562 22.128906 0.953125 C 21.480469 0.800781 20.824219 0.6875 20.164062 0.609375 C 19.503906 0.535156 18.839844 0.496094 18.171875 0.496094 Z M 18.171875 33.539062 C 15.144531 33.535156 12.351562 32.722656 9.796875 31.097656 C 9.660156 31.011719 9.515625 30.96875 9.355469 30.96875 C 9.265625 30.96875 9.175781 30.984375 9.09375 31.011719 L 2.957031 33.058594 L 5.003906 26.921875 C 5.085938 26.675781 5.054688 26.441406 4.917969 26.21875 C 4.609375 25.734375 4.332031 25.230469 4.078125 24.714844 C 3.828125 24.195312 3.605469 23.667969 3.414062 23.125 C 3.21875 22.582031 3.054688 22.03125 2.921875 21.472656 C 2.789062 20.914062 2.6875 20.347656 2.617188 19.777344 C 2.546875 19.207031 2.507812 18.632812 2.5 18.058594 C 2.492188 17.484375 2.519531 16.910156 2.574219 16.335938 C 2.628906 15.765625 2.714844 15.195312 2.835938 14.632812 C 2.953125 14.070312 3.101562 13.515625 3.28125 12.96875 C 3.460938 12.421875 3.667969 11.886719 3.90625 11.363281 C 4.144531 10.839844 4.410156 10.332031 4.703125 9.835938 C 4.996094 9.34375 5.316406 8.867188 5.664062 8.40625 C 6.011719 7.949219 6.382812 7.507812 6.777344 7.089844 C 7.171875 6.671875 7.585938 6.277344 8.027344 5.902344 C 8.464844 5.53125 8.921875 5.183594 9.398438 4.863281 C 9.875 4.539062 10.367188 4.246094 10.875 3.976562 C 11.382812 3.707031 11.90625 3.46875 12.441406 3.257812 C 12.976562 3.046875 13.523438 2.867188 14.078125 2.71875 C 14.632812 2.566406 15.195312 2.445312 15.761719 2.359375 C 16.332031 2.269531 16.902344 2.210938 17.476562 2.1875 C 18.050781 2.160156 18.625 2.164062 19.199219 2.203125 C 19.773438 2.238281 20.34375 2.308594 20.910156 2.410156 C 21.476562 2.507812 22.035156 2.640625 22.585938 2.800781 C 23.140625 2.960938 23.679688 3.152344 24.210938 3.375 C 24.742188 3.597656 25.261719 3.84375 25.765625 4.125 C 26.269531 4.402344 26.753906 4.707031 27.222656 5.039062 C 27.695312 5.371094 28.144531 5.726562 28.574219 6.105469 C 29.007812 6.488281 29.414062 6.890625 29.800781 7.316406 C 30.1875 7.742188 30.550781 8.1875 30.886719 8.65625 C 31.222656 9.121094 31.535156 9.605469 31.820312 10.105469 C 32.105469 10.605469 32.359375 11.117188 32.585938 11.648438 C 32.816406 12.175781 33.011719 12.714844 33.179688 13.265625 C 33.347656 13.8125 33.488281 14.371094 33.59375 14.9375 C 33.699219 15.5 33.777344 16.070312 33.820312 16.644531 C 33.867188 17.21875 33.878906 17.792969 33.859375 18.367188 C 33.839844 18.941406 33.789062 19.515625 33.707031 20.082031 C 33.625 20.652344 33.515625 21.214844 33.371094 21.773438 C 33.226562 22.328125 33.050781 22.878906 32.847656 23.414062 C 32.644531 23.953125 32.410156 24.476562 32.148438 24.988281 C 31.886719 25.503906 31.597656 26 31.28125 26.480469 C 30.964844 26.960938 30.625 27.421875 30.257812 27.863281 C 29.890625 28.304688 29.5 28.726562 29.085938 29.128906 C 28.671875 29.527344 28.238281 29.902344 27.785156 30.253906 C 27.328125 30.609375 26.855469 30.933594 26.367188 31.234375 C 25.875 31.535156 25.371094 31.804688 24.847656 32.050781 C 24.328125 32.292969 23.796875 32.511719 23.25 32.695312 C 22.707031 32.882812 22.15625 33.039062 21.59375 33.164062 C 21.03125 33.289062 20.464844 33.382812 19.894531 33.445312 C 19.320312 33.507812 18.75 33.539062 18.171875 33.539062 Z M 11.566406 17.84375 C 11.566406 18.0625 11.523438 18.273438 11.4375 18.476562 C 11.355469 18.675781 11.234375 18.855469 11.082031 19.011719 C 10.925781 19.164062 10.746094 19.285156 10.542969 19.367188 C 10.34375 19.453125 10.132812 19.496094 9.914062 19.496094 C 9.695312 19.496094 9.484375 19.453125 9.28125 19.367188 C 9.078125 19.285156 8.898438 19.164062 8.746094 19.011719 C 8.589844 18.855469 8.46875 18.675781 8.386719 18.476562 C 8.300781 18.273438 8.261719 18.0625 8.261719 17.84375 C 8.261719 17.625 8.300781 17.414062 8.386719 17.210938 C 8.46875 17.007812 8.589844 16.828125 8.746094 16.675781 C 8.898438 16.519531 9.078125 16.398438 9.28125 16.316406 C 9.484375 16.230469 9.695312 16.191406 9.914062 16.191406 C 10.132812 16.191406 10.34375 16.230469 10.542969 16.316406 C 10.746094 16.398438 10.925781 16.519531 11.082031 16.675781 C 11.234375 16.828125 11.355469 17.007812 11.4375 17.210938 C 11.523438 17.414062 11.566406 17.625 11.566406 17.84375 Z M 19.824219 17.84375 C 19.824219 18.0625 19.78125 18.273438 19.699219 18.476562 C 19.617188 18.675781 19.496094 18.855469 19.339844 19.011719 C 19.1875 19.164062 19.007812 19.285156 18.804688 19.367188 C 18.601562 19.453125 18.390625 19.496094 18.171875 19.496094 C 17.953125 19.496094 17.742188 19.453125 17.539062 19.367188 C 17.339844 19.285156 17.160156 19.164062 17.003906 19.011719 C 16.851562 18.855469 16.730469 18.675781 16.648438 18.476562 C 16.5625 18.273438 16.519531 18.0625 16.519531 17.84375 C 16.519531 17.625 16.5625 17.414062 16.648438 17.210938 C 16.730469 17.007812 16.851562 16.828125 17.003906 16.675781 C 17.160156 16.519531 17.339844 16.398438 17.539062 16.316406 C 17.742188 16.230469 17.953125 16.191406 18.171875 16.191406 C 18.390625 16.191406 18.601562 16.230469 18.804688 16.316406 C 19.007812 16.398438 19.1875 16.519531 19.339844 16.675781 C 19.496094 16.828125 19.617188 17.007812 19.699219 17.210938 C 19.78125 17.414062 19.824219 17.625 19.824219 17.84375 Z M 28.085938 17.84375 C 28.085938 18.0625 28.042969 18.273438 27.960938 18.476562 C 27.875 18.675781 27.757812 18.855469 27.601562 19.011719 C 27.445312 19.164062 27.269531 19.285156 27.066406 19.367188 C 26.863281 19.453125 26.652344 19.496094 26.433594 19.496094 C 26.214844 19.496094 26.003906 19.453125 25.800781 19.367188 C 25.597656 19.285156 25.421875 19.164062 25.265625 19.011719 C 25.109375 18.855469 24.992188 18.675781 24.90625 18.476562 C 24.824219 18.273438 24.78125 18.0625 24.78125 17.84375 C 24.78125 17.625 24.824219 17.414062 24.90625 17.210938 C 24.992188 17.007812 25.109375 16.828125 25.265625 16.675781 C 25.421875 16.519531 25.597656 16.398438 25.800781 16.316406 C 26.003906 16.230469 26.214844 16.191406 26.433594 16.191406 C 26.652344 16.191406 26.863281 16.230469 27.066406 16.316406 C 27.269531 16.398438 27.445312 16.519531 27.601562 16.675781 C 27.757812 16.828125 27.875 17.007812 27.960938 17.210938 C 28.042969 17.414062 28.085938 17.625 28.085938 17.84375 Z M 28.085938 17.84375 " fill-opacity="1" fill-rule="nonzero"/></svg>