<svg width="25" height="25" viewBox="0 0 25 25" fill="none" xmlns="http://www.w3.org/2000/svg">
<path d="M22.25 20C22.25 20.1989 22.171 20.3897 22.0303 20.5303C21.8897 20.671 21.6989 20.75 21.5 20.75H3.5C3.30109 20.75 3.11032 20.671 2.96967 20.5303C2.82902 20.3897 2.75 20.1989 2.75 20C2.75 19.8011 2.82902 19.6103 2.96967 19.4697C3.11032 19.329 3.30109 19.25 3.5 19.25H21.5C21.6989 19.25 21.8897 19.329 22.0303 19.4697C22.171 19.6103 22.25 19.8011 22.25 20ZM22.25 5.75V16.25C22.25 16.6478 22.092 17.0294 21.8107 17.3107C21.5294 17.592 21.1478 17.75 20.75 17.75H4.25C3.85218 17.75 3.47064 17.592 3.18934 17.3107C2.90804 17.0294 2.75 16.6478 2.75 16.25V5.75C2.75 5.35218 2.90804 4.97064 3.18934 4.68934C3.47064 4.40804 3.85218 4.25 4.25 4.25H20.75C21.1478 4.25 21.5294 4.40804 21.8107 4.68934C22.092 4.97064 22.25 5.35218 22.25 5.75ZM15.875 11C15.875 10.8738 15.8431 10.7496 15.7823 10.639C15.7215 10.5284 15.6337 10.4349 15.5272 10.3672L11.4022 7.74219C11.2888 7.67015 11.1582 7.62989 11.0239 7.62561C10.8896 7.62133 10.7567 7.65319 10.639 7.71786C10.5212 7.78252 10.423 7.87762 10.3546 7.99322C10.2862 8.10882 10.25 8.24067 10.25 8.375V13.625C10.25 13.7593 10.2862 13.8912 10.3546 14.0068C10.423 14.1224 10.5212 14.2175 10.639 14.2821C10.7567 14.3468 10.8896 14.3787 11.0239 14.3744C11.1582 14.3701 11.2888 14.3298 11.4022 14.2578L15.5272 11.6328C15.6337 11.5651 15.7215 11.4716 15.7823 11.361C15.8431 11.2504 15.875 11.1262 15.875 11Z" fill="#EE5F64"/>
</svg>
