<svg width="24" height="25" viewBox="0 0 24 25" fill="none" xmlns="http://www.w3.org/2000/svg">
<path d="M6.01126 14.3563C6.0138 14.4071 6.00599 14.4579 5.98828 14.5055C5.97058 14.5532 5.94336 14.5968 5.90828 14.6336C5.8732 14.6705 5.831 14.6998 5.78423 14.7198C5.73747 14.7398 5.68712 14.7501 5.63626 14.75H1.50001C1.33073 14.7503 1.16634 14.6933 1.03358 14.5882C0.900815 14.4832 0.807483 14.3364 0.76876 14.1716C0.744649 14.0588 0.74576 13.9421 0.772015 13.8297C0.79827 13.7174 0.84902 13.6123 0.920635 13.5219C1.58233 12.6444 2.46028 11.9535 3.46876 11.5166C3.026 11.1129 2.68642 10.609 2.47846 10.0471C2.27049 9.48517 2.2002 8.88161 2.27346 8.28694C2.34672 7.69228 2.56141 7.12382 2.89955 6.62919C3.23768 6.13456 3.68941 5.72815 4.21691 5.444C4.74441 5.15986 5.33232 5.00624 5.93139 4.99603C6.53047 4.98581 7.12327 5.1193 7.66015 5.3853C8.19703 5.6513 8.66235 6.04207 9.01715 6.52489C9.37195 7.00771 9.60589 7.56851 9.69938 8.16033C9.71146 8.23992 9.6972 8.32127 9.65879 8.39201C9.62037 8.46275 9.5599 8.519 9.48657 8.55221C8.44631 9.03312 7.56532 9.80156 6.94755 10.7668C6.32977 11.7321 6.00099 12.854 6.00001 14C6.00001 14.12 6.00001 14.2381 6.01126 14.3563ZM23.0738 13.521C22.4136 12.6445 21.5376 11.9539 20.5313 11.5166C20.974 11.1129 21.3136 10.609 21.5216 10.0471C21.7295 9.48517 21.7998 8.88161 21.7266 8.28694C21.6533 7.69228 21.4386 7.12382 21.1005 6.62919C20.7623 6.13456 20.3106 5.72815 19.7831 5.444C19.2556 5.15986 18.6677 5.00624 18.0686 4.99603C17.4696 4.98581 16.8768 5.1193 16.3399 5.3853C15.803 5.6513 15.3377 6.04207 14.9829 6.52489C14.6281 7.00771 14.3941 7.56851 14.3006 8.16033C14.2886 8.23992 14.3028 8.32127 14.3412 8.39201C14.3796 8.46275 14.4401 8.519 14.5134 8.55221C15.5537 9.03312 16.4347 9.80156 17.0525 10.7668C17.6702 11.7321 17.999 12.854 18 14C18 14.12 18 14.2381 17.9888 14.3563C17.9862 14.4071 17.994 14.4579 18.0117 14.5055C18.0294 14.5532 18.0567 14.5968 18.0917 14.6336C18.1268 14.6705 18.169 14.6998 18.2158 14.7198C18.2625 14.7398 18.3129 14.7501 18.3638 14.75H22.5C22.6693 14.7503 22.8337 14.6933 22.9664 14.5882C23.0992 14.4832 23.1925 14.3364 23.2313 14.1716C23.2555 14.0586 23.2544 13.9416 23.228 13.8291C23.2015 13.7166 23.1505 13.6113 23.0784 13.521H23.0738ZM14.73 17.5691C15.4768 16.9972 16.0256 16.2056 16.2992 15.3057C16.5729 14.4058 16.5577 13.4428 16.2558 12.5519C15.9538 11.6611 15.3804 10.8873 14.6159 10.3392C13.8515 9.79118 12.9345 9.49644 11.9939 9.49644C11.0533 9.49644 10.1364 9.79118 9.37191 10.3392C8.60747 10.8873 8.03399 11.6611 7.73206 12.5519C7.43012 13.4428 7.41493 14.4058 7.6886 15.3057C7.96227 16.2056 8.51106 16.9972 9.25782 17.5691C7.9327 18.1432 6.8262 19.1265 6.10032 20.375C6.03449 20.489 5.99983 20.6184 5.99984 20.7501C5.99985 20.8817 6.03452 21.0111 6.10036 21.1251C6.16621 21.2391 6.26091 21.3338 6.37495 21.3996C6.48899 21.4654 6.61834 21.5001 6.75001 21.5H17.25C17.3817 21.5001 17.511 21.4654 17.6251 21.3996C17.7391 21.3338 17.8338 21.2391 17.8997 21.1251C17.9655 21.0111 18.0002 20.8817 18.0002 20.7501C18.0002 20.6184 17.9655 20.489 17.8997 20.375C17.1723 19.1257 16.0637 18.1423 14.7366 17.5691H14.73Z" fill="#EE5F64"/>
</svg>
