<svg width="24" height="25" viewBox="0 0 24 25" fill="none" xmlns="http://www.w3.org/2000/svg">
<path d="M22.95 14.6C22.8712 14.6591 22.7816 14.7021 22.6862 14.7265C22.5908 14.751 22.4915 14.7564 22.394 14.7425C22.2965 14.7285 22.2027 14.6955 22.1179 14.6454C22.0332 14.5952 21.9591 14.5288 21.9 14.45C21.448 13.8424 20.8596 13.3494 20.1822 13.0107C19.5048 12.672 18.7574 12.4971 18 12.5C17.8526 12.5 17.7083 12.4565 17.5855 12.3749C17.4626 12.2934 17.3664 12.1774 17.3091 12.0416C17.2702 11.9493 17.2501 11.8502 17.2501 11.75C17.2501 11.6498 17.2702 11.5507 17.3091 11.4584C17.3664 11.3226 17.4626 11.2066 17.5855 11.125C17.7083 11.0435 17.8526 11 18 11C18.4209 11 18.8332 10.8819 19.1903 10.6593C19.5474 10.4366 19.8349 10.1183 20.0201 9.74041C20.2054 9.36256 20.2809 8.94033 20.2382 8.52168C20.1955 8.10304 20.0363 7.70476 19.7786 7.37208C19.5209 7.03941 19.175 6.78568 18.7803 6.6397C18.3856 6.49373 17.9579 6.46137 17.5458 6.5463C17.1336 6.63122 16.7535 6.83003 16.4487 7.12015C16.1439 7.41026 15.9265 7.78004 15.8213 8.1875C15.7967 8.28291 15.7535 8.37254 15.6942 8.45127C15.635 8.53 15.5608 8.59628 15.4759 8.64634C15.391 8.6964 15.2971 8.72924 15.1995 8.74301C15.102 8.75677 15.0026 8.75118 14.9072 8.72656C14.8118 8.70194 14.7222 8.65876 14.6435 8.5995C14.5647 8.54024 14.4984 8.46605 14.4484 8.38117C14.3983 8.2963 14.3655 8.20239 14.3517 8.10481C14.338 8.00724 14.3435 7.90791 14.3682 7.8125C14.5142 7.24748 14.7901 6.72434 15.1738 6.2847C15.5576 5.84507 16.0387 5.50107 16.5788 5.28008C17.119 5.05909 17.7032 4.96721 18.2851 5.01175C18.867 5.05629 19.4304 5.23602 19.9306 5.53664C20.4308 5.83725 20.8539 6.25047 21.1663 6.74339C21.4787 7.23632 21.6718 7.79535 21.7301 8.37601C21.7884 8.95667 21.7104 9.54293 21.5023 10.0881C21.2942 10.6333 20.9617 11.1225 20.5313 11.5166C21.5511 11.9581 22.4377 12.6588 23.1029 13.5491C23.1619 13.6281 23.2049 13.7179 23.2292 13.8135C23.2535 13.9091 23.2587 14.0086 23.2445 14.1062C23.2303 14.2039 23.197 14.2977 23.1465 14.3824C23.0959 14.4672 23.0292 14.5411 22.95 14.6ZM17.8988 20.375C17.9531 20.4604 17.9895 20.5558 18.0059 20.6556C18.0223 20.7554 18.0184 20.8575 17.9943 20.9558C17.9703 21.054 17.9266 21.1464 17.8659 21.2273C17.8052 21.3082 17.7288 21.3761 17.6412 21.4267C17.5536 21.4773 17.4567 21.5097 17.3563 21.5219C17.2559 21.5341 17.154 21.5258 17.0569 21.4977C16.9597 21.4695 16.8693 21.4219 16.791 21.3579C16.7127 21.2938 16.6482 21.2146 16.6013 21.125C16.1288 20.325 15.456 19.662 14.6491 19.2014C13.8422 18.7409 12.9291 18.4986 12 18.4986C11.0709 18.4986 10.1579 18.7409 9.35102 19.2014C8.54412 19.662 7.87125 20.325 7.39879 21.125C7.3519 21.2146 7.28737 21.2938 7.20908 21.3579C7.13078 21.4219 7.04034 21.4695 6.94319 21.4977C6.84605 21.5258 6.7442 21.5341 6.64379 21.5219C6.54338 21.5097 6.44647 21.4773 6.35889 21.4267C6.27132 21.3761 6.19489 21.3082 6.1342 21.2273C6.07352 21.1464 6.02983 21.054 6.00576 20.9558C5.9817 20.8575 5.97775 20.7554 5.99417 20.6556C6.01059 20.5558 6.04702 20.4604 6.10129 20.375C6.82841 19.1257 7.9371 18.1425 9.26441 17.57C8.51753 16.9982 7.96863 16.2066 7.69485 15.3067C7.42108 14.4068 7.4362 13.4437 7.73808 12.5528C8.03997 11.6619 8.61346 10.888 9.37792 10.3399C10.1424 9.79177 11.0594 9.49699 12 9.49699C12.9407 9.49699 13.8577 9.79177 14.6222 10.3399C15.3866 10.888 15.9601 11.6619 16.262 12.5528C16.5639 13.4437 16.579 14.4068 16.3052 15.3067C16.0315 16.2066 15.4825 16.9982 14.7357 17.57C16.063 18.1425 17.1717 19.1257 17.8988 20.375ZM12 17C12.5934 17 13.1734 16.8241 13.6667 16.4944C14.1601 16.1648 14.5446 15.6962 14.7717 15.148C14.9987 14.5999 15.0582 13.9967 14.9424 13.4147C14.8266 12.8328 14.5409 12.2982 14.1214 11.8787C13.7018 11.4591 13.1673 11.1734 12.5853 11.0576C12.0034 10.9419 11.4002 11.0013 10.852 11.2284C10.3038 11.4554 9.83528 11.8399 9.50563 12.3333C9.17599 12.8266 9.00004 13.4067 9.00004 14C9.00004 14.7956 9.31611 15.5587 9.87872 16.1213C10.4413 16.6839 11.2044 17 12 17ZM6.75004 11.75C6.75004 11.5511 6.67102 11.3603 6.53037 11.2197C6.38972 11.079 6.19895 11 6.00004 11C5.57922 11 5.16685 10.8819 4.80976 10.6593C4.45267 10.4366 4.16518 10.1183 3.97994 9.74041C3.79471 9.36256 3.71915 8.94033 3.76185 8.52168C3.80455 8.10304 3.9638 7.70476 4.22152 7.37208C4.47923 7.03941 4.82507 6.78568 5.21976 6.6397C5.61445 6.49373 6.04216 6.46137 6.45432 6.5463C6.86648 6.63122 7.24656 6.83003 7.55139 7.12015C7.85622 7.41026 8.07359 7.78004 8.17879 8.1875C8.22852 8.3802 8.35276 8.54525 8.52418 8.64634C8.6956 8.74743 8.90016 8.77629 9.09285 8.72656C9.28555 8.67683 9.4506 8.55259 9.55169 8.38117C9.65279 8.20975 9.68164 8.0052 9.63191 7.8125C9.48589 7.24748 9.21002 6.72434 8.82624 6.2847C8.44246 5.84507 7.96137 5.50107 7.42125 5.28008C6.88112 5.05909 6.29688 4.96721 5.715 5.01175C5.13312 5.05629 4.56967 5.23602 4.06947 5.53664C3.56928 5.83725 3.14614 6.25047 2.83375 6.74339C2.52135 7.23632 2.32831 7.79535 2.26998 8.37601C2.21165 8.95667 2.28965 9.54293 2.49777 10.0881C2.70589 10.6333 3.03838 11.1225 3.46879 11.5166C2.44999 11.9585 1.56446 12.6592 0.90004 13.5491C0.780569 13.7082 0.729204 13.9083 0.757247 14.1053C0.785289 14.3023 0.890442 14.4801 1.04957 14.5995C1.2087 14.719 1.40877 14.7704 1.60577 14.7423C1.80278 14.7143 1.98057 14.6091 2.10004 14.45C2.55209 13.8424 3.14049 13.3494 3.81788 13.0107C4.49526 12.672 5.24271 12.4971 6.00004 12.5C6.19895 12.5 6.38972 12.421 6.53037 12.2803C6.67102 12.1397 6.75004 11.9489 6.75004 11.75Z" fill="#636363"/>
</svg>
