<svg width="25" height="25" viewBox="0 0 25 25" fill="none" xmlns="http://www.w3.org/2000/svg">
<path d="M20.75 4.25H4.25C3.85218 4.25 3.47064 4.40804 3.18934 4.68934C2.90804 4.97064 2.75 5.35218 2.75 5.75V19.25C2.75 19.6478 2.90804 20.0294 3.18934 20.3107C3.47064 20.592 3.85218 20.75 4.25 20.75H20.75C21.1478 20.75 21.5294 20.592 21.8107 20.3107C22.092 20.0294 22.25 19.6478 22.25 19.25V5.75C22.25 5.35218 22.092 4.97064 21.8107 4.68934C21.5294 4.40804 21.1478 4.25 20.75 4.25ZM20.75 19.25H4.25V5.75H20.75V19.25ZM17.75 9.5C17.75 9.69891 17.671 9.88968 17.5303 10.0303C17.3897 10.171 17.1989 10.25 17 10.25H8C7.80109 10.25 7.61032 10.171 7.46967 10.0303C7.32902 9.88968 7.25 9.69891 7.25 9.5C7.25 9.30109 7.32902 9.11032 7.46967 8.96967C7.61032 8.82902 7.80109 8.75 8 8.75H17C17.1989 8.75 17.3897 8.82902 17.5303 8.96967C17.671 9.11032 17.75 9.30109 17.75 9.5ZM17.75 12.5C17.75 12.6989 17.671 12.8897 17.5303 13.0303C17.3897 13.171 17.1989 13.25 17 13.25H8C7.80109 13.25 7.61032 13.171 7.46967 13.0303C7.32902 12.8897 7.25 12.6989 7.25 12.5C7.25 12.3011 7.32902 12.1103 7.46967 11.9697C7.61032 11.829 7.80109 11.75 8 11.75H17C17.1989 11.75 17.3897 11.829 17.5303 11.9697C17.671 12.1103 17.75 12.3011 17.75 12.5ZM17.75 15.5C17.75 15.6989 17.671 15.8897 17.5303 16.0303C17.3897 16.171 17.1989 16.25 17 16.25H8C7.80109 16.25 7.61032 16.171 7.46967 16.0303C7.32902 15.8897 7.25 15.6989 7.25 15.5C7.25 15.3011 7.32902 15.1103 7.46967 14.9697C7.61032 14.829 7.80109 14.75 8 14.75H17C17.1989 14.75 17.3897 14.829 17.5303 14.9697C17.671 15.1103 17.75 15.3011 17.75 15.5Z" fill="#636363"/>
</svg>
