<svg width="24" height="24" viewBox="0 0 24 24" fill="none" xmlns="http://www.w3.org/2000/svg">
<path d="M9.75 3.18758H5.25C4.9019 3.18758 4.56806 3.32586 4.32192 3.572C4.07578 3.81814 3.9375 4.15198 3.9375 4.50008V19.5001C3.9375 19.8482 4.07578 20.182 4.32192 20.4282C4.56806 20.6743 4.9019 20.8126 5.25 20.8126H9.75C9.92236 20.8126 10.093 20.7786 10.2523 20.7127C10.4115 20.6467 10.5562 20.55 10.6781 20.4282C10.8 20.3063 10.8966 20.1616 10.9626 20.0023C11.0286 19.8431 11.0625 19.6724 11.0625 19.5001V4.50008C11.0625 4.32772 11.0286 4.15704 10.9626 3.9978C10.8966 3.83856 10.8 3.69388 10.6781 3.572C10.5562 3.45012 10.4115 3.35344 10.2523 3.28748C10.093 3.22153 9.92236 3.18758 9.75 3.18758ZM5.0625 7.31258H9.9375V16.6876H5.0625V7.31258ZM5.25 4.31258H9.75C9.79973 4.31258 9.84742 4.33233 9.88258 4.36749C9.91775 4.40266 9.9375 4.45035 9.9375 4.50008V6.18758H5.0625V4.50008C5.0625 4.45035 5.08225 4.40266 5.11742 4.36749C5.15258 4.33233 5.20027 4.31258 5.25 4.31258ZM9.75 19.6876H5.25C5.20027 19.6876 5.15258 19.6678 5.11742 19.6327C5.08225 19.5975 5.0625 19.5498 5.0625 19.5001V17.8126H9.9375V19.5001C9.9375 19.5498 9.91775 19.5975 9.88258 19.6327C9.84742 19.6678 9.79973 19.6876 9.75 19.6876ZM21.5344 18.2813L18.4228 3.48383C18.3877 3.31443 18.3194 3.15364 18.222 3.01071C18.1245 2.86779 17.9997 2.74554 17.8548 2.65101C17.7099 2.55648 17.5478 2.49152 17.3777 2.45988C17.2076 2.42824 17.0329 2.43054 16.8638 2.46664L12.4753 3.40976C12.1357 3.48442 11.8392 3.68998 11.6502 3.98186C11.4611 4.27373 11.3948 4.62837 11.4656 4.96883L14.5772 19.7635C14.6126 19.9335 14.6814 20.0948 14.7795 20.238C14.8777 20.3812 15.0033 20.5036 15.1491 20.5979C15.36 20.7359 15.6066 20.8095 15.8588 20.8098C15.9533 20.8103 16.0477 20.8002 16.14 20.7798L20.5284 19.8376C20.8668 19.7621 21.1619 19.5566 21.3501 19.2654C21.5383 18.9743 21.6045 18.6208 21.5344 18.2813ZM13.7709 10.4701L18.5269 9.4482L19.8506 15.7445L15.0938 16.7635L13.7709 10.4701ZM13.1494 7.51133L17.9062 6.48664L18.2953 8.34383L13.5394 9.3657L13.1494 7.51133ZM12.7125 4.51133L17.1 3.56914C17.1131 3.56787 17.1263 3.56787 17.1394 3.56914C17.1744 3.56918 17.2087 3.57962 17.2378 3.59914C17.2593 3.61285 17.2779 3.63082 17.2922 3.65193C17.3066 3.67305 17.3164 3.69688 17.3212 3.72195L17.6728 5.39258L12.9178 6.40695L12.5672 4.74008C12.5562 4.69025 12.5653 4.63812 12.5925 4.59496C12.6197 4.55179 12.6628 4.52108 12.7125 4.50945V4.51133ZM20.2884 18.7426L15.9 19.6876C15.8765 19.6928 15.8522 19.6932 15.8285 19.6889C15.8049 19.6845 15.7823 19.6755 15.7622 19.6623C15.7407 19.6486 15.7221 19.6306 15.7078 19.6095C15.6934 19.5884 15.6836 19.5645 15.6788 19.5395L15.3272 17.8688L20.0822 16.847L20.4375 18.5091C20.443 18.5341 20.4435 18.56 20.439 18.5852C20.4345 18.6104 20.425 18.6344 20.4112 18.6559C20.3973 18.6775 20.3793 18.696 20.3583 18.7106C20.3372 18.7251 20.3135 18.7354 20.2884 18.7407V18.7426Z" fill="#636363"/>
</svg>
