<?xml version="1.0" encoding="UTF-8" standalone="no"?>
<!DOCTYPE svg PUBLIC "-//W3C//DTD SVG 1.1//EN" "http://www.w3.org/Graphics/SVG/1.1/DTD/svg11.dtd">
<svg width="100%" height="100%" viewBox="0 0 24 24" version="1.1" xmlns="http://www.w3.org/2000/svg" xmlns:xlink="http://www.w3.org/1999/xlink" xml:space="preserve" xmlns:serif="http://www.serif.com/" style="fill-rule:evenodd;clip-rule:evenodd;stroke-linejoin:round;stroke-miterlimit:2;">
    <path d="M9.75,3.188L5.25,3.188C4.902,3.188 4.568,3.326 4.322,3.572C4.076,3.818 3.938,4.152 3.938,4.5L3.938,19.5C3.938,19.848 4.076,20.182 4.322,20.428C4.568,20.674 4.902,20.813 5.25,20.813L9.75,20.813C9.922,20.813 10.093,20.779 10.252,20.713C10.412,20.647 10.556,20.55 10.678,20.428C10.8,20.306 10.897,20.162 10.963,20.002C11.029,19.843 11.063,19.672 11.063,19.5L11.063,4.5C11.063,4.328 11.029,4.157 10.963,3.998C10.897,3.839 10.8,3.694 10.678,3.572C10.556,3.45 10.412,3.353 10.252,3.287C10.093,3.222 9.922,3.188 9.75,3.188ZM5.063,7.313L9.938,7.313L9.938,16.688L5.063,16.688L5.063,7.313ZM5.25,4.313L9.75,4.313C9.8,4.313 9.847,4.332 9.883,4.367C9.918,4.403 9.938,4.45 9.938,4.5L9.938,6.188L5.063,6.188L5.063,4.5C5.063,4.45 5.082,4.403 5.117,4.367C5.153,4.332 5.2,4.313 5.25,4.313ZM9.75,19.688L5.25,19.688C5.2,19.688 5.153,19.668 5.117,19.633C5.082,19.598 5.063,19.55 5.063,19.5L5.063,17.813L9.938,17.813L9.938,19.5C9.938,19.55 9.918,19.598 9.883,19.633C9.847,19.668 9.8,19.688 9.75,19.688ZM21.534,18.281L18.423,3.484C18.388,3.314 18.319,3.154 18.222,3.011C18.125,2.868 18,2.746 17.855,2.651C17.71,2.556 17.548,2.492 17.378,2.46C17.208,2.428 17.033,2.431 16.864,2.467L12.475,3.41C12.136,3.484 11.839,3.69 11.65,3.982C11.461,4.274 11.395,4.628 11.466,4.969L14.577,19.764C14.613,19.934 14.681,20.095 14.78,20.238C14.878,20.381 15.003,20.504 15.149,20.598C15.36,20.736 15.607,20.81 15.859,20.81C15.953,20.81 16.048,20.8 16.14,20.78L20.528,19.838C20.867,19.762 21.162,19.557 21.35,19.265C21.538,18.974 21.605,18.621 21.534,18.281ZM13.771,10.47L18.527,9.448L19.851,15.745L15.094,16.764L13.771,10.47ZM13.149,7.511L17.906,6.487L18.295,8.344L13.539,9.366L13.149,7.511ZM12.713,4.511L17.1,3.569C17.113,3.568 17.126,3.568 17.139,3.569C17.174,3.569 17.209,3.58 17.238,3.599C17.259,3.613 17.278,3.631 17.292,3.652C17.307,3.673 17.316,3.697 17.321,3.722L17.673,5.393L12.918,6.407L12.567,4.74C12.556,4.69 12.565,4.638 12.593,4.595C12.62,4.552 12.663,4.521 12.713,4.509L12.713,4.511ZM20.288,18.743L15.9,19.688C15.877,19.693 15.852,19.693 15.829,19.689C15.805,19.685 15.782,19.676 15.762,19.662C15.741,19.649 15.722,19.631 15.708,19.61C15.693,19.588 15.684,19.565 15.679,19.54L15.327,17.869L20.082,16.847L20.438,18.509C20.443,18.534 20.444,18.56 20.439,18.585C20.435,18.61 20.425,18.634 20.411,18.656C20.397,18.677 20.379,18.696 20.358,18.711C20.337,18.725 20.314,18.735 20.288,18.741L20.288,18.743Z" style="fill:white;fill-rule:nonzero;"/>
</svg>
