<?xml version="1.0" encoding="UTF-8" standalone="no"?>
<!DOCTYPE svg PUBLIC "-//W3C//DTD SVG 1.1//EN" "http://www.w3.org/Graphics/SVG/1.1/DTD/svg11.dtd">
<svg width="100%" height="100%" viewBox="0 0 24 24" version="1.1" xmlns="http://www.w3.org/2000/svg" xmlns:xlink="http://www.w3.org/1999/xlink" xml:space="preserve" xmlns:serif="http://www.serif.com/" style="fill-rule:evenodd;clip-rule:evenodd;stroke-linejoin:round;stroke-miterlimit:2;">
    <path d="M20.25,3.938L3.75,3.938C3.402,3.938 3.068,4.076 2.822,4.322C2.576,4.568 2.438,4.902 2.438,5.25L2.438,18.75C2.438,19.098 2.576,19.432 2.822,19.678C3.068,19.924 3.402,20.063 3.75,20.063L20.25,20.063C20.598,20.063 20.932,19.924 21.178,19.678C21.424,19.432 21.563,19.098 21.563,18.75L21.563,5.25C21.563,4.902 21.424,4.568 21.178,4.322C20.932,4.076 20.598,3.938 20.25,3.938ZM3.563,8.063L11.438,8.063L11.438,15.938L3.563,15.938L3.563,8.063ZM12.563,6.938L12.563,5.063L15.938,5.063L15.938,6.938L12.563,6.938ZM11.438,6.938L8.063,6.938L8.063,5.063L11.438,5.063L11.438,6.938ZM11.438,17.063L11.438,18.938L8.063,18.938L8.063,17.063L11.438,17.063ZM12.563,17.063L15.938,17.063L15.938,18.938L12.563,18.938L12.563,17.063ZM12.563,15.938L12.563,8.063L20.438,8.063L20.438,15.938L12.563,15.938ZM20.438,5.25L20.438,6.938L17.063,6.938L17.063,5.063L20.25,5.063C20.3,5.063 20.347,5.082 20.383,5.117C20.418,5.153 20.438,5.2 20.438,5.25ZM3.75,5.063L6.938,5.063L6.938,6.938L3.563,6.938L3.563,5.25C3.563,5.2 3.582,5.153 3.617,5.117C3.653,5.082 3.7,5.063 3.75,5.063ZM3.563,18.75L3.563,17.063L6.938,17.063L6.938,18.938L3.75,18.938C3.7,18.938 3.653,18.918 3.617,18.883C3.582,18.848 3.563,18.8 3.563,18.75ZM20.25,18.938L17.063,18.938L17.063,17.063L20.438,17.063L20.438,18.75C20.438,18.8 20.418,18.848 20.383,18.883C20.347,18.918 20.3,18.938 20.25,18.938Z" style="fill:white;fill-rule:nonzero;"/>
</svg>
