<svg width="24" height="24" viewBox="0 0 24 24" fill="none" xmlns="http://www.w3.org/2000/svg">
<path d="M20.25 3.93756H3.75C3.4019 3.93756 3.06806 4.07584 2.82192 4.32198C2.57578 4.56812 2.4375 4.90196 2.4375 5.25006V18.7501C2.4375 19.0982 2.57578 19.432 2.82192 19.6781C3.06806 19.9243 3.4019 20.0626 3.75 20.0626H20.25C20.5981 20.0626 20.9319 19.9243 21.1781 19.6781C21.4242 19.432 21.5625 19.0982 21.5625 18.7501V5.25006C21.5625 4.90196 21.4242 4.56812 21.1781 4.32198C20.9319 4.07584 20.5981 3.93756 20.25 3.93756ZM20.4375 18.7501C20.4375 18.7998 20.4177 18.8475 20.3826 18.8826C20.3474 18.9178 20.2997 18.9376 20.25 18.9376H3.75C3.70027 18.9376 3.65258 18.9178 3.61742 18.8826C3.58225 18.8475 3.5625 18.7998 3.5625 18.7501V5.25006C3.5625 5.20033 3.58225 5.15264 3.61742 5.11748C3.65258 5.08232 3.70027 5.06256 3.75 5.06256H20.25C20.2997 5.06256 20.3474 5.08232 20.3826 5.11748C20.4177 5.15264 20.4375 5.20033 20.4375 5.25006V18.7501ZM17.0625 9.00006C17.0625 9.14925 17.0032 9.29232 16.8977 9.39781C16.7923 9.5033 16.6492 9.56256 16.5 9.56256H7.5C7.35082 9.56256 7.20774 9.5033 7.10225 9.39781C6.99676 9.29232 6.9375 9.14925 6.9375 9.00006C6.9375 8.85088 6.99676 8.7078 7.10225 8.60231C7.20774 8.49682 7.35082 8.43756 7.5 8.43756H16.5C16.6492 8.43756 16.7923 8.49682 16.8977 8.60231C17.0032 8.7078 17.0625 8.85088 17.0625 9.00006ZM17.0625 12.0001C17.0625 12.1492 17.0032 12.2923 16.8977 12.3978C16.7923 12.5033 16.6492 12.5626 16.5 12.5626H7.5C7.35082 12.5626 7.20774 12.5033 7.10225 12.3978C6.99676 12.2923 6.9375 12.1492 6.9375 12.0001C6.9375 11.8509 6.99676 11.7078 7.10225 11.6023C7.20774 11.4968 7.35082 11.4376 7.5 11.4376H16.5C16.6492 11.4376 16.7923 11.4968 16.8977 11.6023C17.0032 11.7078 17.0625 11.8509 17.0625 12.0001ZM17.0625 15.0001C17.0625 15.1492 17.0032 15.2923 16.8977 15.3978C16.7923 15.5033 16.6492 15.5626 16.5 15.5626H7.5C7.35082 15.5626 7.20774 15.5033 7.10225 15.3978C6.99676 15.2923 6.9375 15.1492 6.9375 15.0001C6.9375 14.8509 6.99676 14.7078 7.10225 14.6023C7.20774 14.4968 7.35082 14.4376 7.5 14.4376H16.5C16.6492 14.4376 16.7923 14.4968 16.8977 14.6023C17.0032 14.7078 17.0625 14.8509 17.0625 15.0001Z" fill="#636363"/>
</svg>
