<?xml version="1.0" encoding="UTF-8" standalone="no"?>
<!DOCTYPE svg PUBLIC "-//W3C//DTD SVG 1.1//EN" "http://www.w3.org/Graphics/SVG/1.1/DTD/svg11.dtd">
<svg width="100%" height="100%" viewBox="0 0 24 24" version="1.1" xmlns="http://www.w3.org/2000/svg" xmlns:xlink="http://www.w3.org/1999/xlink" xml:space="preserve" xmlns:serif="http://www.serif.com/" style="fill-rule:evenodd;clip-rule:evenodd;stroke-linejoin:round;stroke-miterlimit:2;">
    <path d="M20.25,3.938L3.75,3.938C3.402,3.938 3.068,4.076 2.822,4.322C2.576,4.568 2.438,4.902 2.438,5.25L2.438,18.75C2.438,19.098 2.576,19.432 2.822,19.678C3.068,19.924 3.402,20.063 3.75,20.063L20.25,20.063C20.598,20.063 20.932,19.924 21.178,19.678C21.424,19.432 21.563,19.098 21.563,18.75L21.563,5.25C21.563,4.902 21.424,4.568 21.178,4.322C20.932,4.076 20.598,3.938 20.25,3.938ZM20.438,18.75C20.438,18.8 20.418,18.848 20.383,18.883C20.347,18.918 20.3,18.938 20.25,18.938L3.75,18.938C3.7,18.938 3.653,18.918 3.617,18.883C3.582,18.848 3.563,18.8 3.563,18.75L3.563,5.25C3.563,5.2 3.582,5.153 3.617,5.117C3.653,5.082 3.7,5.063 3.75,5.063L20.25,5.063C20.3,5.063 20.347,5.082 20.383,5.117C20.418,5.153 20.438,5.2 20.438,5.25L20.438,18.75ZM17.063,9C17.063,9.149 17.003,9.292 16.898,9.398C16.792,9.503 16.649,9.563 16.5,9.563L7.5,9.563C7.351,9.563 7.208,9.503 7.102,9.398C6.997,9.292 6.938,9.149 6.938,9C6.938,8.851 6.997,8.708 7.102,8.602C7.208,8.497 7.351,8.438 7.5,8.438L16.5,8.438C16.649,8.438 16.792,8.497 16.898,8.602C17.003,8.708 17.063,8.851 17.063,9ZM17.063,12C17.063,12.149 17.003,12.292 16.898,12.398C16.792,12.503 16.649,12.563 16.5,12.563L7.5,12.563C7.351,12.563 7.208,12.503 7.102,12.398C6.997,12.292 6.938,12.149 6.938,12C6.938,11.851 6.997,11.708 7.102,11.602C7.208,11.497 7.351,11.438 7.5,11.438L16.5,11.438C16.649,11.438 16.792,11.497 16.898,11.602C17.003,11.708 17.063,11.851 17.063,12ZM17.063,15C17.063,15.149 17.003,15.292 16.898,15.398C16.792,15.503 16.649,15.563 16.5,15.563L7.5,15.563C7.351,15.563 7.208,15.503 7.102,15.398C6.997,15.292 6.938,15.149 6.938,15C6.938,14.851 6.997,14.708 7.102,14.602C7.208,14.497 7.351,14.438 7.5,14.438L16.5,14.438C16.649,14.438 16.792,14.497 16.898,14.602C17.003,14.708 17.063,14.851 17.063,15Z" style="fill:white;fill-rule:nonzero;"/>
</svg>
