<svg width="24" height="24" viewBox="0 0 24 24" fill="none" xmlns="http://www.w3.org/2000/svg">
<path d="M23.5143 8.50413L12.2643 2.50413C12.1831 2.46032 12.0922 2.43738 11.9999 2.43738C11.9076 2.43738 11.8168 2.46032 11.7355 2.50413L0.485548 8.50413C0.395785 8.55218 0.320744 8.62368 0.268426 8.71102C0.216109 8.79836 0.188477 8.89826 0.188477 9.00007C0.188477 9.10188 0.216109 9.20179 0.268426 9.28913C0.320744 9.37647 0.395785 9.44797 0.485548 9.49601L3.18742 10.9379V15.5898C3.18734 15.912 3.3058 16.223 3.52024 16.4635C4.7268 17.8069 7.43336 20.0626 11.9999 20.0626C13.6079 20.0777 15.2024 19.7674 16.6874 19.1504V22.5001C16.6874 22.6493 16.7467 22.7923 16.8522 22.8978C16.9577 23.0033 17.1007 23.0626 17.2499 23.0626C17.3991 23.0626 17.5422 23.0033 17.6477 22.8978C17.7532 22.7923 17.8124 22.6493 17.8124 22.5001V18.5954C18.8108 18.0331 19.7115 17.3129 20.4796 16.4626C20.6945 16.2227 20.8131 15.9118 20.8124 15.5898V10.9379L23.5143 9.49601C23.6041 9.44797 23.6791 9.37647 23.7314 9.28913C23.7837 9.20179 23.8114 9.10188 23.8114 9.00007C23.8114 8.89826 23.7837 8.79836 23.7314 8.71102C23.6791 8.62368 23.6041 8.55218 23.5143 8.50413ZM11.9999 18.9376C7.87492 18.9376 5.43742 16.9163 4.35742 15.7116C4.32838 15.6777 4.31242 15.6344 4.31242 15.5898V11.5379L11.7355 15.496C11.8169 15.5393 11.9077 15.562 11.9999 15.562C12.0921 15.562 12.1829 15.5393 12.2643 15.496L16.6874 13.1373V17.9185C15.4687 18.5016 13.9171 18.9376 11.9999 18.9376ZM19.6874 15.5898C19.6874 15.6344 19.6715 15.6777 19.6424 15.7116C19.1021 16.3102 18.4871 16.8367 17.8124 17.2782V12.5373L19.6874 11.5379V15.5898ZM17.6109 11.371C17.5819 11.3458 17.5505 11.3235 17.5171 11.3044L12.2671 8.50507C12.1363 8.44226 11.9863 8.43241 11.8484 8.47759C11.7106 8.52277 11.5955 8.61948 11.5272 8.74751C11.459 8.87555 11.4428 9.02501 11.4822 9.16467C11.5215 9.30433 11.6133 9.42338 11.7384 9.49695L16.4296 12.0001L11.9999 14.3626L1.94524 9.00007L11.9999 3.63757L22.0546 9.00007L17.6109 11.371Z" fill="#636363"/>
</svg>
