<svg width="24" height="24" viewBox="0 0 24 24" fill="none" xmlns="http://www.w3.org/2000/svg">
<path d="M19.6875 14.2501C19.6875 14.4355 19.6325 14.6167 19.5295 14.7709C19.4265 14.9251 19.2801 15.0452 19.1088 15.1162C18.9375 15.1872 18.749 15.2057 18.5671 15.1695C18.3852 15.1334 18.2182 15.0441 18.0871 14.913C17.956 14.7819 17.8667 14.6148 17.8305 14.433C17.7943 14.2511 17.8129 14.0626 17.8839 13.8913C17.9548 13.72 18.075 13.5736 18.2292 13.4706C18.3833 13.3675 18.5646 13.3126 18.75 13.3126C18.9986 13.3126 19.2371 13.4113 19.4129 13.5871C19.5887 13.763 19.6875 14.0014 19.6875 14.2501ZM19.2797 17.7732C19.151 18.818 18.645 19.7798 17.8568 20.4776C17.0687 21.1755 16.0527 21.5613 15 21.5626H12.75C11.6067 21.5611 10.5107 21.1062 9.70225 20.2978C8.89382 19.4894 8.43899 18.3934 8.4375 17.2501V13.2854C7.00007 13.1456 5.66616 12.4757 4.69563 11.4062C3.7251 10.3368 3.18748 8.94427 3.1875 7.50006V3.75006C3.1875 3.40196 3.32578 3.06812 3.57192 2.82198C3.81806 2.57584 4.1519 2.43756 4.5 2.43756H6C6.14918 2.43756 6.29226 2.49682 6.39775 2.60231C6.50324 2.7078 6.5625 2.85088 6.5625 3.00006C6.5625 3.14925 6.50324 3.29232 6.39775 3.39781C6.29226 3.5033 6.14918 3.56256 6 3.56256H4.5C4.45027 3.56256 4.40258 3.58232 4.36742 3.61748C4.33225 3.65264 4.3125 3.70033 4.3125 3.75006V7.50006C4.3125 8.74326 4.80636 9.93555 5.68544 10.8146C6.56451 11.6937 7.7568 12.1876 9 12.1876H9.06281C11.6128 12.1538 13.6875 10.0163 13.6875 7.42225V3.75006C13.6875 3.70033 13.6677 3.65264 13.6326 3.61748C13.5974 3.58232 13.5497 3.56256 13.5 3.56256H12C11.8508 3.56256 11.7077 3.5033 11.6023 3.39781C11.4968 3.29232 11.4375 3.14925 11.4375 3.00006C11.4375 2.85088 11.4968 2.7078 11.6023 2.60231C11.7077 2.49682 11.8508 2.43756 12 2.43756H13.5C13.8481 2.43756 14.1819 2.57584 14.4281 2.82198C14.6742 3.06812 14.8125 3.40196 14.8125 3.75006V7.42225C14.8125 10.4626 12.4988 12.9947 9.5625 13.2835V17.2501C9.5625 18.0954 9.89833 18.9062 10.4961 19.504C11.0939 20.1017 11.9046 20.4376 12.75 20.4376H15C15.7567 20.4366 16.4884 20.1668 17.0647 19.6764C17.6409 19.186 18.0242 18.5068 18.1463 17.7601C17.2637 17.6073 16.4711 17.1278 15.9263 16.417C15.3814 15.7062 15.1243 14.8162 15.2061 13.9243C15.2879 13.0325 15.7026 12.2041 16.3677 11.6043C17.0328 11.0044 17.8994 10.6771 18.7949 10.6875C19.6905 10.6978 20.5493 11.0452 21.2003 11.6602C21.8513 12.2753 22.2468 13.1131 22.3079 14.0066C22.369 14.9001 22.0913 15.7839 21.5302 16.4819C20.969 17.1799 20.1655 17.6409 19.2797 17.7732ZM21.1875 14.2501C21.1875 13.768 21.0445 13.2967 20.7767 12.8959C20.5089 12.495 20.1282 12.1826 19.6828 11.9981C19.2374 11.8136 18.7473 11.7653 18.2745 11.8594C17.8016 11.9534 17.3673 12.1856 17.0264 12.5265C16.6855 12.8674 16.4534 13.3017 16.3593 13.7745C16.2653 14.2474 16.3136 14.7375 16.498 15.1829C16.6825 15.6282 16.995 16.0089 17.3958 16.2768C17.7966 16.5446 18.2679 16.6876 18.75 16.6876C19.0701 16.6876 19.3871 16.6245 19.6828 16.502C19.9785 16.3795 20.2472 16.2 20.4736 15.9736C20.6999 15.7473 20.8795 15.4786 21.002 15.1829C21.1245 14.8871 21.1875 14.5702 21.1875 14.2501Z" fill="#636363"/>
</svg>
