<?xml version="1.0" encoding="UTF-8" standalone="no"?>
<!DOCTYPE svg PUBLIC "-//W3C//DTD SVG 1.1//EN" "http://www.w3.org/Graphics/SVG/1.1/DTD/svg11.dtd">
<svg width="100%" height="100%" viewBox="0 0 24 24" version="1.1" xmlns="http://www.w3.org/2000/svg" xmlns:xlink="http://www.w3.org/1999/xlink" xml:space="preserve" xmlns:serif="http://www.serif.com/" style="fill-rule:evenodd;clip-rule:evenodd;stroke-linejoin:round;stroke-miterlimit:2;">
    <path d="M19.688,14.25C19.688,14.435 19.633,14.617 19.53,14.771C19.427,14.925 19.28,15.045 19.109,15.116C18.938,15.187 18.749,15.206 18.567,15.169C18.385,15.133 18.218,15.044 18.087,14.913C17.956,14.782 17.867,14.615 17.831,14.433C17.794,14.251 17.813,14.063 17.884,13.891C17.955,13.72 18.075,13.574 18.229,13.471C18.383,13.368 18.565,13.313 18.75,13.313C18.999,13.313 19.237,13.411 19.413,13.587C19.589,13.763 19.688,14.001 19.688,14.25ZM19.28,17.773C19.151,18.818 18.645,19.78 17.857,20.478C17.069,21.176 16.053,21.561 15,21.563L12.75,21.563C11.607,21.561 10.511,21.106 9.702,20.298C8.894,19.489 8.439,18.393 8.438,17.25L8.438,13.285C7,13.146 5.666,12.476 4.696,11.406C3.725,10.337 3.187,8.944 3.188,7.5L3.188,3.75C3.188,3.402 3.326,3.068 3.572,2.822C3.818,2.576 4.152,2.438 4.5,2.438L6,2.438C6.149,2.438 6.292,2.497 6.398,2.602C6.503,2.708 6.563,2.851 6.563,3C6.563,3.149 6.503,3.292 6.398,3.398C6.292,3.503 6.149,3.563 6,3.563L4.5,3.563C4.45,3.563 4.403,3.582 4.367,3.617C4.332,3.653 4.313,3.7 4.313,3.75L4.313,7.5C4.313,8.743 4.806,9.936 5.685,10.815C6.565,11.694 7.757,12.188 9,12.188L9.063,12.188C11.613,12.154 13.688,10.016 13.688,7.422L13.688,3.75C13.688,3.7 13.668,3.653 13.633,3.617C13.597,3.582 13.55,3.563 13.5,3.563L12,3.563C11.851,3.563 11.708,3.503 11.602,3.398C11.497,3.292 11.438,3.149 11.438,3C11.438,2.851 11.497,2.708 11.602,2.602C11.708,2.497 11.851,2.438 12,2.438L13.5,2.438C13.848,2.438 14.182,2.576 14.428,2.822C14.674,3.068 14.813,3.402 14.813,3.75L14.813,7.422C14.813,10.463 12.499,12.995 9.563,13.284L9.563,17.25C9.563,18.095 9.898,18.906 10.496,19.504C11.094,20.102 11.905,20.438 12.75,20.438L15,20.438C15.757,20.437 16.488,20.167 17.065,19.676C17.641,19.186 18.024,18.507 18.146,17.76C17.264,17.607 16.471,17.128 15.926,16.417C15.381,15.706 15.124,14.816 15.206,13.924C15.288,13.033 15.703,12.204 16.368,11.604C17.033,11.004 17.899,10.677 18.795,10.688C19.691,10.698 20.549,11.045 21.2,11.66C21.851,12.275 22.247,13.113 22.308,14.007C22.369,14.9 22.091,15.784 21.53,16.482C20.969,17.18 20.166,17.641 19.28,17.773ZM21.188,14.25C21.188,13.768 21.045,13.297 20.777,12.896C20.509,12.495 20.128,12.183 19.683,11.998C19.237,11.814 18.747,11.765 18.275,11.859C17.802,11.953 17.367,12.186 17.026,12.527C16.686,12.867 16.453,13.302 16.359,13.775C16.265,14.247 16.314,14.738 16.498,15.183C16.683,15.628 16.995,16.009 17.396,16.277C17.797,16.545 18.268,16.688 18.75,16.688C19.07,16.688 19.387,16.625 19.683,16.502C19.979,16.38 20.247,16.2 20.474,15.974C20.7,15.747 20.88,15.479 21.002,15.183C21.125,14.887 21.188,14.57 21.188,14.25Z" style="fill:white;fill-rule:nonzero;"/>
</svg>
