<?xml version="1.0" encoding="UTF-8" standalone="no"?>
<!DOCTYPE svg PUBLIC "-//W3C//DTD SVG 1.1//EN" "http://www.w3.org/Graphics/SVG/1.1/DTD/svg11.dtd">
<svg width="100%" height="100%" viewBox="0 0 24 24" version="1.1" xmlns="http://www.w3.org/2000/svg" xmlns:xlink="http://www.w3.org/1999/xlink" xml:space="preserve" xmlns:serif="http://www.serif.com/" style="fill-rule:evenodd;clip-rule:evenodd;stroke-linejoin:round;stroke-miterlimit:2;">
    <path d="M20.063,8.487L20.063,6.75C20.063,5.805 19.687,4.899 19.019,4.231C18.351,3.563 17.445,3.188 16.5,3.188L7.5,3.188C6.555,3.188 5.649,3.563 4.981,4.231C4.313,4.899 3.938,5.805 3.938,6.75L3.938,8.483C3.101,8.616 2.339,9.044 1.789,9.689C1.239,10.333 0.937,11.153 0.937,12.001C0.937,12.848 1.239,13.668 1.789,14.313C2.339,14.957 3.101,15.385 3.938,15.519L3.938,18.75C3.938,19.098 4.076,19.432 4.322,19.678C4.568,19.924 4.902,20.063 5.25,20.063L18.75,20.063C19.098,20.063 19.432,19.924 19.678,19.678C19.924,19.432 20.063,19.098 20.063,18.75L20.063,15.519C20.896,15.382 21.655,14.953 22.202,14.309C22.749,13.665 23.049,12.848 23.049,12.003C23.049,11.158 22.749,10.34 22.202,9.696C21.655,9.052 20.896,8.624 20.063,8.487ZM7.5,4.313L16.5,4.313C17.147,4.313 17.767,4.569 18.224,5.026C18.681,5.484 18.938,6.104 18.938,6.75L18.938,8.483C18.101,8.617 17.34,9.045 16.791,9.69C16.241,10.334 15.939,11.153 15.938,12L15.938,12.188L8.063,12.188L8.063,12C8.061,11.153 7.759,10.334 7.209,9.69C6.66,9.045 5.899,8.617 5.063,8.483L5.063,6.75C5.063,6.104 5.319,5.484 5.776,5.026C6.234,4.569 6.854,4.313 7.5,4.313ZM19.533,14.438L19.5,14.438C19.351,14.438 19.208,14.497 19.102,14.602C18.997,14.708 18.938,14.851 18.938,15L18.938,18.75C18.938,18.8 18.918,18.848 18.883,18.883C18.847,18.918 18.8,18.938 18.75,18.938L5.25,18.938C5.2,18.938 5.153,18.918 5.117,18.883C5.082,18.848 5.063,18.8 5.063,18.75L5.063,15C5.063,14.851 5.003,14.708 4.898,14.602C4.792,14.497 4.649,14.438 4.5,14.438L4.467,14.438C3.987,14.431 3.519,14.283 3.122,14.011C2.726,13.739 2.418,13.356 2.239,12.91C2.059,12.464 2.016,11.975 2.113,11.505C2.211,11.034 2.446,10.603 2.788,10.265C3.13,9.928 3.564,9.699 4.036,9.607C4.508,9.516 4.997,9.566 5.44,9.751C5.884,9.937 6.262,10.249 6.529,10.649C6.795,11.049 6.937,11.519 6.938,12L6.938,15.75C6.938,15.899 6.997,16.042 7.102,16.148C7.208,16.253 7.351,16.313 7.5,16.313C7.649,16.313 7.792,16.253 7.898,16.148C8.003,16.042 8.063,15.899 8.063,15.75L8.063,13.313L15.938,13.313L15.938,15.75C15.938,15.899 15.997,16.042 16.102,16.148C16.208,16.253 16.351,16.313 16.5,16.313C16.649,16.313 16.792,16.253 16.898,16.148C17.003,16.042 17.063,15.899 17.063,15.75L17.063,12C17.063,11.519 17.205,11.049 17.471,10.649C17.738,10.249 18.116,9.937 18.56,9.751C19.003,9.566 19.492,9.516 19.964,9.607C20.436,9.699 20.87,9.928 21.212,10.265C21.554,10.603 21.789,11.034 21.887,11.505C21.984,11.975 21.941,12.464 21.761,12.91C21.582,13.356 21.275,13.739 20.878,14.011C20.482,14.283 20.014,14.431 19.533,14.438Z" style="fill:white;fill-rule:nonzero;"/>
</svg>
