<svg width="24" height="24" viewBox="0 0 24 24" fill="none" xmlns="http://www.w3.org/2000/svg">
<path d="M2.6625 11.7C2.78185 11.7896 2.93187 11.828 3.07955 11.8069C3.22724 11.7858 3.36049 11.7069 3.45 11.5875C3.92156 10.9588 4.53303 10.4485 5.23598 10.097C5.93894 9.74553 6.71407 9.56255 7.5 9.56255C8.28593 9.56255 9.06107 9.74553 9.76402 10.097C10.467 10.4485 11.0784 10.9588 11.55 11.5875C11.6397 11.7067 11.773 11.7855 11.9207 11.8064C12.0683 11.8273 12.2183 11.7887 12.3375 11.6991C12.3801 11.6678 12.4177 11.6302 12.4491 11.5875C12.9206 10.9588 13.5321 10.4485 14.235 10.097C14.938 9.74553 15.7131 9.56255 16.4991 9.56255C17.285 9.56255 18.0601 9.74553 18.7631 10.097C19.466 10.4485 20.0775 10.9588 20.5491 11.5875C20.6387 11.7069 20.7721 11.7857 20.9198 11.8068C21.0676 11.8278 21.2177 11.7892 21.337 11.6996C21.4564 11.6099 21.5352 11.4766 21.5562 11.3288C21.5773 11.181 21.5387 11.031 21.4491 10.9116C20.7409 9.96313 19.7746 9.23863 18.6656 8.82473C19.2567 8.3719 19.691 7.74526 19.9076 7.03285C20.1241 6.32044 20.112 5.55809 19.8729 4.85292C19.6339 4.14775 19.1798 3.53522 18.5747 3.10139C17.9695 2.66757 17.2437 2.43427 16.4991 2.43427C15.7545 2.43427 15.0286 2.66757 14.4234 3.10139C13.8183 3.53522 13.3643 4.14775 13.1252 4.85292C12.8861 5.55809 12.874 6.32044 13.0906 7.03285C13.3071 7.74526 13.7414 8.3719 14.3325 8.82473C13.4454 9.15529 12.647 9.68702 12 10.3782C11.3528 9.6869 10.554 9.15516 9.66656 8.82473C10.2576 8.3719 10.692 7.74526 10.9085 7.03285C11.1251 6.32044 11.1129 5.55809 10.8739 4.85292C10.6348 4.14775 10.1808 3.53522 9.57563 3.10139C8.97047 2.66757 8.24459 2.43427 7.5 2.43427C6.75541 2.43427 6.02953 2.66757 5.42437 3.10139C4.81922 3.53522 4.3652 4.14775 4.12613 4.85292C3.88706 5.55809 3.87494 6.32044 4.09149 7.03285C4.30804 7.74526 4.74237 8.3719 5.33344 8.82473C4.22423 9.23865 3.25784 9.96353 2.55 10.9125C2.46049 11.0319 2.42206 11.1819 2.44316 11.3296C2.46425 11.4773 2.54315 11.6105 2.6625 11.7ZM16.5 3.56255C16.9821 3.56255 17.4534 3.7055 17.8542 3.97334C18.255 4.24118 18.5675 4.62186 18.752 5.06726C18.9364 5.51265 18.9847 6.00275 18.8907 6.47558C18.7966 6.94841 18.5645 7.38273 18.2236 7.72362C17.8827 8.06451 17.4484 8.29666 16.9755 8.39071C16.5027 8.48476 16.0126 8.43649 15.5672 8.252C15.1218 8.06752 14.7411 7.75509 14.4733 7.35425C14.2055 6.9534 14.0625 6.48214 14.0625 6.00005C14.0625 5.35358 14.3193 4.73359 14.7764 4.27647C15.2335 3.81935 15.8535 3.56255 16.5 3.56255ZM7.5 3.56255C7.98209 3.56255 8.45336 3.7055 8.8542 3.97334C9.25505 4.24118 9.56747 4.62186 9.75196 5.06726C9.93645 5.51265 9.98472 6.00275 9.89067 6.47558C9.79662 6.94841 9.56447 7.38273 9.22357 7.72362C8.88268 8.06451 8.44836 8.29666 7.97553 8.39071C7.50271 8.48476 7.01261 8.43649 6.56721 8.252C6.12182 8.06752 5.74113 7.75509 5.47329 7.35425C5.20546 6.9534 5.0625 6.48214 5.0625 6.00005C5.0625 5.35358 5.31931 4.73359 5.77643 4.27647C6.23355 3.81935 6.85354 3.56255 7.5 3.56255ZM18.6666 18.5747C19.2576 18.1219 19.692 17.4953 19.9085 16.7828C20.1251 16.0704 20.113 15.3081 19.8739 14.6029C19.6348 13.8978 19.1808 13.2852 18.5756 12.8514C17.9705 12.4176 17.2446 12.1843 16.5 12.1843C15.7554 12.1843 15.0295 12.4176 14.4244 12.8514C13.8192 13.2852 13.3652 13.8978 13.1261 14.6029C12.8871 15.3081 12.8749 16.0704 13.0915 16.7828C13.308 17.4953 13.7424 18.1219 14.3334 18.5747C13.446 18.9052 12.6472 19.4369 12 20.1282C11.3528 19.4369 10.554 18.9052 9.66656 18.5747C10.2576 18.1219 10.692 17.4953 10.9085 16.7828C11.1251 16.0704 11.1129 15.3081 10.8739 14.6029C10.6348 13.8978 10.1808 13.2852 9.57563 12.8514C8.97047 12.4176 8.24459 12.1843 7.5 12.1843C6.75541 12.1843 6.02953 12.4176 5.42437 12.8514C4.81922 13.2852 4.3652 13.8978 4.12613 14.6029C3.88706 15.3081 3.87494 16.0704 4.09149 16.7828C4.30804 17.4953 4.74237 18.1219 5.33344 18.5747C4.22423 18.9887 3.25784 19.7135 2.55 20.6625C2.50568 20.7216 2.47343 20.7889 2.4551 20.8604C2.43677 20.932 2.43271 21.0065 2.44316 21.0796C2.4536 21.1527 2.47835 21.2231 2.51599 21.2866C2.55362 21.3502 2.60341 21.4057 2.6625 21.45C2.7216 21.4944 2.78884 21.5266 2.8604 21.5449C2.93196 21.5633 3.00643 21.5673 3.07955 21.5569C3.15268 21.5464 3.22303 21.5217 3.28659 21.4841C3.35015 21.4464 3.40568 21.3966 3.45 21.3375C3.92156 20.7088 4.53303 20.1985 5.23598 19.847C5.93894 19.4955 6.71407 19.3125 7.5 19.3125C8.28593 19.3125 9.06107 19.4955 9.76402 19.847C10.467 20.1985 11.0784 20.7088 11.55 21.3375C11.6397 21.4567 11.773 21.5355 11.9207 21.5564C12.0683 21.5773 12.2183 21.5387 12.3375 21.4491C12.3801 21.4178 12.4177 21.3802 12.4491 21.3375C12.9206 20.7088 13.5321 20.1985 14.235 19.847C14.938 19.4955 15.7131 19.3125 16.4991 19.3125C17.285 19.3125 18.0601 19.4955 18.7631 19.847C19.466 20.1985 20.0775 20.7088 20.5491 21.3375C20.6387 21.4569 20.7721 21.5357 20.9198 21.5568C21.0676 21.5778 21.2177 21.5392 21.337 21.4496C21.4564 21.3599 21.5352 21.2266 21.5562 21.0788C21.5773 20.931 21.5387 20.781 21.4491 20.6616C20.7412 19.7133 19.7752 18.9888 18.6666 18.5747ZM7.5 13.3125C7.98209 13.3125 8.45336 13.4555 8.8542 13.7233C9.25505 13.9912 9.56747 14.3719 9.75196 14.8173C9.93645 15.2627 9.98472 15.7528 9.89067 16.2256C9.79662 16.6984 9.56447 17.1327 9.22357 17.4736C8.88268 17.8145 8.44836 18.0467 7.97553 18.1407C7.50271 18.2348 7.01261 18.1865 6.56721 18.002C6.12182 17.8175 5.74113 17.5051 5.47329 17.1042C5.20546 16.7034 5.0625 16.2321 5.0625 15.75C5.0625 15.1036 5.31931 14.4836 5.77643 14.0265C6.23355 13.5694 6.85354 13.3125 7.5 13.3125ZM16.5 13.3125C16.9821 13.3125 17.4534 13.4555 17.8542 13.7233C18.255 13.9912 18.5675 14.3719 18.752 14.8173C18.9364 15.2627 18.9847 15.7528 18.8907 16.2256C18.7966 16.6984 18.5645 17.1327 18.2236 17.4736C17.8827 17.8145 17.4484 18.0467 16.9755 18.1407C16.5027 18.2348 16.0126 18.1865 15.5672 18.002C15.1218 17.8175 14.7411 17.5051 14.4733 17.1042C14.2055 16.7034 14.0625 16.2321 14.0625 15.75C14.0625 15.1036 14.3193 14.4836 14.7764 14.0265C15.2335 13.5694 15.8535 13.3125 16.5 13.3125Z" fill="#636363"/>
</svg>
