<?xml version="1.0" encoding="UTF-8" standalone="no"?>
<!DOCTYPE svg PUBLIC "-//W3C//DTD SVG 1.1//EN" "http://www.w3.org/Graphics/SVG/1.1/DTD/svg11.dtd">
<svg width="100%" height="100%" viewBox="0 0 24 24" version="1.1" xmlns="http://www.w3.org/2000/svg" xmlns:xlink="http://www.w3.org/1999/xlink" xml:space="preserve" xmlns:serif="http://www.serif.com/" style="fill-rule:evenodd;clip-rule:evenodd;stroke-linejoin:round;stroke-miterlimit:2;">
    <path d="M2.663,11.7C2.782,11.79 2.932,11.828 3.08,11.807C3.227,11.786 3.36,11.707 3.45,11.588C3.922,10.959 4.533,10.448 5.236,10.097C5.939,9.746 6.714,9.563 7.5,9.563C8.286,9.563 9.061,9.746 9.764,10.097C10.467,10.448 11.078,10.959 11.55,11.588C11.64,11.707 11.773,11.786 11.921,11.806C12.068,11.827 12.218,11.789 12.338,11.699C12.38,11.668 12.418,11.63 12.449,11.588C12.921,10.959 13.532,10.448 14.235,10.097C14.938,9.746 15.713,9.563 16.499,9.563C17.285,9.563 18.06,9.746 18.763,10.097C19.466,10.448 20.078,10.959 20.549,11.588C20.639,11.707 20.772,11.786 20.92,11.807C21.068,11.828 21.218,11.789 21.337,11.7C21.456,11.61 21.535,11.477 21.556,11.329C21.577,11.181 21.539,11.031 21.449,10.912C20.741,9.963 19.775,9.239 18.666,8.825C19.257,8.372 19.691,7.745 19.908,7.033C20.124,6.32 20.112,5.558 19.873,4.853C19.634,4.148 19.18,3.535 18.575,3.101C17.97,2.668 17.244,2.434 16.499,2.434C15.755,2.434 15.029,2.668 14.423,3.101C13.818,3.535 13.364,4.148 13.125,4.853C12.886,5.558 12.874,6.32 13.091,7.033C13.307,7.745 13.741,8.372 14.333,8.825C13.445,9.155 12.647,9.687 12,10.378C11.353,9.687 10.554,9.155 9.667,8.825C10.258,8.372 10.692,7.745 10.909,7.033C11.125,6.32 11.113,5.558 10.874,4.853C10.635,4.148 10.181,3.535 9.576,3.101C8.97,2.668 8.245,2.434 7.5,2.434C6.755,2.434 6.03,2.668 5.424,3.101C4.819,3.535 4.365,4.148 4.126,4.853C3.887,5.558 3.875,6.32 4.091,7.033C4.308,7.745 4.742,8.372 5.333,8.825C4.224,9.239 3.258,9.964 2.55,10.913C2.46,11.032 2.422,11.182 2.443,11.33C2.464,11.477 2.543,11.611 2.663,11.7ZM16.5,3.563C16.982,3.563 17.453,3.705 17.854,3.973C18.255,4.241 18.568,4.622 18.752,5.067C18.936,5.513 18.985,6.003 18.891,6.476C18.797,6.948 18.565,7.383 18.224,7.724C17.883,8.065 17.448,8.297 16.976,8.391C16.503,8.485 16.013,8.436 15.567,8.252C15.122,8.068 14.741,7.755 14.473,7.354C14.206,6.953 14.063,6.482 14.063,6C14.063,5.354 14.319,4.734 14.776,4.276C15.233,3.819 15.854,3.563 16.5,3.563ZM7.5,3.563C7.982,3.563 8.453,3.705 8.854,3.973C9.255,4.241 9.567,4.622 9.752,5.067C9.936,5.513 9.985,6.003 9.891,6.476C9.797,6.948 9.564,7.383 9.224,7.724C8.883,8.065 8.448,8.297 7.976,8.391C7.503,8.485 7.013,8.436 6.567,8.252C6.122,8.068 5.741,7.755 5.473,7.354C5.205,6.953 5.063,6.482 5.063,6C5.063,5.354 5.319,4.734 5.776,4.276C6.234,3.819 6.854,3.563 7.5,3.563ZM18.667,18.575C19.258,18.122 19.692,17.495 19.909,16.783C20.125,16.07 20.113,15.308 19.874,14.603C19.635,13.898 19.181,13.285 18.576,12.851C17.971,12.418 17.245,12.184 16.5,12.184C15.755,12.184 15.03,12.418 14.424,12.851C13.819,13.285 13.365,13.898 13.126,14.603C12.887,15.308 12.875,16.07 13.092,16.783C13.308,17.495 13.742,18.122 14.333,18.575C13.446,18.905 12.647,19.437 12,20.128C11.353,19.437 10.554,18.905 9.667,18.575C10.258,18.122 10.692,17.495 10.909,16.783C11.125,16.07 11.113,15.308 10.874,14.603C10.635,13.898 10.181,13.285 9.576,12.851C8.97,12.418 8.245,12.184 7.5,12.184C6.755,12.184 6.03,12.418 5.424,12.851C4.819,13.285 4.365,13.898 4.126,14.603C3.887,15.308 3.875,16.07 4.091,16.783C4.308,17.495 4.742,18.122 5.333,18.575C4.224,18.989 3.258,19.714 2.55,20.663C2.506,20.722 2.473,20.789 2.455,20.86C2.437,20.932 2.433,21.007 2.443,21.08C2.454,21.153 2.478,21.223 2.516,21.287C2.554,21.35 2.603,21.406 2.663,21.45C2.722,21.494 2.789,21.527 2.86,21.545C2.932,21.563 3.006,21.567 3.08,21.557C3.153,21.546 3.223,21.522 3.287,21.484C3.35,21.446 3.406,21.397 3.45,21.337C3.922,20.709 4.533,20.199 5.236,19.847C5.939,19.496 6.714,19.313 7.5,19.313C8.286,19.313 9.061,19.496 9.764,19.847C10.467,20.199 11.078,20.709 11.55,21.337C11.64,21.457 11.773,21.536 11.921,21.556C12.068,21.577 12.218,21.539 12.338,21.449C12.38,21.418 12.418,21.38 12.449,21.337C12.921,20.709 13.532,20.199 14.235,19.847C14.938,19.496 15.713,19.313 16.499,19.313C17.285,19.313 18.06,19.496 18.763,19.847C19.466,20.199 20.078,20.709 20.549,21.337C20.639,21.457 20.772,21.536 20.92,21.557C21.068,21.578 21.218,21.539 21.337,21.45C21.456,21.36 21.535,21.227 21.556,21.079C21.577,20.931 21.539,20.781 21.449,20.662C20.741,19.713 19.775,18.989 18.667,18.575ZM7.5,13.313C7.982,13.313 8.453,13.456 8.854,13.723C9.255,13.991 9.567,14.372 9.752,14.817C9.936,15.263 9.985,15.753 9.891,16.226C9.797,16.698 9.564,17.133 9.224,17.474C8.883,17.815 8.448,18.047 7.976,18.141C7.503,18.235 7.013,18.187 6.567,18.002C6.122,17.818 5.741,17.505 5.473,17.104C5.205,16.703 5.063,16.232 5.063,15.75C5.063,15.104 5.319,14.484 5.776,14.027C6.234,13.569 6.854,13.313 7.5,13.313ZM16.5,13.313C16.982,13.313 17.453,13.456 17.854,13.723C18.255,13.991 18.568,14.372 18.752,14.817C18.936,15.263 18.985,15.753 18.891,16.226C18.797,16.698 18.565,17.133 18.224,17.474C17.883,17.815 17.448,18.047 16.976,18.141C16.503,18.235 16.013,18.187 15.567,18.002C15.122,17.818 14.741,17.505 14.473,17.104C14.206,16.703 14.063,16.232 14.063,15.75C14.063,15.104 14.319,14.484 14.776,14.027C15.233,13.569 15.854,13.313 16.5,13.313Z" style="fill:white;fill-rule:nonzero;"/>
</svg>
