<?xml version="1.0" encoding="UTF-8" standalone="no"?>
<!DOCTYPE svg PUBLIC "-//W3C//DTD SVG 1.1//EN" "http://www.w3.org/Graphics/SVG/1.1/DTD/svg11.dtd">
<svg width="100%" height="100%" viewBox="0 0 24 24" version="1.1" xmlns="http://www.w3.org/2000/svg" xmlns:xlink="http://www.w3.org/1999/xlink" xml:space="preserve" xmlns:serif="http://www.serif.com/" style="fill-rule:evenodd;clip-rule:evenodd;stroke-linejoin:round;stroke-miterlimit:2;">
    <path d="M22.837,13.95C22.778,13.994 22.711,14.027 22.64,14.045C22.568,14.063 22.494,14.067 22.421,14.057C22.347,14.046 22.277,14.022 22.213,13.984C22.15,13.946 22.094,13.897 22.05,13.838C21.581,13.207 20.97,12.695 20.266,12.343C19.563,11.991 18.787,11.81 18,11.813C17.851,11.813 17.708,11.753 17.602,11.648C17.497,11.542 17.438,11.399 17.438,11.25C17.438,11.101 17.497,10.958 17.602,10.852C17.708,10.747 17.851,10.688 18,10.688C18.456,10.687 18.903,10.56 19.289,10.318C19.676,10.077 19.988,9.732 20.188,9.323C20.389,8.913 20.471,8.456 20.424,8.002C20.378,7.549 20.206,7.118 19.926,6.757C19.647,6.397 19.273,6.122 18.845,5.964C18.417,5.806 17.954,5.771 17.508,5.863C17.061,5.955 16.649,6.17 16.319,6.484C15.989,6.799 15.753,7.199 15.639,7.641C15.602,7.785 15.509,7.909 15.38,7.985C15.252,8.06 15.099,8.082 14.954,8.045C14.81,8.007 14.686,7.914 14.61,7.786C14.534,7.657 14.513,7.504 14.55,7.359C14.691,6.81 14.962,6.301 15.34,5.877C15.717,5.453 16.191,5.126 16.721,4.922C17.251,4.718 17.822,4.644 18.386,4.705C18.951,4.767 19.492,4.962 19.966,5.275C20.439,5.589 20.831,6.01 21.109,6.506C21.386,7.001 21.541,7.556 21.561,8.123C21.58,8.691 21.464,9.255 21.222,9.768C20.979,10.282 20.617,10.73 20.167,11.075C21.276,11.489 22.242,12.214 22.95,13.163C22.994,13.222 23.027,13.289 23.045,13.36C23.063,13.432 23.067,13.507 23.057,13.58C23.046,13.653 23.022,13.723 22.984,13.787C22.946,13.85 22.897,13.906 22.837,13.95ZM17.737,19.969C17.774,20.033 17.798,20.103 17.807,20.177C17.817,20.25 17.812,20.324 17.793,20.396C17.774,20.467 17.741,20.534 17.696,20.593C17.651,20.651 17.595,20.701 17.531,20.738C17.446,20.788 17.349,20.814 17.25,20.814C17.151,20.814 17.054,20.788 16.969,20.738C16.883,20.689 16.812,20.618 16.763,20.532C16.274,19.704 15.577,19.017 14.742,18.54C13.906,18.063 12.961,17.812 11.999,17.812C11.037,17.812 10.092,18.063 9.256,18.54C8.421,19.017 7.725,19.704 7.236,20.532C7.2,20.599 7.152,20.659 7.093,20.707C7.035,20.755 6.967,20.791 6.894,20.812C6.821,20.833 6.745,20.839 6.669,20.83C6.594,20.821 6.521,20.797 6.456,20.759C6.39,20.721 6.333,20.67 6.287,20.609C6.242,20.548 6.209,20.479 6.191,20.405C6.173,20.332 6.17,20.255 6.182,20.18C6.194,20.105 6.222,20.034 6.263,19.97C7.029,18.653 8.228,17.644 9.656,17.114C8.876,16.608 8.281,15.863 7.959,14.99C7.637,14.118 7.606,13.164 7.87,12.273C8.134,11.381 8.679,10.598 9.424,10.042C10.17,9.485 11.075,9.185 12.005,9.185C12.935,9.185 13.84,9.485 14.585,10.042C15.33,10.598 15.876,11.381 16.14,12.273C16.404,13.164 16.372,14.118 16.051,14.99C15.729,15.863 15.133,16.608 14.353,17.114C15.777,17.646 16.973,18.655 17.737,19.969ZM12,16.688C12.63,16.688 13.247,16.501 13.771,16.15C14.295,15.8 14.704,15.302 14.945,14.72C15.186,14.137 15.249,13.496 15.126,12.878C15.003,12.26 14.7,11.692 14.254,11.246C13.808,10.8 13.24,10.497 12.622,10.374C12.004,10.251 11.363,10.314 10.78,10.555C10.198,10.796 9.7,11.205 9.35,11.729C8.999,12.253 8.813,12.87 8.813,13.5C8.813,14.345 9.148,15.156 9.746,15.754C10.344,16.352 11.155,16.688 12,16.688ZM6.563,11.25C6.563,11.101 6.503,10.958 6.398,10.852C6.292,10.747 6.149,10.688 6,10.688C5.544,10.687 5.098,10.559 4.711,10.318C4.324,10.077 4.013,9.732 3.812,9.323C3.611,8.914 3.53,8.456 3.576,8.003C3.622,7.549 3.795,7.118 4.074,6.757C4.353,6.397 4.727,6.122 5.155,5.964C5.582,5.806 6.046,5.771 6.492,5.863C6.939,5.954 7.35,6.17 7.681,6.484C8.011,6.798 8.246,7.198 8.361,7.64C8.379,7.711 8.411,7.778 8.456,7.837C8.5,7.896 8.556,7.946 8.62,7.984C8.683,8.021 8.754,8.046 8.827,8.056C8.9,8.066 8.974,8.062 9.046,8.044C9.117,8.025 9.185,7.993 9.244,7.949C9.303,7.904 9.352,7.848 9.39,7.785C9.427,7.721 9.452,7.651 9.462,7.578C9.473,7.504 9.468,7.43 9.45,7.358C9.309,6.809 9.038,6.3 8.66,5.876C8.283,5.452 7.809,5.125 7.279,4.921C6.749,4.717 6.178,4.643 5.614,4.704C5.049,4.766 4.508,4.961 4.034,5.274C3.561,5.588 3.169,6.01 2.891,6.505C2.614,7 2.459,7.555 2.439,8.122C2.42,8.69 2.536,9.254 2.778,9.767C3.021,10.281 3.383,10.729 3.833,11.074C2.724,11.488 1.758,12.213 1.05,13.163C1.006,13.222 0.973,13.289 0.955,13.36C0.937,13.432 0.933,13.507 0.943,13.58C0.954,13.653 0.978,13.723 1.016,13.787C1.054,13.85 1.103,13.906 1.163,13.95C1.222,13.994 1.289,14.027 1.36,14.045C1.432,14.063 1.506,14.067 1.58,14.057C1.653,14.046 1.723,14.022 1.787,13.984C1.85,13.946 1.906,13.897 1.95,13.838C2.419,13.207 3.03,12.695 3.734,12.343C4.437,11.991 5.214,11.81 6,11.813C6.149,11.813 6.292,11.753 6.398,11.648C6.503,11.542 6.563,11.399 6.563,11.25Z" style="fill:white;fill-rule:nonzero;"/>
</svg>
