<svg width="20" height="20" viewBox="0 0 20 20" fill="none" xmlns="http://www.w3.org/2000/svg">
<path fill-rule="evenodd" clip-rule="evenodd" d="M9.95214 1.04169H10.0478C11.9714 1.04168 13.479 1.04167 14.6552 1.19981C15.8591 1.36168 16.8092 1.69946 17.5548 2.44513C18.3005 3.19081 18.6383 4.14083 18.8002 5.34477C18.9583 6.52101 18.9583 8.02855 18.9583 9.95221V10.0478C18.9583 11.9715 18.9583 13.479 18.8002 14.6553C18.6383 15.8592 18.3005 16.8092 17.5548 17.5549C16.8092 18.3006 15.8591 18.6384 14.6552 18.8002C13.479 18.9584 11.9714 18.9584 10.0478 18.9584H9.95215C8.02848 18.9584 6.52095 18.9584 5.34471 18.8002C4.14077 18.6384 3.19075 18.3006 2.44507 17.5549C1.6994 16.8092 1.36161 15.8592 1.19975 14.6553C1.04161 13.479 1.04162 11.9715 1.04163 10.0478V9.9522C1.04162 8.02854 1.04161 6.52101 1.19975 5.34477C1.36161 4.14083 1.6994 3.19081 2.44507 2.44513C3.19075 1.69946 4.14077 1.36168 5.34471 1.19981C6.52095 1.04167 8.02848 1.04168 9.95214 1.04169ZM5.51127 2.43866C4.44594 2.58189 3.80367 2.8543 3.32896 3.32902C2.85424 3.80373 2.58183 4.446 2.4386 5.51133C2.29295 6.59465 2.29163 8.01817 2.29163 10C2.29163 11.9819 2.29295 13.4054 2.4386 14.4887C2.58183 15.554 2.85424 16.1963 3.32896 16.671C3.80367 17.1457 4.44594 17.4181 5.51127 17.5614C6.59459 17.707 8.0181 17.7084 9.99996 17.7084C11.9818 17.7084 13.4053 17.707 14.4886 17.5614C15.554 17.4181 16.1962 17.1457 16.671 16.671C17.1457 16.1963 17.4181 15.554 17.5613 14.4887C17.707 13.4054 17.7083 11.9819 17.7083 10C17.7083 8.01817 17.707 6.59465 17.5613 5.51133C17.4181 4.446 17.1457 3.80373 16.671 3.32902C16.1962 2.8543 15.554 2.58189 14.4886 2.43866C13.4053 2.29301 11.9818 2.29169 9.99996 2.29169C8.0181 2.29169 6.59459 2.29301 5.51127 2.43866ZM8.33656 4.37518C8.68172 4.37811 8.95916 4.66029 8.95623 5.00546C8.95022 5.71436 8.92828 6.31929 8.82995 6.82129C8.7282 7.34075 8.53696 7.79346 8.16518 8.16524C7.7934 8.53702 7.34069 8.72826 6.82123 8.83001C6.31923 8.92834 5.7143 8.95029 5.0054 8.9563C4.66023 8.95922 4.37805 8.68178 4.37512 8.33662C4.37219 7.99145 4.64963 7.70927 4.9948 7.70634C5.70803 7.70029 6.20617 7.67673 6.58095 7.60332C6.93828 7.53333 7.13607 7.42658 7.28129 7.28136C7.42652 7.13613 7.53327 6.93834 7.60326 6.58101C7.67667 6.20623 7.70023 5.70809 7.70628 4.99486C7.70921 4.64969 7.99139 4.37225 8.33656 4.37518ZM11.6613 4.37518C12.0065 4.37225 12.2887 4.64969 12.2916 4.99486C12.2976 5.70809 12.3212 6.20623 12.3946 6.58101C12.4646 6.93834 12.5714 7.13613 12.7166 7.28136C12.8618 7.42658 13.0596 7.53333 13.4169 7.60332C13.7917 7.67673 14.2899 7.70029 15.0031 7.70634C15.3482 7.70927 15.6257 7.99145 15.6228 8.33662C15.6198 8.68178 15.3377 8.95922 14.9925 8.9563C14.2836 8.95029 13.6787 8.92834 13.1767 8.83001C12.6572 8.72826 12.2045 8.53702 11.8327 8.16524C11.4609 7.79346 11.2697 7.34075 11.1679 6.82129C11.0696 6.31929 11.0477 5.71436 11.0416 5.00546C11.0387 4.66029 11.3162 4.37811 11.6613 4.37518ZM4.37512 11.6614C4.37805 11.3162 4.66023 11.0388 5.0054 11.0417C5.7143 11.0477 6.31923 11.0697 6.82123 11.168C7.34069 11.2697 7.7934 11.461 8.16518 11.8328C8.53696 12.2045 8.7282 12.6573 8.82995 13.1767C8.92828 13.6787 8.95022 14.2836 8.95623 14.9925C8.95916 15.3377 8.68172 15.6199 8.33656 15.6228C7.99139 15.6257 7.70921 15.3483 7.70628 15.0031C7.70023 14.2899 7.67667 13.7918 7.60326 13.417C7.53327 13.0597 7.42652 12.8619 7.28129 12.7166C7.13607 12.5714 6.93828 12.4647 6.58095 12.3947C6.20617 12.3213 5.70803 12.2977 4.9948 12.2917C4.64963 12.2887 4.37219 12.0066 4.37512 11.6614ZM15.6228 11.6614C15.6257 12.0066 15.3482 12.2887 15.0031 12.2917C14.2899 12.2977 13.7917 12.3213 13.4169 12.3947C13.0596 12.4647 12.8618 12.5714 12.7166 12.7166C12.5714 12.8619 12.4646 13.0597 12.3946 13.417C12.3212 13.7918 12.2976 14.2899 12.2916 15.0031C12.2887 15.3483 12.0065 15.6257 11.6613 15.6228C11.3162 15.6199 11.0387 15.3377 11.0416 14.9925C11.0477 14.2836 11.0696 13.6787 11.1679 13.1767C11.2697 12.6573 11.4609 12.2045 11.8327 11.8328C12.2045 11.461 12.6572 11.2697 13.1767 11.168C13.6787 11.0697 14.2836 11.0477 14.9925 11.0417C15.3377 11.0388 15.6198 11.3162 15.6228 11.6614Z" fill="#636363"/>
</svg>
