<svg width="16" height="17" viewBox="0 0 16 17" fill="none" xmlns="http://www.w3.org/2000/svg">
<path d="M5.97563 13.1072L6.43994 12.5182L5.97563 13.1072ZM8.00114 4.16703L7.46077 4.68713C7.60216 4.83402 7.79726 4.91703 8.00114 4.91703C8.20502 4.91703 8.40012 4.83402 8.5415 4.68713L8.00114 4.16703ZM10.0267 13.1072L10.491 13.6962L10.0267 13.1072ZM6.43994 12.5182C5.41467 11.71 4.33749 10.9524 3.48026 9.98711C2.64874 9.05079 2.08447 7.97825 2.08447 6.59134H0.584473C0.584473 8.44638 1.36002 9.85861 2.35869 10.9831C3.33165 12.0787 4.57505 12.9581 5.51131 13.6962L6.43994 12.5182ZM2.08447 6.59134C2.08447 5.25096 2.84149 4.13989 3.85464 3.67677C4.82051 3.23527 6.15277 3.32816 7.46077 4.68713L8.5415 3.64693C6.84961 1.88911 4.84854 1.57318 3.23105 2.31254C1.66084 3.03029 0.584473 4.68976 0.584473 6.59134H2.08447ZM5.51131 13.6962C5.8505 13.9636 6.23054 14.2617 6.61956 14.4891C7.00833 14.7162 7.47741 14.9166 8.00114 14.9166V13.4166C7.8582 13.4166 7.66061 13.3601 7.37634 13.194C7.09232 13.028 6.79293 12.7965 6.43994 12.5182L5.51131 13.6962ZM10.491 13.6962C11.4272 12.9581 12.6706 12.0787 13.6436 10.9831C14.6423 9.85861 15.4178 8.44638 15.4178 6.59134H13.9178C13.9178 7.97825 13.3535 9.05079 12.522 9.98711C11.6648 10.9524 10.5876 11.71 9.56234 12.5182L10.491 13.6962ZM15.4178 6.59134C15.4178 4.68976 14.3414 3.03029 12.7712 2.31254C11.1537 1.57318 9.15267 1.88911 7.46077 3.64693L8.5415 4.68713C9.8495 3.32816 11.1818 3.23527 12.1476 3.67677C13.1608 4.13989 13.9178 5.25096 13.9178 6.59134H15.4178ZM9.56234 12.5182C9.20935 12.7965 8.90996 13.028 8.62593 13.194C8.34166 13.3601 8.14407 13.4166 8.00114 13.4166V14.9166C8.52487 14.9166 8.99395 14.7162 9.38272 14.4891C9.77174 14.2617 10.1518 13.9636 10.491 13.6962L9.56234 12.5182Z" fill="#636363"/>
</svg>
