<svg width="17" height="18" viewBox="0 0 17 18" fill="none" xmlns="http://www.w3.org/2000/svg">
<path fill-rule="evenodd" clip-rule="evenodd" d="M13.686 1.29377C13.1547 1.38832 12.4554 1.61972 11.4352 1.95979L8.1019 3.0709C7.53821 3.25879 7.16554 3.38401 6.891 3.51173C6.63104 3.63266 6.51864 3.72999 6.44662 3.82991C6.37461 3.92983 6.31781 4.06723 6.28529 4.35211C6.25094 4.65295 6.25 5.04609 6.25 5.64025V7.37058L15 4.45391C14.9999 3.41925 14.9966 2.70464 14.9201 2.18329C14.8439 1.66393 14.7134 1.47692 14.5674 1.37172C14.4214 1.26651 14.2027 1.20179 13.686 1.29377ZM16.2418 3.23772C16.2316 2.7673 16.2086 2.35474 16.1569 2.00191C16.06 1.34136 15.8445 0.751329 15.2983 0.357669C14.7521 -0.0360019 14.1242 -0.0538768 13.4669 0.0631092C12.8347 0.175629 12.0482 0.437829 11.0882 0.757829L7.6737 1.89601C7.15172 2.06998 6.71062 2.217 6.36376 2.37836C5.99506 2.54988 5.67515 2.76246 5.43257 3.09902C5.18999 3.43558 5.08948 3.8063 5.04336 4.21032C5.0198 4.41664 5.00904 4.64798 5.00412 4.90439H5V5.53703C5 5.55973 5 5.58258 5 5.60558V11.5708C4.47771 11.1785 3.8285 10.9461 3.125 10.9461C1.39911 10.9461 0 12.3452 0 14.0711C0 15.7969 1.39911 17.1961 3.125 17.1961C4.85089 17.1961 6.25 15.7969 6.25 14.0711V8.68819L15 5.77153V9.9042C14.4777 9.5119 13.8285 9.2794 13.125 9.2794C11.3991 9.2794 10 10.6785 10 12.4044C10 14.1303 11.3991 15.5294 13.125 15.5294C14.8509 15.5294 16.25 14.1303 16.25 12.4044V4.4782C16.25 4.44846 16.25 4.41888 16.25 4.38946V3.23772H16.2418ZM15 12.4044C15 11.3689 14.1605 10.5294 13.125 10.5294C12.0895 10.5294 11.25 11.3689 11.25 12.4044C11.25 13.4399 12.0895 14.2794 13.125 14.2794C14.1605 14.2794 15 13.4399 15 12.4044ZM5 14.0711C5 13.0355 4.16053 12.1961 3.125 12.1961C2.08947 12.1961 1.25 13.0355 1.25 14.0711C1.25 15.1066 2.08947 15.9461 3.125 15.9461C4.16053 15.9461 5 15.1066 5 14.0711Z" fill="#F8F8F8"/>
</svg>
