<svg width="20" height="20" viewBox="0 0 20 20" fill="none" xmlns="http://www.w3.org/2000/svg">
<path fill-rule="evenodd" clip-rule="evenodd" d="M7.87587 2.70831H7.95738C9.29261 2.7083 10.3504 2.70829 11.1873 2.80721C12.0464 2.90877 12.7536 3.12197 13.3444 3.60681C13.5449 3.7713 13.7286 3.95508 13.8931 4.15551C14.378 4.7463 14.5912 5.45355 14.6927 6.31269C14.7156 6.5058 14.7331 6.71068 14.7466 6.92801C15.4016 6.60158 15.9567 6.33336 16.4193 6.18199C16.9621 6.00435 17.538 5.93266 18.069 6.26089C18.6001 6.58911 18.7935 7.1362 18.8774 7.7012C18.9583 8.24629 18.9583 8.96433 18.9583 9.82701V10.173C18.9583 11.0356 18.9583 11.7537 18.8774 12.2988C18.7935 12.8638 18.6001 13.4109 18.069 13.7391C17.538 14.0673 16.9621 13.9956 16.4193 13.818C15.9567 13.6666 15.4016 13.3984 14.7466 13.072C14.7331 13.2893 14.7156 13.4942 14.6927 13.6873C14.5912 14.5464 14.378 15.2537 13.8931 15.8445C13.7286 16.0449 13.5449 16.2287 13.3444 16.3931C12.7536 16.878 12.0464 17.0912 11.1873 17.1927C10.3504 17.2917 9.29262 17.2917 7.95742 17.2916H7.87584C6.54063 17.2917 5.48284 17.2917 4.646 17.1927C3.78686 17.0912 3.07961 16.878 2.48882 16.3931C2.28839 16.2287 2.10461 16.0449 1.94013 15.8445C1.45528 15.2537 1.24208 14.5464 1.14053 13.6873C1.04161 12.8504 1.04162 11.7926 1.04163 10.4574V9.54255C1.04162 8.20733 1.04161 7.14954 1.14053 6.31269C1.24208 5.45355 1.45528 4.7463 1.94013 4.15551C2.10461 3.95508 2.28839 3.7713 2.48882 3.60681C3.07961 3.12197 3.78686 2.90877 4.646 2.80721C5.48285 2.70829 6.54065 2.7083 7.87587 2.70831ZM13.5416 10.4166V9.58331C13.5416 8.19822 13.5406 7.21435 13.4514 6.45942C13.3638 5.71829 13.1986 5.27967 12.9269 4.9485C12.8143 4.81136 12.6886 4.68562 12.5514 4.57308C12.2203 4.30129 11.7816 4.13618 11.0405 4.04857C10.2856 3.95934 9.30172 3.95831 7.91663 3.95831C6.53153 3.95831 5.54766 3.95934 4.79273 4.04857C4.0516 4.13618 3.61298 4.30129 3.28181 4.57308C3.14468 4.68562 3.01893 4.81136 2.90639 4.9485C2.63461 5.27967 2.46949 5.71829 2.38188 6.45942C2.29265 7.21435 2.29163 8.19822 2.29163 9.58331V10.4166C2.29163 11.8017 2.29265 12.7856 2.38188 13.5405C2.46949 14.2817 2.63461 14.7203 2.90639 15.0515C3.01893 15.1886 3.14468 15.3143 3.28181 15.4269C3.61298 15.6987 4.0516 15.8638 4.79273 15.9514C5.54766 16.0406 6.53153 16.0416 7.91663 16.0416C9.30172 16.0416 10.2856 16.0406 11.0405 15.9514C11.7816 15.8638 12.2203 15.6987 12.5514 15.4269C12.6886 15.3143 12.8143 15.1886 12.9269 15.0515C13.1986 14.7203 13.3638 14.2817 13.4514 13.5405C13.5406 12.7856 13.5416 11.8017 13.5416 10.4166ZM14.7916 11.697L14.9948 11.7986C15.8243 12.2134 16.3831 12.4909 16.808 12.63C17.2241 12.7661 17.3501 12.7139 17.4119 12.6758C17.4736 12.6376 17.5767 12.5482 17.641 12.1152C17.7066 11.673 17.7083 11.049 17.7083 10.1216V9.8784C17.7083 8.951 17.7066 8.32701 17.641 7.8848C17.5767 7.45171 17.4736 7.36237 17.4119 7.3242C17.3501 7.28603 17.2241 7.23384 16.808 7.37C16.3831 7.50903 15.8243 7.7866 14.9948 8.20135L14.7916 8.30292V9.47206C14.7916 9.49547 14.7916 9.51897 14.7916 9.54255V10.4574C14.7916 10.481 14.7916 10.5045 14.7916 10.5279V11.697Z" fill="#A9A8AA"/>
</svg>
