<svg width="24" height="24" viewBox="0 0 24 24" fill="none" xmlns="http://www.w3.org/2000/svg">
<g clip-path="url(#clip0_8_1546)">
<path d="M24 12.0729C24 5.44545 18.6274 0.072876 12 0.072876C5.37258 0.072876 0 5.44545 0 12.0729C0 18.0624 4.38825 23.0269 10.125 23.9271V15.5416H7.07812V12.0729H10.125V9.42913C10.125 6.42163 11.9165 4.76038 14.6576 4.76038C15.9705 4.76038 17.3438 4.99475 17.3438 4.99475V7.94788H15.8306C14.3399 7.94788 13.875 8.87286 13.875 9.82185V12.0729H17.2031L16.6711 15.5416H13.875V23.9271C19.6118 23.0269 24 18.0624 24 12.0729Z" fill="#3684B3"/>
</g>
<defs>
<clipPath id="clip0_8_1546">
<rect width="24" height="24" fill="white"/>
</clipPath>
</defs>
</svg>
