<svg width="32" height="32" viewBox="0 0 32 32" fill="none" xmlns="http://www.w3.org/2000/svg">
<path fill-rule="evenodd" clip-rule="evenodd" d="M1.66663 16C1.66663 8.08394 8.08388 1.66669 16 1.66669C16.3844 1.66669 16.7347 1.88703 16.9013 2.2335C17.0678 2.57996 17.021 2.99121 16.7808 3.29138L14.1142 6.62472C13.7692 7.05598 13.1399 7.1259 12.7086 6.78089C12.2773 6.43588 12.2074 5.80659 12.5524 5.37533L13.7565 3.87024C8.01614 4.92517 3.66663 9.95466 3.66663 16C3.66663 22.8115 9.18845 28.3334 16 28.3334C22.8115 28.3334 28.3333 22.8115 28.3333 16C28.3333 10.9441 25.2909 6.59658 20.9329 4.69249C20.4268 4.47137 20.1958 3.88185 20.4169 3.37577C20.6381 2.86968 21.2276 2.63867 21.7337 2.85978C26.7938 5.07067 30.3333 10.1209 30.3333 16C30.3333 23.9161 23.916 30.3334 16 30.3334C8.08388 30.3334 1.66663 23.9161 1.66663 16ZM13.7665 10.4321C14.1129 10.5986 14.3333 10.949 14.3333 11.3334V20.6667C14.3333 21.219 13.8856 21.6667 13.3333 21.6667C12.781 21.6667 12.3333 21.219 12.3333 20.6667V13.414L10.6247 14.7809C10.1934 15.1259 9.5641 15.056 9.21909 14.6247C8.87408 14.1935 8.944 13.5642 9.37527 13.2192L12.7086 10.5525C13.0088 10.3124 13.42 10.2655 13.7665 10.4321ZM19 12.3334C18.2636 12.3334 17.6666 12.9303 17.6666 13.6667V18.3334C17.6666 19.0697 18.2636 19.6667 19 19.6667C19.7363 19.6667 20.3333 19.0697 20.3333 18.3334V13.6667C20.3333 12.9303 19.7363 12.3334 19 12.3334ZM15.6666 13.6667C15.6666 11.8257 17.159 10.3334 19 10.3334C20.8409 10.3334 22.3333 11.8257 22.3333 13.6667V18.3334C22.3333 20.1743 20.8409 21.6667 19 21.6667C17.159 21.6667 15.6666 20.1743 15.6666 18.3334V13.6667Z" fill="#636363"/>
</svg>
