<svg width="20" height="20" viewBox="0 0 20 20" fill="none" xmlns="http://www.w3.org/2000/svg">
<path d="M14.6875 3.74998C14.3631 3.74952 14.0427 3.82187 13.75 3.9617V3.43748C13.7502 2.91611 13.5641 2.41182 13.2254 2.01547C12.8867 1.61912 12.4176 1.35679 11.9025 1.27574C11.3875 1.1947 10.8605 1.30026 10.4164 1.57342C9.97229 1.84659 9.64038 2.26938 9.48044 2.76561C9.14732 2.58492 8.77297 2.49387 8.39407 2.50139C8.01518 2.50891 7.64473 2.61473 7.31904 2.8085C6.99335 3.00226 6.72358 3.27731 6.53617 3.6067C6.34877 3.93608 6.25014 4.30851 6.24997 4.68748V9.68748L5.95154 9.20858C5.66166 8.70833 5.18554 8.34319 4.62724 8.19296C4.06894 8.04274 3.47387 8.11964 2.97211 8.40686C2.47034 8.69409 2.10269 9.16827 1.94951 9.72577C1.79634 10.2833 1.87009 10.8787 2.15466 11.382C3.40466 14.0203 4.41482 15.8914 5.57029 17.0609C6.73747 18.2453 8.06247 18.75 9.99997 18.75C11.8227 18.7479 13.5702 18.0229 14.859 16.7341C16.1479 15.4452 16.8729 13.6977 16.875 11.875V5.93748C16.875 5.35732 16.6445 4.80092 16.2343 4.39068C15.824 3.98045 15.2676 3.74998 14.6875 3.74998ZM15.625 11.875C15.6233 13.3663 15.0302 14.7961 13.9756 15.8506C12.9211 16.9052 11.4913 17.4983 9.99997 17.5C8.40779 17.5 7.38201 17.1187 6.45857 16.1836C5.42497 15.1359 4.47341 13.3594 3.27341 10.8265C3.26638 10.811 3.25856 10.7959 3.24997 10.7812C3.12565 10.5658 3.09199 10.3099 3.15638 10.0697C3.22077 9.82948 3.37795 9.62469 3.59333 9.50037C3.80872 9.37605 4.06467 9.34238 4.30488 9.40678C4.54508 9.47117 4.74987 9.62835 4.87419 9.84373C4.87737 9.84999 4.88103 9.856 4.88513 9.8617L6.34372 12.2054C6.41538 12.3211 6.52279 12.4102 6.64966 12.4592C6.77654 12.5082 6.91595 12.5145 7.04673 12.4772C7.17751 12.4398 7.29253 12.3607 7.37433 12.2521C7.45613 12.1434 7.50024 12.011 7.49997 11.875V4.68748C7.49997 4.43884 7.59875 4.20038 7.77456 4.02457C7.95038 3.84875 8.18883 3.74998 8.43747 3.74998C8.68611 3.74998 8.92457 3.84875 9.10039 4.02457C9.2762 4.20038 9.37497 4.43884 9.37497 4.68748V9.37498C9.37497 9.54074 9.44082 9.69971 9.55803 9.81692C9.67524 9.93413 9.83421 9.99998 9.99997 9.99998C10.1657 9.99998 10.3247 9.93413 10.4419 9.81692C10.5591 9.69971 10.625 9.54074 10.625 9.37498V3.43748C10.625 3.18884 10.7237 2.95038 10.8996 2.77457C11.0754 2.59875 11.3138 2.49998 11.5625 2.49998C11.8111 2.49998 12.0496 2.59875 12.2254 2.77457C12.4012 2.95038 12.5 3.18884 12.5 3.43748V9.37498C12.5 9.54074 12.5658 9.69971 12.683 9.81692C12.8002 9.93413 12.9592 9.99998 13.125 9.99998C13.2907 9.99998 13.4497 9.93413 13.5669 9.81692C13.6841 9.69971 13.75 9.54074 13.75 9.37498V5.93748C13.75 5.68884 13.8487 5.45038 14.0246 5.27457C14.2004 5.09875 14.4388 4.99998 14.6875 4.99998C14.9361 4.99998 15.1746 5.09875 15.3504 5.27457C15.5262 5.45038 15.625 5.68884 15.625 5.93748V11.875Z" fill="white"/>
</svg>
