<svg width="20" height="20" viewBox="0 0 20 20" fill="none" xmlns="http://www.w3.org/2000/svg">
<path fill-rule="evenodd" clip-rule="evenodd" d="M9.94108 2.29189C6.60842 2.265 3.93156 4.94185 3.95845 8.27452C3.98541 11.6151 6.71822 14.3479 10.0588 14.3748C13.3914 14.4017 16.0683 11.7249 16.0414 8.39219C16.0144 5.05165 13.2816 2.31885 9.94108 2.29189ZM2.70849 8.2846C2.67597 4.25371 5.92028 1.0094 9.95117 1.04193C13.9742 1.07439 17.2589 4.3591 17.2913 8.38211C17.3188 11.7818 15.0153 14.6219 11.8749 15.4086V16.2682C11.8749 16.4467 11.8749 16.6108 11.8655 16.7485C11.8554 16.8966 11.8324 17.0593 11.7639 17.2248C11.6159 17.5821 11.332 17.866 10.9747 18.014C10.8552 18.0635 10.7371 18.0892 10.6249 18.1035V18.3334C10.6249 18.6785 10.3451 18.9584 9.99992 18.9584C9.65474 18.9584 9.37492 18.6785 9.37492 18.3334V18.1035C9.26275 18.0892 9.14465 18.0635 9.02517 18.014C8.66784 17.866 8.38394 17.5821 8.23593 17.2248C8.16741 17.0593 8.1444 16.8966 8.1343 16.7485C8.1249 16.6108 8.12491 16.4467 8.12492 16.2682L8.12492 15.3533C5.0283 14.4858 2.73559 11.6424 2.70849 8.2846ZM9.37492 15.5886V16.25C9.37492 16.4527 9.37526 16.5734 9.3814 16.6634C9.3852 16.7191 9.39028 16.7428 9.39184 16.7489C9.4129 16.798 9.45198 16.837 9.50101 16.8581C9.50714 16.8597 9.53081 16.8647 9.5865 16.8685C9.67651 16.8747 9.79723 16.875 9.99992 16.875C10.2026 16.875 10.3233 16.8747 10.4133 16.8685C10.469 16.8647 10.4927 16.8597 10.4988 16.8581C10.5479 16.837 10.5869 16.798 10.608 16.7489C10.6096 16.7428 10.6146 16.7191 10.6184 16.6634C10.6246 16.5734 10.6249 16.4527 10.6249 16.25V15.607C10.4348 15.6203 10.2427 15.6263 10.0487 15.6248C9.82158 15.6229 9.59685 15.6108 9.37492 15.5886ZM11.145 5.38077C11.395 5.61882 11.4046 6.01443 11.1666 6.26439L9.79135 7.70835H11.6664C11.9164 7.70835 12.1423 7.85735 12.2408 8.08715C12.3393 8.31696 12.2914 8.58334 12.1189 8.76439L9.73799 11.2644C9.49993 11.5143 9.10432 11.524 8.85437 11.2859C8.60441 11.0479 8.59476 10.6523 8.83281 10.4023L10.208 8.95835H8.33302C8.083 8.95835 7.85704 8.80936 7.75855 8.57955C7.66007 8.34975 7.70801 8.08337 7.88043 7.90232L10.2614 5.40232C10.4994 5.15236 10.8951 5.14271 11.145 5.38077Z" fill="white"/>
</svg>
