<svg width="20" height="20" viewBox="0 0 20 20" fill="none" xmlns="http://www.w3.org/2000/svg">
<path d="M18.3843 14.0625L15.5531 11.2305L12.7046 1.83282C12.6237 1.56522 12.478 1.32172 12.2805 1.12388C12.0829 0.926049 11.8396 0.779985 11.5722 0.69863C11.3047 0.617276 11.0213 0.603143 10.747 0.657483C10.4728 0.711823 10.2162 0.832959 9.99996 1.01016C9.78372 0.832959 9.52711 0.711823 9.25287 0.657483C8.97863 0.603143 8.69522 0.617276 8.42775 0.69863C8.16028 0.779985 7.917 0.926049 7.71946 1.12388C7.52192 1.32172 7.37622 1.56522 7.29527 1.83282L4.44683 11.2313L1.61558 14.0625C1.38134 14.2969 1.24976 14.6147 1.24976 14.9461C1.24976 15.2775 1.38134 15.5953 1.61558 15.8297L4.16949 18.3836C4.28557 18.4997 4.42338 18.5918 4.57505 18.6546C4.72673 18.7175 4.8893 18.7498 5.05347 18.7498C5.21765 18.7498 5.38022 18.7175 5.53189 18.6546C5.68357 18.5918 5.82138 18.4997 5.93746 18.3836L9.70933 14.6094C9.8139 14.5046 9.91101 14.3926 9.99996 14.2742C10.0889 14.3926 10.186 14.5046 10.2906 14.6094L14.0625 18.3844C14.1785 18.5005 14.3163 18.5926 14.468 18.6554C14.6197 18.7183 14.7823 18.7506 14.9464 18.7506C15.1106 18.7506 15.2732 18.7183 15.4249 18.6554C15.5765 18.5926 15.7143 18.5005 15.8304 18.3844L18.3843 15.8305C18.5004 15.7144 18.5925 15.5766 18.6554 15.4249C18.7182 15.2732 18.7505 15.1107 18.7505 14.9465C18.7505 14.7823 18.7182 14.6197 18.6554 14.4681C18.5925 14.3164 18.5004 14.1786 18.3843 14.0625ZM5.05308 17.5L2.49996 14.9469L3.49136 13.9555L6.04527 16.5094L5.05308 17.5ZM9.37496 12.4023C9.37621 12.6489 9.32851 12.8932 9.23464 13.1212C9.14076 13.3492 9.00257 13.5563 8.82808 13.7305L6.92808 15.625L4.37496 13.0719L5.44136 12.0047C5.51414 11.9319 5.56781 11.8423 5.59761 11.7438L8.48824 2.19532C8.51756 2.08907 8.58473 1.99721 8.67709 1.93705C8.76945 1.8769 8.88062 1.8526 8.98965 1.86874C9.09869 1.88488 9.19805 1.94034 9.26902 2.02467C9.34 2.109 9.37768 2.21638 9.37496 2.32657V12.4023ZM11.1718 13.7305C10.9973 13.5563 10.8592 13.3492 10.7653 13.1212C10.6714 12.8932 10.6237 12.6489 10.625 12.4023V2.32422C10.625 2.21598 10.6639 2.11134 10.7346 2.02938C10.8053 1.94742 10.9031 1.89358 11.0102 1.87768C11.1172 1.86178 11.2265 1.88486 11.3179 1.94273C11.4094 2.0006 11.4771 2.08941 11.5086 2.19297L14.3992 11.7414C14.429 11.8399 14.4827 11.9296 14.5554 12.0023L15.6875 13.1344L13.0781 15.6344L11.1718 13.7305ZM14.9468 17.5L13.9656 16.518L16.5742 14.018L17.5 14.9469L14.9468 17.5Z" fill="white"/>
</svg>
