<svg width="20" height="14" viewBox="0 0 20 14" fill="none" xmlns="http://www.w3.org/2000/svg">
<path d="M16.25 2.625H1.875V0.75C1.875 0.58424 1.80915 0.425269 1.69194 0.308058C1.57473 0.190848 1.41576 0.125 1.25 0.125C1.08424 0.125 0.925268 0.190848 0.808058 0.308058C0.690848 0.425269 0.625 0.58424 0.625 0.75V13.25C0.625 13.4158 0.690848 13.5747 0.808058 13.6919C0.925268 13.8092 1.08424 13.875 1.25 13.875C1.41576 13.875 1.57473 13.8092 1.69194 13.6919C1.80915 13.5747 1.875 13.4158 1.875 13.25V10.75H18.125V13.25C18.125 13.4158 18.1908 13.5747 18.3081 13.6919C18.4253 13.8092 18.5842 13.875 18.75 13.875C18.9158 13.875 19.0747 13.8092 19.1919 13.6919C19.3092 13.5747 19.375 13.4158 19.375 13.25V5.75C19.375 4.9212 19.0458 4.12634 18.4597 3.54029C17.8737 2.95424 17.0788 2.625 16.25 2.625ZM1.875 3.875H7.5V9.5H1.875V3.875ZM8.75 9.5V3.875H16.25C16.7473 3.875 17.2242 4.07254 17.5758 4.42417C17.9275 4.77581 18.125 5.25272 18.125 5.75V9.5H8.75Z" fill="white"/>
</svg>
