<svg width="32" height="32" viewBox="0 0 32 32" fill="none" xmlns="http://www.w3.org/2000/svg">
<path d="M16 17.6667C16.5523 17.6667 17 18.1144 17 18.6667V24C17 24.5523 16.5523 25 16 25C15.4477 25 15 24.5523 15 24V18.6667C15 18.1144 15.4477 17.6667 16 17.6667Z" fill="white"/>
<path fill-rule="evenodd" clip-rule="evenodd" d="M7.00002 12.4037V10.6667C7.00002 5.69611 11.0295 1.66667 16 1.66667C20.9706 1.66667 25 5.69611 25 10.6667V12.4037C25.3025 12.425 25.5875 12.4526 25.8557 12.4887C27.0558 12.6501 28.0663 12.9953 28.8689 13.7978C29.6714 14.6004 30.0166 15.6109 30.178 16.811C30.3334 17.967 30.3334 19.4367 30.3334 21.2602V21.4065C30.3334 23.23 30.3334 24.6997 30.178 25.8557C30.0166 27.0558 29.6714 28.0663 28.8689 28.8689C28.0663 29.6714 27.0558 30.0166 25.8557 30.178C24.6997 30.3334 23.23 30.3334 21.4065 30.3333H10.5935C8.77008 30.3334 7.30031 30.3334 6.14435 30.178C4.94421 30.0166 3.93371 29.6714 3.13116 28.8689C2.3286 28.0663 1.98341 27.0558 1.82205 25.8557C1.66664 24.6997 1.66666 23.23 1.66669 21.4065V21.2602C1.66666 19.4367 1.66664 17.967 1.82205 16.811C1.98341 15.6109 2.3286 14.6004 3.13116 13.7978C3.93371 12.9953 4.94421 12.6501 6.14435 12.4887C6.41252 12.4526 6.69758 12.425 7.00002 12.4037ZM9.00002 10.6667C9.00002 6.80068 12.134 3.66667 16 3.66667C19.866 3.66667 23 6.80068 23 10.6667V12.3379C22.502 12.3333 21.9712 12.3333 21.4065 12.3333H10.5935C10.0288 12.3333 9.49806 12.3333 9.00002 12.3379V10.6667ZM6.41085 14.4709C5.43248 14.6024 4.91439 14.843 4.54537 15.212C4.17635 15.581 3.93576 16.0991 3.80422 17.0775C3.66881 18.0846 3.66669 19.4195 3.66669 21.3333C3.66669 23.2472 3.66881 24.582 3.80422 25.5892C3.93576 26.5675 4.17635 27.0856 4.54537 27.4547C4.91439 27.8237 5.43248 28.0643 6.41085 28.1958C7.41798 28.3312 8.7528 28.3333 10.6667 28.3333H21.3334C23.2472 28.3333 24.5821 28.3312 25.5892 28.1958C26.5676 28.0643 27.0857 27.8237 27.4547 27.4547C27.8237 27.0856 28.0643 26.5675 28.1958 25.5892C28.3312 24.582 28.3334 23.2472 28.3334 21.3333C28.3334 19.4195 28.3312 18.0846 28.1958 17.0775C28.0643 16.0991 27.8237 15.581 27.4547 15.212C27.0857 14.843 26.5676 14.6024 25.5892 14.4709C24.5821 14.3355 23.2472 14.3333 21.3334 14.3333H10.6667C8.7528 14.3333 7.41798 14.3355 6.41085 14.4709Z" fill="white"/>
</svg>
