<svg width="27" height="26" viewBox="0 0 27 26" fill="none" xmlns="http://www.w3.org/2000/svg">
<path d="M13.5 0C10.9288 0 8.41543 0.762437 6.27759 2.1909C4.13975 3.61935 2.47351 5.64968 1.48957 8.02512C0.505633 10.4006 0.248189 13.0144 0.749797 15.5362C1.25141 18.0579 2.48953 20.3743 4.30762 22.1924C6.1257 24.0105 8.44208 25.2486 10.9638 25.7502C13.4856 26.2518 16.0995 25.9944 18.4749 25.0104C20.8503 24.0265 22.8807 22.3603 24.3091 20.2224C25.7376 18.0846 26.5 15.5712 26.5 13C26.4964 9.5533 25.1256 6.24882 22.6884 3.81163C20.2512 1.37445 16.9467 0.00363977 13.5 0ZM13.5 24C11.3244 24 9.19767 23.3549 7.38873 22.1462C5.57979 20.9375 4.16989 19.2195 3.33733 17.2095C2.50477 15.1995 2.28693 12.9878 2.71137 10.854C3.13581 8.72022 4.18345 6.7602 5.72183 5.22183C7.26021 3.68345 9.22022 2.6358 11.354 2.21136C13.4878 1.78692 15.6995 2.00476 17.7095 2.83733C19.7195 3.66989 21.4375 5.07979 22.6462 6.88873C23.8549 8.69767 24.5 10.8244 24.5 13C24.4967 15.9164 23.3367 18.7123 21.2745 20.7745C19.2123 22.8367 16.4164 23.9967 13.5 24ZM21.2075 12.2925C21.3004 12.3854 21.3741 12.4957 21.4244 12.6171C21.4747 12.7385 21.5006 12.8686 21.5006 13C21.5006 13.1314 21.4747 13.2615 21.4244 13.3829C21.3741 13.5043 21.3004 13.6146 21.2075 13.7075C21.1146 13.8004 21.0043 13.8741 20.8829 13.9244C20.7615 13.9747 20.6314 14.0006 20.5 14.0006C20.3686 14.0006 20.2385 13.9747 20.1171 13.9244C19.9957 13.8741 19.8854 13.8004 19.7925 13.7075L18.5 12.4137L17.2075 13.7075C17.0199 13.8951 16.7654 14.0006 16.5 14.0006C16.2346 14.0006 15.9801 13.8951 15.7925 13.7075C15.6049 13.5199 15.4994 13.2654 15.4994 13C15.4994 12.7346 15.6049 12.4801 15.7925 12.2925L17.0863 11L15.7925 9.7075C15.6049 9.51986 15.4994 9.26536 15.4994 9C15.4994 8.73464 15.6049 8.48014 15.7925 8.2925C15.9801 8.10486 16.2346 7.99944 16.5 7.99944C16.7654 7.99944 17.0199 8.10486 17.2075 8.2925L18.5 9.58625L19.7925 8.2925C19.8854 8.19959 19.9957 8.12589 20.1171 8.07561C20.2385 8.02532 20.3686 7.99944 20.5 7.99944C20.6314 7.99944 20.7615 8.02532 20.8829 8.07561C21.0043 8.12589 21.1146 8.19959 21.2075 8.2925C21.3004 8.38541 21.3741 8.49571 21.4244 8.6171C21.4747 8.7385 21.5006 8.86861 21.5006 9C21.5006 9.13139 21.4747 9.2615 21.4244 9.3829C21.3741 9.50429 21.3004 9.61459 21.2075 9.7075L19.9138 11L21.2075 12.2925ZM11.2075 9.7075L9.91376 11L11.2075 12.2925C11.3951 12.4801 11.5006 12.7346 11.5006 13C11.5006 13.2654 11.3951 13.5199 11.2075 13.7075C11.0199 13.8951 10.7654 14.0006 10.5 14.0006C10.2346 14.0006 9.98015 13.8951 9.79251 13.7075L8.50001 12.4137L7.20751 13.7075C7.01987 13.8951 6.76537 14.0006 6.50001 14.0006C6.23464 14.0006 5.98015 13.8951 5.79251 13.7075C5.60486 13.5199 5.49945 13.2654 5.49945 13C5.49945 12.7346 5.60486 12.4801 5.79251 12.2925L7.08626 11L5.79251 9.7075C5.60486 9.51986 5.49945 9.26536 5.49945 9C5.49945 8.73464 5.60486 8.48014 5.79251 8.2925C5.98015 8.10486 6.23464 7.99944 6.50001 7.99944C6.76537 7.99944 7.01987 8.10486 7.20751 8.2925L8.50001 9.58625L9.79251 8.2925C9.98015 8.10486 10.2346 7.99944 10.5 7.99944C10.7654 7.99944 11.0199 8.10486 11.2075 8.2925C11.3951 8.48014 11.5006 8.73464 11.5006 9C11.5006 9.26536 11.3951 9.51986 11.2075 9.7075ZM15 19.5C15 19.7967 14.912 20.0867 14.7472 20.3334C14.5824 20.58 14.3481 20.7723 14.074 20.8858C13.7999 20.9993 13.4983 21.0291 13.2074 20.9712C12.9164 20.9133 12.6491 20.7704 12.4393 20.5607C12.2296 20.3509 12.0867 20.0836 12.0288 19.7926C11.9709 19.5017 12.0007 19.2001 12.1142 18.926C12.2277 18.6519 12.42 18.4176 12.6667 18.2528C12.9133 18.088 13.2033 18 13.5 18C13.8978 18 14.2794 18.158 14.5607 18.4393C14.842 18.7206 15 19.1022 15 19.5Z" fill="#2D2D2D"/>
</svg>
