<svg width="20" height="20" viewBox="0 0 20 20" fill="none" xmlns="http://www.w3.org/2000/svg">
<path fill-rule="evenodd" clip-rule="evenodd" d="M2.6085 0.0215762C2.2002 0.101606 2.07511 0.135619 1.85796 0.223653C0.976326 0.581788 0.307846 1.36108 0.0626705 2.31745C-0.0203891 2.64457 -0.0213898 17.3541 0.0626705 17.6803C0.345874 18.7837 1.10142 19.557 2.24824 19.9161C2.41836 19.9701 2.80264 19.9811 4.78306 19.9941C7.43396 20.0101 7.38292 20.0151 7.69214 19.706C7.78537 19.6145 7.85944 19.5053 7.91003 19.3849C7.96062 19.2644 7.98672 19.1351 7.98682 19.0045C7.98691 18.8738 7.96099 18.7445 7.91057 18.624C7.86015 18.5035 7.78624 18.3942 7.69314 18.3025C7.39093 18.0004 7.41895 18.0034 4.99021 18.0034C2.56146 18.0034 2.58948 18.0064 2.28727 17.7043C1.96303 17.3802 1.98805 18.0294 1.99005 9.98335C1.99105 4.10212 2.00106 2.79062 2.04509 2.66758C2.12415 2.44649 2.28627 2.25342 2.49942 2.12837L2.68855 2.01733L4.97019 1.99732L7.25183 1.97732L7.44196 1.88328C8.0434 1.58717 8.17249 0.774861 7.69314 0.29568C7.38893 -0.00843525 7.42996 -0.00443366 4.91315 0.00156861C4.14488 -0.00187483 3.37659 0.00479492 2.6085 0.0215762ZM13.6394 4.06711C13.2872 4.19115 12.9959 4.61231 12.9959 4.99846C12.9959 5.07849 13.025 5.23255 13.061 5.34159C13.12 5.51866 13.3052 5.71773 14.8513 7.26932L16.5765 8.99998H11.711C6.2421 8.99998 6.60937 8.97997 6.29014 9.29909C6.19713 9.39068 6.12327 9.49985 6.07285 9.62024C6.02244 9.74063 5.99647 9.86984 5.99647 10.0004C5.99647 10.1309 6.02244 10.2601 6.07285 10.3805C6.12327 10.5009 6.19713 10.61 6.29014 10.7016C6.60937 11.0207 6.2421 11.0007 11.711 11.0007H16.5765L14.8513 12.7314C13.3052 14.283 13.12 14.4821 13.061 14.6591C12.9319 15.0483 13.017 15.4254 13.2952 15.7035C13.5734 15.9816 13.9496 16.0667 14.3399 15.9376C14.519 15.8786 14.7802 15.6305 17.1729 13.2466C20.039 10.3915 20 10.4365 20 10.0004C20 9.56419 20.039 9.60921 17.1729 6.75413C14.7802 4.37022 14.519 4.12213 14.3399 4.06311C14.1131 3.98282 13.8653 3.98423 13.6394 4.06711Z" fill="white"/>
</svg>
