<svg width="26" height="26" viewBox="0 0 26 26" fill="none" xmlns="http://www.w3.org/2000/svg">
<path d="M8.50001 16C8.20333 16 7.91332 15.912 7.66665 15.7472C7.41998 15.5824 7.22772 15.3481 7.11419 15.074C7.00065 14.7999 6.97095 14.4983 7.02883 14.2074C7.08671 13.9164 7.22957 13.6491 7.43935 13.4393C7.64912 13.2296 7.9164 13.0867 8.20737 13.0288C8.49834 12.9709 8.79994 13.0007 9.07403 13.1142C9.34812 13.2277 9.58239 13.42 9.74721 13.6666C9.91203 13.9133 10 14.2033 10 14.5C10 14.8978 9.84197 15.2794 9.56067 15.5607C9.27936 15.842 8.89783 16 8.50001 16ZM17.5 13C17.2033 13 16.9133 13.088 16.6667 13.2528C16.42 13.4176 16.2277 13.6519 16.1142 13.926C16.0007 14.2001 15.9709 14.5017 16.0288 14.7926C16.0867 15.0836 16.2296 15.3509 16.4393 15.5607C16.6491 15.7704 16.9164 15.9133 17.2074 15.9712C17.4983 16.0291 17.7999 15.9993 18.074 15.8858C18.3481 15.7723 18.5824 15.58 18.7472 15.3334C18.912 15.0867 19 14.7967 19 14.5C19 14.1022 18.842 13.7206 18.5607 13.4393C18.2794 13.158 17.8978 13 17.5 13ZM26 13C26 15.5712 25.2376 18.0846 23.8091 20.2224C22.3807 22.3603 20.3503 24.0265 17.9749 25.0104C15.5995 25.9944 12.9856 26.2518 10.4638 25.7502C7.94208 25.2486 5.6257 24.0105 3.80762 22.1924C1.98953 20.3743 0.751405 18.0579 0.249797 15.5362C-0.251811 13.0144 0.0056327 10.4006 0.989572 8.02512C1.97351 5.64968 3.63975 3.61935 5.77759 2.1909C7.91543 0.762437 10.4288 0 13 0C16.4467 0.00363977 19.7512 1.37445 22.1884 3.81163C24.6256 6.24882 25.9964 9.5533 26 13ZM24 13C24 10.8244 23.3549 8.69767 22.1462 6.88873C20.9375 5.07979 19.2195 3.66989 17.2095 2.83733C15.1995 2.00476 12.9878 1.78692 10.854 2.21136C8.72022 2.6358 6.76021 3.68345 5.22183 5.22183C3.68345 6.7602 2.63581 8.72022 2.21137 10.854C1.78693 12.9878 2.00477 15.1995 2.83733 17.2095C3.66989 19.2195 5.07979 20.9375 6.88873 22.1462C8.69767 23.3549 10.8244 24 13 24C15.9164 23.9967 18.7123 22.8367 20.7745 20.7745C22.8367 18.7123 23.9967 15.9164 24 13ZM18.445 7.1675L13 10.7987L7.55501 7.17375C7.33421 7.02655 7.06399 6.9731 6.80378 7.02514C6.54358 7.07718 6.3147 7.23046 6.16751 7.45125C6.02031 7.67204 5.96685 7.94227 6.0189 8.20247C6.07094 8.46268 6.22421 8.69155 6.44501 8.83875L12.445 12.8387C12.6093 12.9484 12.8025 13.0069 13 13.0069C13.1976 13.0069 13.3907 12.9484 13.555 12.8387L19.555 8.83875C19.7758 8.69155 19.9291 8.46268 19.9811 8.20247C20.0332 7.94227 19.9797 7.67204 19.8325 7.45125C19.6853 7.23046 19.4564 7.07718 19.1962 7.02514C18.936 6.9731 18.6658 7.02655 18.445 7.17375V7.1675ZM16.5538 19.1675C15.5 18.4662 14.4925 18 13 18C11.5075 18 10.5 18.4662 9.44626 19.1675C9.23051 19.3165 9.08192 19.5443 9.03248 19.8018C8.98304 20.0593 9.0367 20.3259 9.18191 20.5442C9.32712 20.7625 9.55227 20.915 9.80885 20.969C10.0654 21.0229 10.3329 20.9739 10.5538 20.8325C11.3663 20.2925 12 20 13 20C14 20 14.6338 20.2925 15.4463 20.8325C15.5555 20.908 15.6787 20.9609 15.8087 20.9882C15.9386 21.0156 16.0727 21.0168 16.2031 20.9917C16.3335 20.9667 16.4576 20.9159 16.5682 20.8424C16.6788 20.7689 16.7736 20.6741 16.8472 20.5635C16.9207 20.4529 16.9715 20.3288 16.9966 20.1984C17.0216 20.068 17.0205 19.9339 16.9932 19.804C16.9658 19.674 16.9129 19.5508 16.8375 19.4415C16.762 19.3323 16.6656 19.2391 16.5538 19.1675Z" fill="white"/>
</svg>
