<svg width="26" height="26" viewBox="0 0 26 26" fill="none" xmlns="http://www.w3.org/2000/svg">
<path d="M13 0C10.4288 0 7.91543 0.762437 5.77759 2.1909C3.63975 3.61935 1.97351 5.64968 0.989572 8.02512C0.0056327 10.4006 -0.251811 13.0144 0.249797 15.5362C0.751405 18.0579 1.98953 20.3743 3.80762 22.1924C5.6257 24.0105 7.94208 25.2486 10.4638 25.7502C12.9856 26.2518 15.5995 25.9944 17.9749 25.0104C20.3503 24.0265 22.3807 22.3603 23.8091 20.2224C25.2376 18.0846 26 15.5712 26 13C25.9964 9.5533 24.6256 6.24882 22.1884 3.81163C19.7512 1.37445 16.4467 0.00363977 13 0ZM13 24C10.8244 24 8.69767 23.3549 6.88873 22.1462C5.07979 20.9375 3.66989 19.2195 2.83733 17.2095C2.00477 15.1995 1.78693 12.9878 2.21137 10.854C2.63581 8.72022 3.68345 6.7602 5.22183 5.22183C6.76021 3.68345 8.72022 2.6358 10.854 2.21136C12.9878 1.78692 15.1995 2.00476 17.2095 2.83733C19.2195 3.66989 20.9375 5.07979 22.1462 6.88873C23.3549 8.69767 24 10.8244 24 13C23.9967 15.9164 22.8367 18.7123 20.7745 20.7745C18.7123 22.8367 15.9164 23.9967 13 24ZM10 10.5C10 10.7967 9.91203 11.0867 9.74721 11.3334C9.58239 11.58 9.34812 11.7723 9.07403 11.8858C8.79994 11.9994 8.49834 12.0291 8.20737 11.9712C7.9164 11.9133 7.64912 11.7704 7.43935 11.5607C7.22957 11.3509 7.08671 11.0836 7.02883 10.7926C6.97095 10.5017 7.00065 10.2001 7.11419 9.92597C7.22772 9.65189 7.41998 9.41762 7.66665 9.2528C7.91332 9.08797 8.20333 9 8.50001 9C8.89783 9 9.27936 9.15804 9.56067 9.43934C9.84197 9.72064 10 10.1022 10 10.5ZM19 10.5C19 10.7967 18.912 11.0867 18.7472 11.3334C18.5824 11.58 18.3481 11.7723 18.074 11.8858C17.7999 11.9994 17.4983 12.0291 17.2074 11.9712C16.9164 11.9133 16.6491 11.7704 16.4393 11.5607C16.2296 11.3509 16.0867 11.0836 16.0288 10.7926C15.9709 10.5017 16.0007 10.2001 16.1142 9.92597C16.2277 9.65189 16.42 9.41762 16.6667 9.2528C16.9133 9.08797 17.2033 9 17.5 9C17.8978 9 18.2794 9.15804 18.5607 9.43934C18.842 9.72064 19 10.1022 19 10.5Z" fill="#2D2D2D"/>
</svg>
