<svg width="118" height="118" viewBox="0 0 118 118" fill="none" xmlns="http://www.w3.org/2000/svg">
<path d="M51.3378 76.3452C47.4705 75.8679 45.0256 73.1578 43.5251 69.9033C41.2255 64.9156 41.2166 58.6824 41.2166 58.6811C41.2166 58.6729 41.2166 58.6647 41.2168 58.6565C41.217 58.6224 41.2179 58.5416 41.221 58.4194V42.0987C41.221 41.4432 41.7532 40.9109 42.4088 40.9109C43.0644 40.9109 43.5966 41.4432 43.5966 42.0987V47.2922C45.2084 43.8829 47.8767 41.1074 52.1605 40.9394C52.6171 40.3432 53.0985 39.7636 53.5801 39.1884C54.2672 38.368 54.9612 37.6181 55.6759 36.9135C57.3352 35.2807 59.1014 33.9036 61.1179 32.4844C62.6087 31.437 64.1755 30.512 65.8205 29.7099C66.4647 29.3971 68.4841 28.1998 69.6872 27.9071C69.7546 27.8921 69.7893 27.8504 69.7929 27.7828C69.7965 27.7155 69.7666 27.6704 69.701 27.6484C66.8773 26.7083 63.9222 26.0609 60.929 25.8995C57.5466 25.7165 54.4232 26.3635 51.1034 26.8848C48.6396 27.2734 46.2484 28.4237 43.9144 29.3415C39.4875 31.0788 35.1718 34.3879 32.4441 38.2082C31.1927 39.9603 29.6641 41.5327 28.7112 43.4733C28.0573 44.8048 27.3074 46.14 26.8476 47.5576C25.4678 51.8149 24.3333 55.8777 24.4719 60.3791C24.5238 62.2792 24.7447 64.1607 25.1333 66.0239C25.5234 67.8852 26.0755 69.7013 26.7904 71.4722C27.5069 73.241 28.3745 74.9375 29.3949 76.5603C30.4153 78.1828 31.573 79.708 32.8657 81.1358C34.0838 82.4845 35.5658 83.7759 36.883 85.0182C37.9798 86.0509 43.3088 88.8942 44.7509 89.4593C51.4246 92.0671 60.0992 92.5063 65.4962 91.9393C66.7507 91.8067 67.964 91.4248 69.1611 91.0367C69.2185 91.0198 69.246 90.9829 69.246 90.9238C69.2442 90.8666 69.2149 90.8313 69.1576 90.8162C68.2554 90.5773 66.7645 89.7215 66.2821 89.5028C65.3972 89.0977 64.5521 88.6152 63.6949 88.1662C61.897 87.2226 60.4674 85.8525 58.8064 84.719C57.8904 84.0936 57.0521 83.2361 56.2868 82.4203C54.4008 80.4116 52.7119 78.5362 51.3378 76.3452ZM50.3705 43.654C48.1267 44.4097 46.6646 46.3083 45.6807 48.4439C43.857 52.4022 43.6259 57.2229 43.5966 58.4043V58.6701C43.5966 58.7019 43.5953 58.7335 43.5928 58.7646C43.6021 59.4852 43.7363 64.6875 45.6825 68.9086C46.5843 70.8644 47.8872 72.6213 49.8247 73.4835C49.8107 73.4514 49.7969 73.4195 49.7831 73.3874C48.2856 69.858 47.3727 66.1904 47.043 62.3885C46.7481 59.1282 46.5153 55.9836 47.2945 52.8309C47.6313 51.4637 47.8116 50.0797 48.2229 48.7263C48.7465 46.9461 49.4628 45.2551 50.3705 43.654Z" fill="#EE5F64"/>
<path fill-rule="evenodd" clip-rule="evenodd" d="M61.5576 58.6806C61.5576 58.6817 61.5664 64.915 63.8661 69.9026C65.5211 73.4919 68.3244 76.4193 72.9187 76.4193C77.5126 76.4193 80.3159 73.4912 81.9701 69.9007C84.269 64.9112 84.2764 58.6756 84.2764 58.6756C84.2768 58.0201 83.7445 57.4878 83.0887 57.4878C82.4332 57.4878 81.9009 58.0201 81.9009 58.6756C81.9009 58.6756 81.9071 64.36 79.8123 68.9067C78.5376 71.6739 76.4598 74.0436 72.9187 74.0436C69.3776 74.0436 67.299 71.6746 66.0236 68.9082C63.9276 64.363 63.933 58.6798 63.933 58.6798C63.933 58.0243 63.4004 57.4923 62.7449 57.4923C62.0894 57.4927 61.5572 58.025 61.5576 58.6806Z" fill="#F8F5F2"/>
<path fill-rule="evenodd" clip-rule="evenodd" d="M84.2764 58.6699C84.2764 58.6688 84.2675 52.4355 81.9679 47.4478C80.3129 43.8585 77.5096 40.9312 72.9153 40.9312C68.3214 40.9312 65.5181 43.8593 63.8639 47.4497C61.565 52.4392 61.5576 58.6748 61.5576 58.6748C61.5572 59.3303 62.0894 59.8627 62.7453 59.8627C63.4008 59.8627 63.933 59.3303 63.933 58.6748C63.933 58.6748 63.9269 52.9905 66.0217 48.4438C67.2964 45.6766 69.3742 43.3069 72.9153 43.3069C76.4564 43.3069 78.535 45.6759 79.8104 48.4423C81.9064 52.9875 81.901 58.6707 81.901 58.6707C81.901 59.3262 82.4336 59.8582 83.0891 59.8582C83.7446 59.8578 84.2768 59.3254 84.2764 58.6699Z" fill="#F8F5F2"/>
<path d="M71.4087 90.4985C71.4815 90.5321 71.5593 90.5472 71.641 90.5437C71.721 90.5386 71.7974 90.5171 71.8649 90.4749C71.9342 90.4327 71.9897 90.3789 72.0297 90.31C72.0697 90.2411 72.0906 90.1671 72.0924 90.09C72.0835 89.6914 71.6184 89.7048 71.3736 89.9166C71.2021 90.0595 71.103 90.3285 71.4087 90.4985Z" fill="#EE5F64"/>
<path d="M74.4539 88.691C74.4486 88.7749 74.4695 88.8524 74.5184 88.9243C74.565 88.9954 74.6307 89.044 74.7125 89.0724C74.796 89.1012 74.8791 89.1043 74.9626 89.0793C75.0457 89.0539 75.1132 89.007 75.1656 88.9398C75.1967 88.9011 75.2211 88.8572 75.2349 88.8085C75.2487 88.7616 75.2522 88.7125 75.2451 88.6639C75.2385 88.6135 75.2211 88.5679 75.1949 88.5244C75.1687 88.4822 75.1341 88.4469 75.0923 88.4185C74.999 88.3613 74.8964 88.3445 74.7889 88.3694C74.7054 88.3862 74.6325 88.4233 74.5721 88.4822C74.5112 88.5395 74.4713 88.6101 74.4539 88.691Z" fill="#EE5F64"/>
<path d="M77.437 87.0109C77.4406 87.0948 77.4717 87.1706 77.5272 87.2347C77.5809 87.3002 77.652 87.3441 77.7355 87.3639C77.8204 87.3841 77.9021 87.3776 77.9834 87.3458C78.0634 87.3135 78.126 87.2614 78.1709 87.1891C78.1989 87.1473 78.218 87.1017 78.2282 87.0531C78.2371 87.0044 78.2353 86.9554 78.2229 86.9067C78.2109 86.8598 78.19 86.8142 78.1589 86.7754C78.1278 86.7354 78.0896 86.7031 78.0461 86.6799C77.9452 86.6308 77.843 86.6243 77.7373 86.6579C77.6556 86.6816 77.5863 86.7268 77.5325 86.7905C77.477 86.8546 77.4455 86.9287 77.437 87.0109Z" fill="#EE5F64"/>
<path d="M80.2271 85.0471C80.2408 85.1311 80.279 85.2034 80.3399 85.2624C80.4025 85.3226 80.4772 85.3579 80.5638 85.37C80.6486 85.3816 80.7304 85.3682 80.8086 85.3278C80.885 85.2873 80.9405 85.2288 80.9783 85.1513C81.0009 85.1074 81.0151 85.0587 81.0182 85.0101C81.0218 84.9597 81.0165 84.9107 80.9991 84.8637C80.9818 84.8168 80.9543 84.7746 80.9196 84.7376C80.885 84.7006 80.8432 84.6722 80.7943 84.6519C80.6922 84.6132 80.5913 84.6149 80.4891 84.6584C80.4092 84.692 80.347 84.7445 80.2981 84.8151C80.2515 84.8857 80.2271 84.9627 80.2271 85.0471Z" fill="#EE5F64"/>
<path d="M82.8027 82.8207C82.8236 82.9029 82.8666 82.9701 82.9346 83.0239C83.0021 83.0777 83.0803 83.1065 83.1687 83.11C83.2554 83.113 83.3353 83.0915 83.4064 83.0424C83.4793 82.9938 83.5299 82.9301 83.5574 82.8491C83.5765 82.8039 83.5854 82.7566 83.5836 82.7062C83.5819 82.6576 83.5712 82.6089 83.549 82.565C83.5281 82.5198 83.4984 82.4811 83.4588 82.4475C83.4206 82.4152 83.3771 82.3902 83.3287 82.3752C83.2207 82.3481 83.1185 82.3597 83.0212 82.4135C82.9466 82.4539 82.8893 82.5112 82.8493 82.5852C82.8098 82.6593 82.7938 82.7363 82.8027 82.8207Z" fill="#EE5F64"/>
<path d="M85.1001 80.3288C85.1294 80.4058 85.1814 80.47 85.2542 80.5152C85.3275 80.5608 85.4071 80.5827 85.4941 80.5776C85.5807 80.5724 85.6572 80.5423 85.7247 80.4885C85.7922 80.4346 85.8357 80.3675 85.8566 80.2848C85.8704 80.2379 85.8757 80.1893 85.8686 80.1402C85.862 80.0916 85.8464 80.0446 85.8202 80.0025C85.794 79.9603 85.7593 79.9233 85.7176 79.8948C85.6763 79.8664 85.6309 79.8462 85.5807 79.8359C85.4697 79.8191 85.3706 79.841 85.2787 79.9047C85.2076 79.9504 85.1556 80.0124 85.1227 80.0898C85.0894 80.1673 85.0828 80.2461 85.1001 80.3288Z" fill="#EE5F64"/>
<path d="M87.1565 77.6517C87.1947 77.7274 87.252 77.7847 87.3298 77.823C87.4062 77.8617 87.4879 77.8755 87.5745 77.8617C87.6612 77.8484 87.7345 77.8114 87.7949 77.7507C87.8557 77.6904 87.8922 77.6198 87.9042 77.5354C87.913 77.4868 87.913 77.4382 87.9011 77.3895C87.8904 77.3404 87.8695 77.297 87.8384 77.2565C87.8086 77.216 87.7709 77.1842 87.7256 77.1588C87.682 77.1355 87.6336 77.1205 87.5834 77.1136C87.4724 77.1084 87.3751 77.1403 87.2916 77.2113C87.2258 77.2651 87.1805 77.3323 87.1565 77.411C87.1321 77.492 87.1321 77.5707 87.1565 77.6517Z" fill="#EE5F64"/>
<path d="M88.9371 74.7865C88.9837 74.8588 89.0463 74.9092 89.1259 74.941C89.2058 74.9729 89.2893 74.978 89.3724 74.9578C89.4573 74.9376 89.527 74.8941 89.5808 74.8282C89.6363 74.7645 89.6656 74.6905 89.6692 74.6065C89.6763 74.5562 89.6709 74.5071 89.6554 74.4585C89.6398 74.4098 89.6154 74.3676 89.5808 74.3306C89.5461 74.2919 89.5043 74.2635 89.4573 74.2415C89.4106 74.2213 89.3604 74.2114 89.308 74.2114C89.1969 74.2165 89.1036 74.2583 89.0255 74.3358C88.9664 74.396 88.9282 74.4671 88.9108 74.5476C88.8953 74.6298 88.9037 74.709 88.9371 74.7865Z" fill="#EE5F64"/>
<path d="M90.4448 71.3057C90.3911 71.3711 90.36 71.4452 90.3511 71.5274C90.3444 71.6101 90.36 71.6888 90.4013 71.7611C90.4555 71.8305 90.523 71.8757 90.6079 71.8993C90.6932 71.9208 90.7762 71.9178 90.858 71.8873C90.9393 71.8571 91.0055 71.8068 91.0521 71.7345C91.0992 71.6639 91.1201 71.5847 91.113 71.499C91.113 71.4504 91.101 71.4013 91.0801 71.3578C91.0592 71.3122 91.0294 71.2721 90.9917 71.2386C90.9535 71.2063 90.9099 71.1813 90.8615 71.1662C90.8109 71.1507 90.7625 71.146 90.7105 71.1507C90.5994 71.1662 90.511 71.2183 90.4448 71.3057Z" fill="#EE5F64"/>
<path d="M91.5361 68.1443C91.4912 68.2132 91.4685 68.2907 91.4703 68.3729C91.4721 68.4573 91.4961 68.5326 91.5467 68.6002C91.6054 68.6639 91.6782 68.7044 91.7653 68.7194C91.8519 68.7362 91.9354 68.7246 92.0149 68.6876C92.0949 68.6488 92.154 68.5916 92.194 68.5158C92.2335 68.4388 92.2459 68.3578 92.2304 68.2739C92.2233 68.2253 92.2077 68.1779 92.1798 68.1362C92.154 68.0923 92.1193 68.057 92.0776 68.0285C92.0358 67.9997 91.9892 67.9795 91.9385 67.9713C91.8883 67.961 91.8381 67.961 91.7879 67.973C91.68 67.998 91.5969 68.0552 91.5361 68.1443Z" fill="#EE5F64"/>
<path d="M92.2961 64.9042C92.2562 64.9782 92.2406 65.057 92.2495 65.1396C92.2597 65.2219 92.2908 65.2959 92.3463 65.3596C92.4125 65.4134 92.4907 65.444 92.5773 65.4504C92.664 65.4573 92.7439 65.4371 92.8186 65.3932C92.8914 65.348 92.9452 65.2856 92.9763 65.2085C93.0096 65.1293 93.0145 65.0488 92.9918 64.9679C92.9816 64.9192 92.9607 64.8753 92.9314 64.8353C92.9016 64.7948 92.8634 64.763 92.8203 64.7376C92.7768 64.7122 92.7302 64.6971 92.6777 64.6924C92.6275 64.6855 92.5791 64.6907 92.5302 64.704C92.4245 64.741 92.3463 64.8082 92.2961 64.9042Z" fill="#EE5F64"/>
<path d="M92.7198 61.5948C92.6869 61.6705 92.6798 61.7497 92.6971 61.832C92.7145 61.9125 92.7545 61.9835 92.8153 62.0403C93.1294 62.2723 93.5425 61.9413 93.419 61.5883C93.4035 61.541 93.3795 61.4992 93.3462 61.4622C93.3115 61.4252 93.2715 61.3963 93.2249 61.3761C93.1796 61.3546 93.1294 61.3442 93.0792 61.3442C93.0285 61.3425 92.9783 61.3529 92.9317 61.3714C92.8309 61.4183 92.7616 61.4923 92.7198 61.5948Z" fill="#EE5F64"/>
<path d="M92.7906 58.272C92.7666 58.3512 92.7649 58.4304 92.7906 58.5092C92.8151 58.5901 92.8604 58.6555 92.9279 58.7076C93.0043 58.7498 93.0856 58.7649 93.1745 58.755C93.2611 58.7446 93.3375 58.7093 93.4015 58.6504C93.4659 58.5935 93.5059 58.5212 93.5214 58.4369C93.5369 58.3529 93.525 58.272 93.485 58.1949C93.4659 58.1493 93.4361 58.1106 93.3997 58.077C93.3615 58.0434 93.3184 58.0184 93.2713 58.0017C93.2229 57.9862 93.1727 57.9797 93.122 57.9844C93.0701 57.9896 93.0234 58.0029 92.9781 58.0266C92.8808 58.0839 92.8186 58.1644 92.7906 58.272Z" fill="#EE5F64"/>
<path d="M92.522 54.953C92.5046 55.0335 92.5113 55.1127 92.5446 55.1898C92.5775 55.2655 92.6312 55.328 92.7023 55.3714C93.051 55.5329 93.3896 55.1342 93.211 54.8097C93.1848 54.7679 93.1519 54.7309 93.1119 54.702C93.0719 54.6719 93.0271 54.6517 92.9764 54.6401C92.928 54.6284 92.8778 54.6284 92.8271 54.6366C92.7769 54.647 92.7321 54.6655 92.6903 54.6921C92.5984 54.7576 92.5411 54.8437 92.522 54.953Z" fill="#EE5F64"/>
<path d="M91.9091 51.6755C91.9002 51.7582 91.9162 51.8352 91.9558 51.9092C91.9958 51.9816 92.0531 52.0388 92.1295 52.0758C92.4991 52.2071 92.7958 51.7698 92.5755 51.4689C92.5475 51.4284 92.5111 51.3931 92.4698 51.3677C92.4262 51.341 92.3796 51.3242 92.3272 51.3156C92.277 51.3092 92.2268 51.3122 92.1779 51.326C92.1295 51.3393 92.0842 51.363 92.0464 51.3948C91.9611 51.4706 91.9162 51.5644 91.9091 51.6755Z" fill="#EE5F64"/>
<path d="M90.962 48.474C90.962 48.5563 90.9846 48.632 91.0313 48.7009C91.0784 48.7698 91.1406 48.8201 91.2205 48.8524C91.6008 48.948 91.8522 48.4822 91.6026 48.2033C91.5693 48.1663 91.5279 48.1374 91.4809 48.1159C91.4342 48.0957 91.3853 48.0853 91.3334 48.0836C91.2832 48.0823 91.233 48.0922 91.1859 48.1107C91.1392 48.1292 91.0975 48.1559 91.061 48.1912C90.9917 48.2739 90.9602 48.3681 90.962 48.474Z" fill="#EE5F64"/>
<path d="M89.7421 45.0958C89.6795 45.1832 89.6604 45.2774 89.683 45.3816C89.6901 45.4656 89.7194 45.5396 89.7732 45.6055C89.8269 45.6709 89.8967 45.7161 89.9798 45.7415C90.0651 45.7484 90.1446 45.7299 90.2174 45.6877C90.2921 45.6455 90.3458 45.5852 90.3809 45.5095C90.4156 45.4337 90.424 45.3549 90.4084 45.274C90.3911 45.1918 90.3511 45.1229 90.289 45.0656C90.209 44.9951 90.117 44.9628 90.0095 44.9697C89.9016 44.9748 89.8132 45.0166 89.7421 45.0958Z" fill="#EE5F64"/>
<path d="M88.1069 42.1449C88.0531 42.2387 88.0447 42.3347 88.0793 42.4355C88.1349 42.5719 88.2442 42.745 88.4179 42.7501C88.5045 42.7518 88.5827 42.7265 88.6537 42.6761C88.7248 42.6274 88.7732 42.5616 88.7995 42.4811C88.8257 42.4002 88.8257 42.3197 88.7959 42.2387C88.7684 42.16 88.7177 42.0958 88.6466 42.0472C88.5582 41.9865 88.4609 41.9667 88.3552 41.9852C88.2495 42.005 88.166 42.0588 88.1069 42.1449Z" fill="#EE5F64"/>
<path d="M86.1726 39.3719C86.1309 39.4696 86.1326 39.5669 86.178 39.6629C86.2508 39.7924 86.3841 39.9487 86.5524 39.9405C86.6413 39.9336 86.7173 39.9001 86.7817 39.8445C86.8474 39.7873 86.8874 39.7167 86.9047 39.6345C86.922 39.5501 86.9118 39.4713 86.8736 39.3938C86.8372 39.3163 86.7799 39.2591 86.7017 39.2191C86.608 39.167 86.5076 39.1566 86.4032 39.1855C86.2992 39.2156 86.2228 39.2776 86.1726 39.3719Z" fill="#EE5F64"/>
<path d="M83.9528 36.801C83.9231 36.9018 83.9337 36.9978 83.9875 37.0899C84.0741 37.2449 84.2096 37.3236 84.39 37.3271C84.4766 37.312 84.5499 37.2733 84.6085 37.2096C84.6676 37.1471 84.7005 37.0731 84.7094 36.9892C84.7178 36.9052 84.6987 36.826 84.6538 36.7537C84.6067 36.6814 84.5446 36.6293 84.4628 36.5992C84.3642 36.557 84.2633 36.5552 84.1643 36.5957C84.0639 36.6345 83.9946 36.7033 83.9528 36.801Z" fill="#EE5F64"/>
<path d="M81.5045 34.4416C81.48 34.5475 81.4991 34.6452 81.56 34.7361C81.6555 34.8871 81.7959 34.956 81.978 34.941C82.0615 34.916 82.1308 34.8686 82.1828 34.7998C82.2352 34.7326 82.261 34.6551 82.261 34.5712C82.2628 34.4855 82.237 34.408 82.1846 34.3409C82.1344 34.272 82.0669 34.2229 81.9834 34.198C81.883 34.1644 81.7839 34.1708 81.6902 34.2195C81.5946 34.2686 81.5338 34.3426 81.5045 34.4416Z" fill="#EE5F64"/>
<path d="M78.808 32.3483C78.7956 32.4541 78.8236 32.5501 78.8947 32.6324C78.9466 32.6995 79.0128 32.7482 79.0923 32.777C79.1741 32.8054 79.2558 32.8106 79.3407 32.7921C79.4206 32.7602 79.4828 32.7064 79.5281 32.6341C79.5717 32.5618 79.589 32.4826 79.5801 32.3986C79.5717 32.3147 79.5366 32.2406 79.478 32.1782C79.4189 32.1162 79.346 32.0775 79.2607 32.0624C79.1568 32.037 79.0595 32.0538 78.9711 32.1111C78.8809 32.1666 78.8271 32.2458 78.808 32.3483Z" fill="#EE5F64"/>
<path d="M75.9077 30.527C75.9064 30.6346 75.946 30.7272 76.0224 30.8029C76.1507 30.9372 76.3036 30.976 76.4821 30.9187C76.5603 30.8787 76.6159 30.8197 76.6541 30.7422C76.6905 30.6652 76.6994 30.586 76.6821 30.5038C76.663 30.4194 76.6212 30.3505 76.5568 30.295C76.491 30.2377 76.4146 30.2076 76.328 30.1994C76.2218 30.1856 76.1285 30.2128 76.045 30.2765C75.9619 30.3406 75.9166 30.4246 75.9077 30.527Z" fill="#EE5F64"/>
<path d="M72.8332 29.0001C72.8417 29.1077 72.8901 29.1956 72.9772 29.2644C73.0411 29.3182 73.1158 29.3518 73.2011 29.3634C73.2859 29.3755 73.3677 29.3634 73.4454 29.3281C73.5169 29.2795 73.5671 29.2154 73.5964 29.1366C73.6244 29.0557 73.6244 28.9752 73.5982 28.8942C73.5724 28.8155 73.5218 28.7496 73.4525 28.701C73.3814 28.6506 73.3015 28.6269 73.2148 28.6286C73.1629 28.6269 73.114 28.6355 73.0673 28.654C73.0189 28.6725 72.9772 28.6992 72.9407 28.7345C72.9043 28.7698 72.8781 28.8103 72.859 28.8572C72.8399 28.9028 72.8315 28.9515 72.8332 29.0001Z" fill="#EE5F64"/>
<path d="M63.0842 97.4398C62.9714 97.4398 62.8745 97.4799 62.7946 97.5573C62.7146 97.6348 62.6729 97.7291 62.6729 97.8384V116.943C62.6729 117.055 62.7128 117.147 62.7928 117.225C62.8728 117.302 62.9696 117.34 63.0824 117.34C63.1953 117.34 63.2926 117.302 63.3743 117.225C63.4538 117.145 63.4938 117.053 63.4938 116.942V97.8384C63.4938 97.7291 63.4538 97.6348 63.3743 97.5573C63.2943 97.4799 63.1971 97.4398 63.0842 97.4398Z" fill="#EE5F64"/>
<path d="M63.0583 20.6012C63.1711 20.6012 63.268 20.5608 63.3479 20.4833C63.4279 20.4062 63.4692 20.312 63.4692 20.2026V1.05024C63.4692 0.939177 63.4279 0.844903 63.3479 0.766127C63.2662 0.688643 63.1694 0.649902 63.0547 0.649902C62.9401 0.649902 62.8428 0.690366 62.7615 0.76785C62.6816 0.846626 62.6416 0.940898 62.6416 1.05196V20.2026C62.6416 20.3137 62.6816 20.408 62.7633 20.4867C62.8446 20.5642 62.9437 20.603 63.0583 20.6012Z" fill="#EE5F64"/>
<path d="M72.9354 10.8601C72.8243 10.8382 72.7221 10.8584 72.6266 10.9204C72.5329 10.9811 72.4756 11.065 72.4529 11.1727L70.4676 20.8599C70.4454 20.9675 70.4659 21.067 70.5303 21.1578C70.5929 21.2486 70.6795 21.3042 70.7906 21.3257C70.8164 21.3291 70.8443 21.3291 70.8719 21.3257C70.9692 21.3257 71.0562 21.2956 71.1322 21.2349C71.2068 21.1746 71.2557 21.0971 71.273 21.0046L73.2583 11.3293C73.2788 11.2217 73.2597 11.1223 73.1957 11.0297C73.1331 10.9389 73.0464 10.8821 72.9354 10.8601Z" fill="#EE5F64"/>
<path d="M70.8691 97.0494C70.8464 96.9452 70.7873 96.863 70.6954 96.8023C70.6016 96.7438 70.5012 96.7235 70.3915 96.7438C70.2822 96.7636 70.1956 96.8174 70.1316 96.9052C70.0672 96.9943 70.0428 97.0916 70.0601 97.1975L71.929 106.819C71.9463 106.914 71.9934 106.991 72.0698 107.051C72.1445 107.112 72.2329 107.144 72.3301 107.144H72.4083C72.5194 107.122 72.606 107.066 72.67 106.976C72.7344 106.885 72.7553 106.786 72.7362 106.676L70.8691 97.0494Z" fill="#EE5F64"/>
<path d="M53.1574 10.8601C53.2685 10.8382 53.3706 10.8584 53.4662 10.9204C53.5599 10.9811 53.6172 11.065 53.6398 11.1727L55.6251 20.8599C55.6473 20.9675 55.6269 21.067 55.5625 21.1578C55.4999 21.2486 55.4132 21.3042 55.3022 21.3257C55.2764 21.3291 55.2484 21.3291 55.2209 21.3257C55.1236 21.3257 55.0365 21.2956 54.9606 21.2349C54.8859 21.1746 54.8371 21.0971 54.8197 21.0046L52.8344 11.3293C52.814 11.2217 52.8331 11.1223 52.8971 11.0297C52.9597 10.9389 53.0463 10.8821 53.1574 10.8601Z" fill="#EE5F64"/>
<path d="M55.2237 97.0494C55.2464 96.9452 55.3055 96.863 55.3974 96.8023C55.4912 96.7438 55.5916 96.7235 55.7013 96.7438C55.8106 96.7636 55.8972 96.8174 55.9612 96.9052C56.0256 96.9943 56.05 97.0916 56.0327 97.1975L54.1638 106.819C54.1465 106.914 54.0994 106.991 54.023 107.051C53.9483 107.112 53.8599 107.144 53.7626 107.144H53.6844C53.5734 107.122 53.4868 107.066 53.4228 106.976C53.3584 106.885 53.3375 106.786 53.3566 106.676L55.2237 97.0494Z" fill="#EE5F64"/>
<path fill-rule="evenodd" clip-rule="evenodd" d="M84.2808 58.6723C84.2808 58.6712 84.2719 52.4379 81.9723 47.4503C80.3173 43.861 77.514 40.9336 72.9197 40.9336C68.3258 40.9336 65.5225 43.8617 63.8683 47.4522C61.5694 52.4417 61.562 58.6773 61.562 58.6773C61.5616 59.3328 62.0938 59.8651 62.7497 59.8651C63.4052 59.8651 63.9374 59.3328 63.9374 58.6773C63.9374 58.6773 63.9313 52.9929 66.0261 48.4462C67.3008 45.6791 69.3786 43.3094 72.9197 43.3094C76.4608 43.3094 78.5394 45.6783 79.8148 48.4447C81.9108 52.9899 81.9054 58.6731 81.9054 58.6731C81.9054 59.3286 82.438 59.8606 83.0935 59.8606C83.749 59.8602 84.2812 59.3279 84.2808 58.6723Z" fill="#EE5F64"/>
<path fill-rule="evenodd" clip-rule="evenodd" d="M61.5624 58.6829C61.5624 58.6841 61.5713 64.9174 63.871 69.905C65.526 73.4943 68.3293 76.4217 72.9236 76.4217C77.5175 76.4217 80.3208 73.4936 81.975 69.9031C84.2739 64.9136 84.2812 58.678 84.2812 58.678C84.2816 58.0225 83.7494 57.4901 83.0935 57.4901C82.438 57.4901 81.9058 58.0225 81.9058 58.678C81.9058 58.678 81.912 64.3624 79.8172 68.9091C78.5425 71.6762 76.4647 74.0459 72.9236 74.0459C69.3825 74.0459 67.3039 71.677 66.0284 68.9106C63.9325 64.3654 63.9379 58.6822 63.9379 58.6822C63.9379 58.0267 63.4053 57.4947 62.7498 57.4947C62.0943 57.4951 61.562 58.0274 61.5624 58.6829Z" fill="#EE5F64"/>
<path fill-rule="evenodd" clip-rule="evenodd" d="M84.271 75.2542V58.683C84.271 58.0275 83.7388 57.4951 83.0833 57.4951C82.4278 57.4951 81.8956 58.0275 81.8956 58.683V75.2542C81.8956 75.9098 82.4278 76.4421 83.0833 76.4421C83.7388 76.4421 84.271 75.9098 84.271 75.2542Z" fill="#EE5F64"/>
<path fill-rule="evenodd" clip-rule="evenodd" d="M72.9211 53.177C69.5968 53.177 66.6554 53.9737 64.828 55.1526C63.325 56.1222 62.5298 57.3803 62.5298 58.6735C62.5298 59.9666 63.325 61.2247 64.828 62.1944C66.6554 63.3732 69.5968 64.1699 72.9211 64.1699C76.2455 64.1699 79.1873 63.3732 81.0143 62.1944C82.5173 61.2247 83.3125 59.9666 83.3125 58.6735C83.3125 57.3803 82.5173 56.1222 81.0143 55.1526C79.1873 53.9737 76.2455 53.177 72.9211 53.177ZM72.9211 55.3823C75.7486 55.3823 78.2647 56.003 79.8188 57.0058C80.5721 57.4918 81.107 58.0252 81.107 58.6735C81.107 59.3217 80.5721 59.8552 79.8188 60.3411C78.2647 61.3439 75.7486 61.9647 72.9211 61.9647C70.0936 61.9647 67.5779 61.3439 66.0234 60.3411C65.2702 59.8552 64.7352 59.3217 64.7352 58.6735C64.7352 58.0252 65.2702 57.4918 66.0234 57.0058C67.5779 56.003 70.0936 55.3823 72.9211 55.3823Z" fill="#EE5F64"/>
<path fill-rule="evenodd" clip-rule="evenodd" d="M49.8257 73.486C50.2727 74.5121 50.7798 75.4558 51.339 76.3472C51.7362 76.3962 52.1489 76.4217 52.577 76.4217C57.1712 76.4217 59.9742 73.4936 61.6284 69.9033C63.9274 64.9136 63.9348 58.6782 63.9348 58.6782C63.9348 58.0225 63.4027 57.4902 62.7471 57.4902C62.0914 57.4901 61.5592 58.0223 61.5592 58.678C61.5592 58.678 61.5656 64.3626 59.4707 68.9092C58.1958 71.6764 56.1179 74.046 52.577 74.046C51.5402 74.046 50.6287 73.8429 49.8257 73.486Z" fill="#EE5F64"/>
<path fill-rule="evenodd" clip-rule="evenodd" d="M52.1589 40.9414C52.091 41.0299 52.0238 41.1189 51.9572 41.2082C51.3751 41.9992 50.8458 42.8152 50.3691 43.6561C51.0333 43.4324 51.7654 43.309 52.5738 43.309C56.115 43.309 58.1934 45.6779 59.4691 48.4445C61.5648 52.9898 61.5594 58.6727 61.5594 58.6727C61.5595 59.3284 62.0919 59.8604 62.7476 59.8603C63.4032 59.86 63.9352 59.3276 63.9351 58.6721C63.9351 58.6708 63.9262 52.4376 61.6265 47.4498C59.9716 43.8605 57.168 40.9333 52.5738 40.9333C52.4337 40.9333 52.2952 40.9361 52.1589 40.9414Z" fill="#EE5F64"/>
</svg>
