<svg width="26" height="26" viewBox="0 0 26 26" fill="none" xmlns="http://www.w3.org/2000/svg">
<path d="M13 0C10.4288 0 7.91543 0.762437 5.77759 2.1909C3.63975 3.61935 1.97351 5.64968 0.989572 8.02512C0.0056327 10.4006 -0.251811 13.0144 0.249797 15.5362C0.751405 18.0579 1.98953 20.3743 3.80762 22.1924C5.6257 24.0105 7.94208 25.2486 10.4638 25.7502C12.9856 26.2518 15.5995 25.9944 17.9749 25.0104C20.3503 24.0265 22.3807 22.3603 23.8091 20.2224C25.2376 18.0846 26 15.5712 26 13C25.9964 9.5533 24.6256 6.24882 22.1884 3.81163C19.7512 1.37445 16.4467 0.00363977 13 0ZM13 24C10.8244 24 8.69767 23.3549 6.88873 22.1462C5.07979 20.9375 3.66989 19.2195 2.83733 17.2095C2.00477 15.1995 1.78693 12.9878 2.21137 10.854C2.63581 8.72022 3.68345 6.7602 5.22183 5.22183C6.76021 3.68345 8.72022 2.6358 10.854 2.21136C12.9878 1.78692 15.1995 2.00476 17.2095 2.83733C19.2195 3.66989 20.9375 5.07979 22.1462 6.88873C23.3549 8.69767 24 10.8244 24 13C23.9967 15.9164 22.8367 18.7123 20.7745 20.7745C18.7123 22.8367 15.9164 23.9967 13 24ZM19.7075 17.2925C19.8004 17.3854 19.8741 17.4957 19.9244 17.6171C19.9747 17.7385 20.0006 17.8686 20.0006 18C20.0006 18.1314 19.9747 18.2615 19.9244 18.3829C19.8741 18.5043 19.8004 18.6146 19.7075 18.7075C19.6146 18.8004 19.5043 18.8741 19.3829 18.9244C19.2615 18.9747 19.1314 19.0006 19 19.0006C18.8686 19.0006 18.7385 18.9747 18.6171 18.9244C18.4957 18.8741 18.3854 18.8004 18.2925 18.7075L17 17.4137L15.7075 18.7075C15.6146 18.8005 15.5043 18.8742 15.3829 18.9246C15.2615 18.9749 15.1314 19.0008 15 19.0008C14.8686 19.0008 14.7385 18.9749 14.6171 18.9246C14.4957 18.8742 14.3854 18.8005 14.2925 18.7075L13 17.4137L11.7075 18.7075C11.6146 18.8005 11.5043 18.8742 11.3829 18.9246C11.2615 18.9749 11.1314 19.0008 11 19.0008C10.8686 19.0008 10.7385 18.9749 10.6171 18.9246C10.4957 18.8742 10.3854 18.8005 10.2925 18.7075L9.00001 17.4137L7.70751 18.7075C7.51987 18.8951 7.26537 19.0006 7.00001 19.0006C6.73464 19.0006 6.48015 18.8951 6.29251 18.7075C6.10486 18.5199 5.99945 18.2654 5.99945 18C5.99945 17.7346 6.10486 17.4801 6.29251 17.2925L8.29251 15.2925C8.38538 15.1995 8.49567 15.1258 8.61707 15.0754C8.73846 15.0251 8.86859 14.9992 9.00001 14.9992C9.13142 14.9992 9.26155 15.0251 9.38295 15.0754C9.50434 15.1258 9.61463 15.1995 9.70751 15.2925L11 16.5863L12.2925 15.2925C12.3854 15.1995 12.4957 15.1258 12.6171 15.0754C12.7385 15.0251 12.8686 14.9992 13 14.9992C13.1314 14.9992 13.2615 15.0251 13.3829 15.0754C13.5043 15.1258 13.6146 15.1995 13.7075 15.2925L15 16.5863L16.2925 15.2925C16.3854 15.1995 16.4957 15.1258 16.6171 15.0754C16.7385 15.0251 16.8686 14.9992 17 14.9992C17.1314 14.9992 17.2615 15.0251 17.3829 15.0754C17.5043 15.1258 17.6146 15.1995 17.7075 15.2925L19.7075 17.2925ZM7.00001 10.5C7.00001 10.2033 7.08798 9.91332 7.2528 9.66665C7.41762 9.41997 7.65189 9.22771 7.92598 9.11418C8.20007 9.00065 8.50167 8.97094 8.79264 9.02882C9.08361 9.0867 9.35089 9.22956 9.56067 9.43934C9.77044 9.64912 9.91331 9.91639 9.97118 10.2074C10.0291 10.4983 9.99936 10.7999 9.88583 11.074C9.77229 11.3481 9.58003 11.5824 9.33336 11.7472C9.08669 11.912 8.79668 12 8.50001 12C8.10218 12 7.72065 11.842 7.43935 11.5607C7.15804 11.2794 7.00001 10.8978 7.00001 10.5ZM16 10.5C16 10.2033 16.088 9.91332 16.2528 9.66665C16.4176 9.41997 16.6519 9.22771 16.926 9.11418C17.2001 9.00065 17.5017 8.97094 17.7926 9.02882C18.0836 9.0867 18.3509 9.22956 18.5607 9.43934C18.7704 9.64912 18.9133 9.91639 18.9712 10.2074C19.0291 10.4983 18.9994 10.7999 18.8858 11.074C18.7723 11.3481 18.58 11.5824 18.3334 11.7472C18.0867 11.912 17.7967 12 17.5 12C17.1022 12 16.7207 11.842 16.4393 11.5607C16.158 11.2794 16 10.8978 16 10.5Z" fill="#2D2D2D"/>
</svg>
