<svg width="20" height="20" viewBox="0 0 20 20" fill="none" xmlns="http://www.w3.org/2000/svg">
<path fill-rule="evenodd" clip-rule="evenodd" d="M16.3713 0.2619C15.9291 0.347484 15.5151 0.513356 15.1708 0.743637C14.914 0.914804 6.35343 9.48019 6.27399 9.64518C6.18925 9.82076 5.28447 13.4294 5.28447 13.5908C5.28447 14.0399 5.70729 14.4626 6.15659 14.4626C6.31812 14.4626 9.92842 13.5582 10.1041 13.4735C10.2691 13.3941 18.8385 4.83752 19.0098 4.58077C19.1819 4.32314 19.3311 4.00286 19.4158 3.70905C19.5288 3.31555 19.5279 2.66706 19.414 2.2709C19.2817 1.80495 19.0312 1.38108 18.6868 1.04037C18.3424 0.699671 17.9158 0.453699 17.4482 0.326308C17.239 0.270723 16.5426 0.228373 16.3713 0.2619ZM17.0766 2.06003C17.3379 2.13767 17.6151 2.41472 17.6928 2.67588C17.7634 2.91322 17.7634 3.07027 17.6928 3.3129C17.638 3.49995 17.5392 3.6023 13.4372 7.705L9.23814 11.9056L8.33689 12.1297C7.8408 12.2533 7.42593 12.3441 7.41445 12.3336C7.40386 12.3221 7.49478 11.9074 7.61836 11.4116L7.84257 10.5107L12.0452 6.31626C15.9573 2.41031 16.2601 2.11738 16.4243 2.06533C16.6353 1.99252 16.8644 1.99067 17.0766 2.06003ZM2.3009 2.13238C1.94075 2.20297 1.83041 2.23296 1.63887 2.31061C0.861197 2.62647 0.271545 3.31378 0.0552803 4.15726C-0.0179848 4.44578 -0.0188675 17.4191 0.0552803 17.7068C0.303322 18.6738 0.975949 19.3629 1.98312 19.6814C2.14113 19.7308 2.85083 19.7378 8.65643 19.7475C13.0682 19.7546 15.2309 19.7467 15.3942 19.7211C15.8399 19.6493 16.2602 19.4661 16.6161 19.1884C16.972 18.9108 17.2518 18.5477 17.4297 18.1329C17.6318 17.6538 17.6213 17.8665 17.6336 14.2014C17.646 10.3837 17.6601 10.5963 17.3794 10.3157C17.2986 10.2335 17.2023 10.1682 17.096 10.1236C16.9897 10.079 16.8756 10.056 16.7604 10.0559C16.6451 10.0558 16.531 10.0787 16.4246 10.1232C16.3183 10.1676 16.2218 10.2328 16.1409 10.3149C15.8638 10.5919 15.877 10.4004 15.877 14.0214C15.877 17.6424 15.8903 17.4509 15.6131 17.728C15.3271 18.0138 15.8973 17.9918 8.81532 17.9918C1.73332 17.9918 2.30355 18.0138 2.01755 17.728C1.73155 17.4421 1.75362 18.0147 1.75538 10.9183C1.75627 5.73129 1.76509 4.57459 1.80393 4.46607C1.87367 4.27108 2.01667 4.1008 2.20468 3.99051L2.37152 3.89257L5.70817 3.87493L9.04482 3.85728L9.21254 3.77435C9.74305 3.51318 9.85692 2.79675 9.4341 2.37413C9.15604 2.09621 9.3573 2.10944 5.65786 2.11474C3.85006 2.1165 2.33974 2.12444 2.3009 2.13238Z" fill="#2D2D2D"/>
</svg>
