<svg width="20" height="20" viewBox="0 0 20 20" fill="none" xmlns="http://www.w3.org/2000/svg">
<path fill-rule="evenodd" clip-rule="evenodd" d="M9.75022 15.0555C6.95811 15.0555 4.69466 12.7921 4.69466 9.99999C4.69466 7.20752 6.95811 4.94443 9.75022 4.94443C12.5423 4.94443 14.8058 7.20752 14.8058 9.99999C14.8058 12.7921 12.5423 15.0555 9.75022 15.0555ZM9.75022 0.611099C4.56502 0.611099 0.361328 4.81443 0.361328 9.99999C0.361328 15.1852 4.56502 19.3889 9.75022 19.3889C14.9354 19.3889 19.1391 15.1852 19.1391 9.99999C19.1391 4.81443 14.9354 0.611099 9.75022 0.611099Z" fill="#2D2D2D"/>
<path fill-rule="evenodd" clip-rule="evenodd" d="M1.44531 5.62027L5.28609 7.62444L5.2897 7.62083C5.77431 6.71444 6.52759 5.97597 7.44265 5.50508L7.45276 5.49533L5.37059 1.69536C3.69973 2.57827 2.32823 3.94977 1.44531 5.62027Z" fill="white"/>
<path fill-rule="evenodd" clip-rule="evenodd" d="M14.1294 1.69524L12.0469 5.49522L12.0573 5.50533C12.972 5.97585 13.7257 6.71433 14.2103 7.62108L14.2135 7.62433L18.0547 5.62016C17.1718 3.94966 15.7999 2.57816 14.1294 1.69524Z" fill="white"/>
<path fill-rule="evenodd" clip-rule="evenodd" d="M5.2897 12.3787L5.28645 12.3755L1.44531 14.3797C2.32823 16.0502 3.70009 17.422 5.37059 18.3046L7.45312 14.5046L7.44301 14.4948C6.52795 14.0243 5.77431 13.2855 5.2897 12.3787Z" fill="white"/>
<path fill-rule="evenodd" clip-rule="evenodd" d="M18.0543 14.3798L14.2135 12.3753L14.2099 12.3785C13.7257 13.2853 12.972 14.0241 12.057 14.495L12.0469 14.5047L14.129 18.3047C15.7999 17.4218 17.1714 16.0503 18.0543 14.3798Z" fill="white"/>
<path fill-rule="evenodd" clip-rule="evenodd" d="M8.6663 18.3056C13.8515 18.3056 18.0552 14.1019 18.0552 8.91671C18.0552 6.59982 17.2142 4.48046 15.8235 2.84318C17.8508 4.56532 19.1385 7.13137 19.1385 10C19.1385 15.1852 14.9348 19.3889 9.74964 19.3889C6.88133 19.3889 4.31491 18.1012 2.59277 16.0736C4.23005 17.4646 6.34941 18.3056 8.6663 18.3056Z" fill="#6C6984" fill-opacity="0.25"/>
<path fill-rule="evenodd" clip-rule="evenodd" d="M3.61133 8.9167C3.61133 6.12423 5.87477 3.86115 8.66688 3.86115C10.3396 3.86115 11.8183 4.6769 12.7384 5.92851C11.9006 5.31281 10.8697 4.94448 9.75022 4.94448C6.95811 4.94448 4.69466 7.20756 4.69466 10C4.69466 11.1195 5.06299 12.1505 5.67869 12.9882C4.42708 12.0678 3.61133 10.5894 3.61133 8.9167Z" fill="#6C6984" fill-opacity="0.25"/>
<path fill-rule="evenodd" clip-rule="evenodd" d="M0 10C0 4.615 4.36538 0.25 9.75 0.25C15.1346 0.25 19.5 4.615 19.5 10C19.5 15.3846 15.1346 19.75 9.75 19.75C4.36537 19.75 0 15.3846 0 10ZM9.75 0.972222C4.76423 0.972222 0.722222 5.01389 0.722222 10C0.722222 14.9858 4.76424 19.0278 9.75 19.0278C14.7358 19.0278 18.7778 14.9858 18.7778 10C18.7778 5.01389 14.7358 0.972222 9.75 0.972222Z" fill="#2D2D2D"/>
<path fill-rule="evenodd" clip-rule="evenodd" d="M9.74967 5.30557C7.15698 5.30557 5.05523 7.40699 5.05523 10C5.05523 12.5927 7.157 14.6945 9.74967 14.6945C12.3423 14.6945 14.4441 12.5927 14.4441 10C14.4441 7.40699 12.3424 5.30557 9.74967 5.30557ZM4.33301 10C4.33301 7.00809 6.75814 4.58334 9.74967 4.58334C12.7412 4.58334 15.1663 7.00808 15.1663 10C15.1663 12.9916 12.7412 15.4167 9.74967 15.4167C6.75813 15.4167 4.33301 12.9916 4.33301 10Z" fill="#2D2D2D"/>
<path fill-rule="evenodd" clip-rule="evenodd" d="M3.97266 1.69431C2.5767 1.69431 1.44488 2.82613 1.44488 4.22208C1.44488 4.62814 1.54092 5.01162 1.7107 5.35118L5.45379 7.30433C5.63061 7.39659 5.69915 7.61471 5.60689 7.79153C5.51463 7.96834 5.2965 8.03688 5.11969 7.94462L1.27674 5.93937C1.21391 5.90659 1.16212 5.85604 1.12782 5.79403C0.870158 5.3283 0.722656 4.79168 0.722656 4.22208C0.722656 2.42726 2.17783 0.972084 3.97266 0.972084C4.54264 0.972084 5.07889 1.1196 5.5446 1.37724C5.60442 1.41034 5.65362 1.45973 5.68647 1.51968L7.77008 5.32182C7.86593 5.49672 7.80184 5.71619 7.62695 5.81204C7.45205 5.90788 7.23257 5.8438 7.13673 5.6689L5.10524 1.96187C4.76485 1.791 4.38041 1.69431 3.97266 1.69431Z" fill="#2D2D2D"/>
<path fill-rule="evenodd" clip-rule="evenodd" d="M13.9565 1.37724C14.4222 1.1196 14.9585 0.972084 15.5285 0.972084C17.3233 0.972084 18.7785 2.42726 18.7785 4.22208C18.7785 4.79169 18.6309 5.3283 18.3733 5.79403C18.339 5.85604 18.2872 5.90659 18.2244 5.93937L14.3814 7.94462C14.2046 8.03688 13.9865 7.96834 13.8942 7.79153C13.802 7.61471 13.8705 7.39659 14.0473 7.30433L17.7904 5.35118C17.9602 5.01162 18.0562 4.62814 18.0562 4.22208C18.0562 2.82613 16.9244 1.69431 15.5285 1.69431C15.1207 1.69431 14.7363 1.791 14.3959 1.96187L12.3644 5.6689C12.2685 5.8438 12.0491 5.90788 11.8742 5.81204C11.6993 5.71619 11.6352 5.49672 11.731 5.32182L13.8146 1.51968C13.8475 1.45973 13.8967 1.41034 13.9565 1.37724Z" fill="#2D2D2D"/>
<path fill-rule="evenodd" clip-rule="evenodd" d="M5.60689 12.2083C5.69915 12.3851 5.63061 12.6032 5.45379 12.6955L1.7107 14.6486C1.54092 14.9882 1.44488 15.3717 1.44488 15.7777C1.44488 17.1737 2.5767 18.3055 3.97266 18.3055C4.38061 18.3055 4.765 18.209 5.10519 18.038L7.13674 14.3313C7.23259 14.1564 7.45207 14.0923 7.62696 14.1881C7.80185 14.284 7.86593 14.5035 7.77008 14.6784L5.68647 18.4801C5.65365 18.54 5.60454 18.5894 5.54482 18.6225C5.07882 18.8807 4.54247 19.0277 3.97266 19.0277C2.17783 19.0277 0.722656 17.5726 0.722656 15.7777C0.722656 15.2081 0.870158 14.6715 1.12782 14.2058C1.16212 14.1438 1.21391 14.0932 1.27674 14.0604L5.11969 12.0552C5.2965 11.9629 5.51463 12.0315 5.60689 12.2083Z" fill="#2D2D2D"/>
<path fill-rule="evenodd" clip-rule="evenodd" d="M13.8942 12.2083C13.9865 12.0315 14.2046 11.9629 14.3814 12.0552L18.2244 14.0604C18.2872 14.0932 18.339 14.1438 18.3733 14.2058C18.6309 14.6715 18.7785 15.2081 18.7785 15.7777C18.7785 17.5726 17.3233 19.0277 15.5285 19.0277C14.9586 19.0277 14.4223 18.8807 13.9563 18.6225C13.8966 18.5894 13.8475 18.54 13.8146 18.4801L11.731 14.6784C11.6352 14.5035 11.6993 14.284 11.8741 14.1881C12.049 14.0923 12.2685 14.1564 12.3644 14.3313L14.3959 18.038C14.7361 18.209 15.1205 18.3055 15.5285 18.3055C16.9244 18.3055 18.0562 17.1737 18.0562 15.7777C18.0562 15.3717 17.9602 14.9882 17.7904 14.6486L14.0473 12.6955C13.8705 12.6032 13.802 12.3851 13.8942 12.2083Z" fill="#2D2D2D"/>
</svg>
