<svg width="20" height="20" viewBox="0 0 20 20" fill="none" xmlns="http://www.w3.org/2000/svg">
<g clip-path="url(#clip0_701_1485)">
<path d="M17.5502 9.11364C17.5502 14.033 14.2222 18.6332 9.7502 19.75C5.2782 18.6332 1.9502 14.033 1.9502 9.11364V3.79545L9.7502 0.25L17.5502 3.79545V9.11364ZM9.7502 17.9773C13.0002 17.0909 15.8169 13.1377 15.8169 9.30864V4.94773L9.7502 2.18227L3.68353 4.94773V9.30864C3.68353 13.1377 6.5002 17.0909 9.7502 17.9773ZM12.1769 9.11364V7.78409C12.1769 6.54318 10.9635 5.56818 9.7502 5.56818C8.53686 5.56818 7.32353 6.54318 7.32353 7.78409V9.11364C6.80353 9.11364 6.28353 9.64545 6.28353 10.1773V13.2795C6.28353 13.9 6.80353 14.4318 7.32353 14.4318H12.0902C12.6969 14.4318 13.2169 13.9 13.2169 13.3682V10.2659C13.2169 9.64545 12.6969 9.11364 12.1769 9.11364ZM11.0502 9.11364H8.4502V7.78409C8.4502 7.075 9.05686 6.63182 9.7502 6.63182C10.4435 6.63182 11.0502 7.075 11.0502 7.78409V9.11364Z" fill="#2D2D2D"/>
</g>
<defs>
<clipPath id="clip0_701_1485">
<rect width="19.5" height="19.5" fill="white" transform="translate(0 0.25)"/>
</clipPath>
</defs>
</svg>
