<svg width="22" height="26" viewBox="0 0 22 26" fill="none" xmlns="http://www.w3.org/2000/svg">
<path d="M10.7262 2.01189C6.72499 2.01189 3.47323 5.26365 3.47323 9.26488V12.7585C3.47323 13.4958 3.15893 14.6201 2.7842 15.2486L1.39404 17.5575C0.535768 18.9839 1.1281 20.5675 2.69958 21.0994C7.90965 22.8401 13.5307 22.8401 18.7408 21.0994C20.2035 20.6159 20.8442 18.8872 20.0463 17.5575L18.6562 15.2486C18.2935 14.6201 17.9792 13.4958 17.9792 12.7585V9.26488C17.9792 5.27573 14.7154 2.01189 10.7262 2.01189Z" stroke="#2D2D2D" stroke-width="1.5" stroke-miterlimit="10" stroke-linecap="round"/>
<path d="M12.9629 2.36218C12.5882 2.25338 12.2013 2.16877 11.8024 2.12041C10.642 1.97535 9.52983 2.05997 8.49023 2.36218C8.8408 1.46764 9.71116 0.83905 10.7266 0.83905C11.742 0.83905 12.6124 1.46764 12.9629 2.36218Z" stroke="#2D2D2D" stroke-width="1.5" stroke-miterlimit="10" stroke-linecap="round" stroke-linejoin="round"/>
<path d="M14.3526 21.5344C14.3526 23.529 12.7206 25.1609 10.7261 25.1609C9.73483 25.1609 8.81612 24.7499 8.16338 24.0972C7.51061 23.4444 7.09961 22.5257 7.09961 21.5344" stroke="#2D2D2D" stroke-width="1.5" stroke-miterlimit="10"/>
</svg>
