<svg width="20" height="20" viewBox="0 0 20 20" fill="none" xmlns="http://www.w3.org/2000/svg">
<path fill-rule="evenodd" clip-rule="evenodd" d="M17.7778 7.98228C17.7778 3.48895 14.2889 6.10352e-05 10 6.10352e-05C5.71111 6.10352e-05 2.22222 3.48895 2.22222 7.77784C0.930001 8.44117 0 9.66228 0 11.1112V13.3334C0 14.2174 0.35119 15.0653 0.976312 15.6904C1.60143 16.3155 2.44928 16.6667 3.33333 16.6667H4.44444C4.73913 16.6667 5.02175 16.5497 5.23012 16.3413C5.43849 16.1329 5.55556 15.8503 5.55556 15.5556V8.88895C5.55556 8.59426 5.43849 8.31165 5.23012 8.10328C5.02175 7.8949 4.73913 7.77784 4.44444 7.77784C4.44444 6.30441 5.02976 4.89134 6.07163 3.84947C7.1135 2.8076 8.52658 2.22228 10 2.22228C11.4734 2.22228 12.8865 2.8076 13.9284 3.84947C14.9702 4.89134 15.5556 6.30441 15.5556 7.77784C15.2609 7.77784 14.9783 7.8949 14.7699 8.10328C14.5615 8.31165 14.4444 8.59426 14.4444 8.88895V15.5556C14.4444 15.8503 14.5615 16.1329 14.7699 16.3413C14.9783 16.5497 15.2609 16.6667 15.5556 16.6667V17.7778H12.6756C12.4467 17.1323 11.8356 16.6667 11.1111 16.6667H8.88889C8.44686 16.6667 8.02294 16.8423 7.71038 17.1549C7.39782 17.4674 7.22222 17.8914 7.22222 18.3334C7.22222 18.7754 7.39782 19.1993 7.71038 19.5119C8.02294 19.8245 8.44686 20.0001 8.88889 20.0001H15.5556C16.1449 20.0001 16.7102 19.7659 17.1269 19.3492C17.5437 18.9324 17.7778 18.3672 17.7778 17.7778V16.4634C18.4264 16.2355 18.9883 15.8121 19.3863 15.2515C19.7843 14.691 19.9987 14.0208 20 13.3334V11.1112C19.9988 10.4238 19.7844 9.75379 19.3864 9.1934C18.9884 8.63301 18.4264 8.20986 17.7778 7.98228Z" fill="#494C4E"/>
</svg>
