<svg width="20" height="14" viewBox="0 0 20 14" fill="none" xmlns="http://www.w3.org/2000/svg">
<path fill-rule="evenodd" clip-rule="evenodd" d="M9.59344 0.0835491C9.84938 -0.0278497 10.1506 -0.0278497 10.4066 0.0835491L19.4975 4.04049C19.8055 4.17455 20 4.44858 20 4.74833V11.0794C20 11.5165 19.593 11.8708 19.0909 11.8708C18.5888 11.8708 18.1818 11.5165 18.1818 11.0794V6.02883L15.7582 7.08372L16.2415 10.8707C16.3536 11.7485 15.8252 12.5943 14.9176 12.9894C11.8219 14.3369 8.17813 14.3369 5.0825 12.9894C4.17483 12.5944 3.64637 11.7486 3.75842 10.8706L4.24178 7.08371L0.502536 5.45617C0.194549 5.32212 6.24225e-07 5.04809 0 4.74833C-6.24222e-07 4.44858 0.194547 4.17455 0.502533 4.04049L9.59344 0.0835491ZM5.97486 7.83807L5.56548 11.0454C5.53754 11.2644 5.66936 11.4753 5.89557 11.5737L5.89561 11.5737C8.47936 12.6984 11.5206 12.6984 14.1044 11.5737C14.3306 11.4753 14.4624 11.2644 14.4345 11.0454L14.0252 7.83807L10.4066 9.41311C10.1506 9.52451 9.84937 9.52451 9.59344 9.41311L5.97486 7.83807ZM15.2399 3.95694L10 1.67619L2.94189 4.74833L5.62186 5.91482L10 7.82047L15.2399 5.53972H10C9.49792 5.53972 9.09091 5.1854 9.09091 4.74833C9.09091 4.31126 9.49792 3.95694 10 3.95694H15.2399Z" fill="#2D2D2D"/>
</svg>
