<svg width="55" height="55" viewBox="0 0 55 55" fill="none" xmlns="http://www.w3.org/2000/svg">
<circle cx="27.5" cy="27.5" r="27.5" fill="white"/>
<g clip-path="url(#clip0_16_1412)">
<path fill-rule="evenodd" clip-rule="evenodd" d="M26.6513 30.1123C27.4749 30.3133 28.305 30.3337 29.1338 30.1635L27.8935 33.062L26.6513 30.1123ZM27.8711 36.4694L31.6708 29.5715C31.8813 29.6905 32.097 29.7904 32.3165 29.8736C31.105 31.7161 30.3607 33.8992 30.2493 36.1046V40.8572C28.7485 41.2707 27.2529 41.2918 25.7508 40.8675L25.7476 36.0368C25.5761 33.7737 24.9252 31.7628 23.6836 29.8729C23.8615 29.8057 24.0356 29.727 24.2077 29.6368L27.8711 36.4694ZM32.074 36.1276C32.2545 33.8492 32.961 31.99 34.3306 30.175C35.9652 30.0867 37.578 29.2349 38.5847 27.9459C39.1985 27.1619 39.5857 26.2198 39.6215 25.1971C41.1754 24.5648 42.0842 22.7165 42.0458 21.0992C41.9888 18.7433 40.2359 17.3789 38.0778 16.9123C38.1546 14.8432 36.3409 13.2112 34.4509 12.7472C33.7009 12.5629 32.913 12.5315 32.1405 12.6313C29.8826 10.4553 26.1156 10.4585 23.8583 12.6339C23.082 12.5328 22.2954 12.5629 21.5505 12.744C19.6567 13.2073 17.8429 14.8432 17.9229 16.9123C15.7636 17.3789 14.0113 18.744 13.9543 21.0992C13.9159 22.7165 14.8247 24.5648 16.3786 25.1971C16.4145 26.2192 16.8017 27.1619 17.4154 27.9459C18.4221 29.2349 20.0349 30.0867 21.6701 30.175C23.0397 31.9894 23.7463 33.8492 23.9268 36.1276V42.166C27.0506 43.2944 28.9457 43.2579 32.0746 42.1795V36.1276H32.074ZM31.4941 14.5725C32.3671 14.4381 33.1101 14.2921 34.0151 14.5136C35.064 14.7709 36.4349 15.7789 36.2461 17L36.0279 18.3984L36.9111 18.5513C38.4138 18.8125 40.1828 19.2617 40.2282 21.1421C40.2583 22.4278 39.6189 23.3008 38.4305 23.6713L37.7719 23.8768C37.8065 25.0371 37.9332 25.8256 37.1517 26.8259C36.4484 27.727 35.2881 28.3299 34.1431 28.3625C32.865 28.3984 32.2602 27.7923 31.3674 27.0947C28.5738 28.8566 27.7149 29.0339 24.6314 27.096C23.738 27.7929 23.1332 28.3984 21.8564 28.3625C20.7114 28.3299 19.5511 27.7264 18.8477 26.8259C18.0657 25.8256 18.1937 25.0371 18.2276 23.8768L17.569 23.672C16.3805 23.3014 15.7412 22.4285 15.7713 21.1427C15.809 19.5734 17.1729 18.8848 18.5508 18.6454L19.9709 18.399L19.7533 17.0006C19.5645 15.7821 20.9194 14.7689 21.9773 14.511C22.8759 14.2928 23.6209 14.4374 24.5021 14.5737L24.8324 14.2352C26.7383 12.2819 29.3463 12.3638 31.1652 14.2345L31.4941 14.5725Z" fill="#EE5F64"/>
</g>
<defs>
<clipPath id="clip0_16_1412">
<rect width="32" height="32" fill="white" transform="translate(12 11)"/>
</clipPath>
</defs>
</svg>
