<svg width="55" height="55" viewBox="0 0 55 55" fill="none" xmlns="http://www.w3.org/2000/svg">
<circle cx="27.5" cy="27.5" r="27.5" fill="white"/>
<path d="M25 33C25 33.2652 24.8946 33.5196 24.7071 33.7071C24.5196 33.8947 24.2652 34 24 34H20C19.7348 34 19.4804 33.8947 19.2929 33.7071C19.1054 33.5196 19 33.2652 19 33C19 32.7348 19.1054 32.4804 19.2929 32.2929C19.4804 32.1054 19.7348 32 20 32H24C24.2652 32 24.5196 32.1054 24.7071 32.2929C24.8946 32.4804 25 32.7348 25 33ZM24 28H20C19.7348 28 19.4804 28.1054 19.2929 28.2929C19.1054 28.4804 19 28.7348 19 29C19 29.2652 19.1054 29.5196 19.2929 29.7071C19.4804 29.8947 19.7348 30 20 30H24C24.2652 30 24.5196 29.8947 24.7071 29.7071C24.8946 29.5196 25 29.2652 25 29C25 28.7348 24.8946 28.4804 24.7071 28.2929C24.5196 28.1054 24.2652 28 24 28ZM24 24H20C19.7348 24 19.4804 24.1054 19.2929 24.2929C19.1054 24.4804 19 24.7348 19 25C19 25.2652 19.1054 25.5196 19.2929 25.7071C19.4804 25.8947 19.7348 26 20 26H24C24.2652 26 24.5196 25.8947 24.7071 25.7071C24.8946 25.5196 25 25.2652 25 25C25 24.7348 24.8946 24.4804 24.7071 24.2929C24.5196 24.1054 24.2652 24 24 24ZM41 22V36C41 36.5304 40.7893 37.0391 40.4142 37.4142C40.0391 37.7893 39.5304 38 39 38H17C16.4696 38 15.9609 37.7893 15.5858 37.4142C15.2107 37.0391 15 36.5304 15 36V21C15.0001 20.785 15.0694 20.5758 15.1977 20.4033C15.3261 20.2308 15.5066 20.1043 15.7125 20.0425L35.7125 14.0425C35.8383 14.0048 35.9704 13.9922 36.101 14.0054C36.2317 14.0187 36.3585 14.0576 36.4742 14.1198C36.5899 14.1821 36.6921 14.2666 36.7752 14.3684C36.8582 14.4702 36.9204 14.5873 36.9581 14.7131C36.9959 14.839 37.0085 14.971 36.9952 15.1017C36.9819 15.2324 36.9431 15.3592 36.8808 15.4748C36.8185 15.5905 36.7341 15.6928 36.6323 15.7758C36.5305 15.8588 36.4133 15.921 36.2875 15.9588L22.8138 20H39C39.5304 20 40.0391 20.2107 40.4142 20.5858C40.7893 20.9609 41 21.4696 41 22ZM39 36V22H17V36H39ZM37 29C37 29.9889 36.7068 30.9556 36.1573 31.7779C35.6079 32.6001 34.827 33.241 33.9134 33.6194C32.9998 33.9978 31.9945 34.0969 31.0245 33.9039C30.0546 33.711 29.1637 33.2348 28.4645 32.5355C27.7652 31.8363 27.289 30.9454 27.0961 29.9755C26.9031 29.0056 27.0022 28.0002 27.3806 27.0866C27.759 26.173 28.3999 25.3921 29.2221 24.8427C30.0444 24.2933 31.0111 24 32 24C33.3261 24 34.5979 24.5268 35.5355 25.4645C36.4732 26.4022 37 27.6739 37 29ZM35 29C35 28.4067 34.8241 27.8266 34.4944 27.3333C34.1648 26.84 33.6962 26.4554 33.1481 26.2284C32.5999 26.0013 31.9967 25.9419 31.4147 26.0577C30.8328 26.1734 30.2982 26.4591 29.8787 26.8787C29.4591 27.2982 29.1734 27.8328 29.0576 28.4147C28.9419 28.9967 29.0013 29.5999 29.2284 30.1481C29.4554 30.6962 29.8399 31.1648 30.3333 31.4944C30.8266 31.8241 31.4067 32 32 32C32.7956 32 33.5587 31.6839 34.1213 31.1213C34.6839 30.5587 35 29.7957 35 29Z" fill="#EE5F64"/>
</svg>
