<svg width="56" height="55" viewBox="0 0 56 55" fill="none" xmlns="http://www.w3.org/2000/svg">
<circle cx="28" cy="27.5" r="27.5" fill="white"/>
<path d="M43.1004 29.8C42.9953 29.8788 42.8758 29.9361 42.7486 29.9687C42.6213 30.0013 42.489 30.0085 42.359 29.99C42.229 29.9714 42.1039 29.9274 41.9909 29.8605C41.8779 29.7936 41.7792 29.7051 41.7004 29.6C41.0976 28.7898 40.3131 28.1325 39.4099 27.6809C38.5068 27.2293 37.5102 26.9961 36.5004 27C36.3037 27 36.1115 26.942 35.9476 26.8333C35.7837 26.7246 35.6556 26.5699 35.5791 26.3888C35.5272 26.2657 35.5005 26.1336 35.5005 26C35.5005 25.8665 35.5272 25.7343 35.5791 25.6113C35.6556 25.4301 35.7837 25.2755 35.9476 25.1668C36.1115 25.058 36.3037 25 36.5004 25C37.0615 25 37.6113 24.8426 38.0874 24.5457C38.5635 24.2488 38.9469 23.8244 39.1938 23.3206C39.4408 22.8168 39.5416 22.2538 39.4846 21.6956C39.4277 21.1374 39.2154 20.6064 38.8717 20.1628C38.5281 19.7192 38.067 19.3809 37.5408 19.1863C37.0145 18.9917 36.4442 18.9485 35.8947 19.0617C35.3451 19.175 34.8384 19.4401 34.4319 19.8269C34.0255 20.2137 33.7357 20.7067 33.5954 21.25C33.5625 21.3772 33.505 21.4967 33.426 21.6017C33.347 21.7067 33.248 21.7951 33.1349 21.8618C33.0217 21.9285 32.8965 21.9723 32.7664 21.9907C32.6363 22.0091 32.5038 22.0016 32.3766 21.9688C32.2494 21.9359 32.1299 21.8784 32.0249 21.7994C31.92 21.7203 31.8316 21.6214 31.7648 21.5083C31.6981 21.3951 31.6543 21.2699 31.636 21.1398C31.6176 21.0097 31.625 20.8772 31.6579 20.75C31.8526 19.9967 32.2204 19.2991 32.7321 18.713C33.2438 18.1268 33.8853 17.6681 34.6054 17.3735C35.3256 17.0788 36.1046 16.9563 36.8804 17.0157C37.6563 17.0751 38.4075 17.3147 39.0745 17.7155C39.7414 18.1164 40.3056 18.6673 40.7221 19.3245C41.1386 19.9818 41.396 20.7272 41.4738 21.5014C41.5516 22.2756 41.4476 23.0573 41.1701 23.7842C40.8926 24.5112 40.4493 25.1633 39.8754 25.6888C41.2351 26.2775 42.4172 27.2118 43.3041 28.3988C43.3829 28.5041 43.4402 28.6239 43.4726 28.7514C43.505 28.8789 43.5119 29.0115 43.493 29.1417C43.4741 29.2718 43.4296 29.397 43.3623 29.51C43.2949 29.6229 43.2059 29.7215 43.1004 29.8ZM36.3654 37.5C36.4377 37.6138 36.4863 37.7411 36.5082 37.8742C36.5301 38.0073 36.5248 38.1434 36.4928 38.2744C36.4607 38.4054 36.4024 38.5286 36.3215 38.6365C36.2406 38.7444 36.1387 38.8348 36.0219 38.9023C35.9051 38.9698 35.7759 39.0129 35.642 39.0292C35.5082 39.0455 35.3724 39.0345 35.2428 38.9969C35.1133 38.9593 34.9927 38.8959 34.8883 38.8105C34.7839 38.7251 34.6979 38.6195 34.6354 38.5C34.0054 37.4334 33.1083 36.5494 32.0324 35.9353C30.9565 35.3212 29.7392 34.9982 28.5004 34.9982C27.2616 34.9982 26.0442 35.3212 24.9683 35.9353C23.8925 36.5494 22.9953 37.4334 22.3654 38.5C22.3029 38.6195 22.2168 38.7251 22.1124 38.8105C22.008 38.8959 21.8874 38.9593 21.7579 38.9969C21.6284 39.0345 21.4926 39.0455 21.3587 39.0292C21.2248 39.0129 21.0956 38.9698 20.9789 38.9023C20.8621 38.8348 20.7602 38.7444 20.6793 38.6365C20.5983 38.5286 20.5401 38.4054 20.508 38.2744C20.4759 38.1434 20.4707 38.0073 20.4926 37.8742C20.5144 37.7411 20.563 37.6138 20.6354 37.5C21.6049 35.8342 23.0831 34.5234 24.8529 33.76C23.857 32.9976 23.1252 31.9422 22.7601 30.7423C22.3951 29.5424 22.4153 28.2583 22.8178 27.0704C23.2203 25.8825 23.9849 24.8507 25.0042 24.1199C26.0235 23.389 27.2462 22.996 28.5004 22.996C29.7546 22.996 30.9773 23.389 31.9965 24.1199C33.0158 24.8507 33.7805 25.8825 34.183 27.0704C34.5855 28.2583 34.6057 29.5424 34.2406 30.7423C33.8756 31.9422 33.1437 32.9976 32.1479 33.76C33.9176 34.5234 35.3959 35.8342 36.3654 37.5ZM28.5004 33C29.2915 33 30.0649 32.7654 30.7227 32.3259C31.3805 31.8864 31.8931 31.2617 32.1959 30.5308C32.4986 29.7998 32.5779 28.9956 32.4235 28.2197C32.2692 27.4437 31.8882 26.731 31.3288 26.1716C30.7694 25.6122 30.0567 25.2312 29.2807 25.0769C28.5048 24.9225 27.7005 25.0018 26.9696 25.3045C26.2387 25.6073 25.614 26.1199 25.1745 26.7777C24.735 27.4355 24.5004 28.2089 24.5004 29C24.5004 30.0609 24.9218 31.0783 25.672 31.8284C26.4221 32.5786 27.4395 33 28.5004 33ZM21.5004 26C21.5004 25.7348 21.395 25.4804 21.2075 25.2929C21.0199 25.1054 20.7656 25 20.5004 25C19.9393 25 19.3895 24.8426 18.9133 24.5457C18.4372 24.2488 18.0539 23.8244 17.8069 23.3206C17.5599 22.8168 17.4592 22.2538 17.5161 21.6956C17.5731 21.1374 17.7854 20.6064 18.129 20.1628C18.4726 19.7192 18.9338 19.3809 19.46 19.1863C19.9863 18.9917 20.5565 18.9485 21.1061 19.0617C21.6556 19.175 22.1624 19.4401 22.5688 19.8269C22.9753 20.2137 23.2651 20.7067 23.4054 21.25C23.4717 21.5069 23.6373 21.727 23.8659 21.8618C24.0945 21.9966 24.3672 22.0351 24.6241 21.9688C24.8811 21.9025 25.1011 21.7368 25.2359 21.5083C25.3707 21.2797 25.4092 21.0069 25.3429 20.75C25.1482 19.9967 24.7803 19.2991 24.2686 18.713C23.7569 18.1268 23.1155 17.6681 22.3953 17.3735C21.6752 17.0788 20.8962 16.9563 20.1203 17.0157C19.3445 17.0751 18.5932 17.3147 17.9263 17.7155C17.2594 18.1164 16.6952 18.6673 16.2787 19.3245C15.8621 19.9818 15.6047 20.7272 15.527 21.5014C15.4492 22.2756 15.5532 23.0573 15.8307 23.7842C16.1082 24.5112 16.5515 25.1633 17.1254 25.6888C15.767 26.2781 14.5863 27.2123 13.7004 28.3988C13.5411 28.6109 13.4726 28.8777 13.51 29.1404C13.5474 29.403 13.6876 29.6401 13.8998 29.7994C14.1119 29.9587 14.3787 30.0272 14.6414 29.9898C14.904 29.9524 15.1411 29.8122 15.3004 29.6C15.9031 28.7898 16.6876 28.1325 17.5908 27.6809C18.494 27.2293 19.4906 26.9961 20.5004 27C20.7656 27 21.0199 26.8947 21.2075 26.7071C21.395 26.5196 21.5004 26.2652 21.5004 26Z" fill="#EE5F64"/>
</svg>
