<svg width="56" height="55" viewBox="0 0 56 55" fill="none" xmlns="http://www.w3.org/2000/svg">
<circle cx="28.25" cy="27.5" r="27.5" fill="white"/>
<path d="M35.75 22.1962V21.5C35.75 18.365 31.0212 16 24.75 16C18.4788 16 13.75 18.365 13.75 21.5V26.5C13.75 29.1112 17.0312 31.1863 21.75 31.8075V32.5C21.75 35.635 26.4788 38 32.75 38C39.0212 38 43.75 35.635 43.75 32.5V27.5C43.75 24.9125 40.5725 22.835 35.75 22.1962ZM41.75 27.5C41.75 29.1525 37.9012 31 32.75 31C32.2837 31 31.8212 30.9838 31.365 30.9538C34.0612 29.9713 35.75 28.375 35.75 26.5V24.2175C39.4838 24.7737 41.75 26.2838 41.75 27.5ZM21.75 29.7812V26.8075C22.7447 26.9371 23.7469 27.0014 24.75 27C25.7531 27.0014 26.7553 26.9371 27.75 26.8075V29.7812C26.7568 29.928 25.754 30.0011 24.75 30C23.746 30.0011 22.7432 29.928 21.75 29.7812ZM33.75 24.7413V26.5C33.75 27.5488 32.1988 28.675 29.75 29.3587V26.4375C31.3637 26.0462 32.73 25.4638 33.75 24.7413ZM24.75 18C29.9012 18 33.75 19.8475 33.75 21.5C33.75 23.1525 29.9012 25 24.75 25C19.5988 25 15.75 23.1525 15.75 21.5C15.75 19.8475 19.5988 18 24.75 18ZM15.75 26.5V24.7413C16.77 25.4638 18.1363 26.0462 19.75 26.4375V29.3587C17.3012 28.675 15.75 27.5488 15.75 26.5ZM23.75 32.5V31.9788C24.0788 31.9913 24.4112 32 24.75 32C25.235 32 25.7087 31.9837 26.1737 31.9562C26.6903 32.1412 27.2165 32.2981 27.75 32.4263V35.3587C25.3012 34.675 23.75 33.5488 23.75 32.5ZM29.75 35.7812V32.8C30.7444 32.9337 31.7467 33.0005 32.75 33C33.7531 33.0014 34.7553 32.9371 35.75 32.8075V35.7812C33.7606 36.0729 31.7394 36.0729 29.75 35.7812ZM37.75 35.3587V32.4375C39.3637 32.0462 40.73 31.4637 41.75 30.7412V32.5C41.75 33.5488 40.1988 34.675 37.75 35.3587Z" fill="#EE5F64"/>
</svg>
