<svg width="24" height="29" viewBox="0 0 24 29" fill="none" xmlns="http://www.w3.org/2000/svg">
<path d="M19.561 9.0113H18.8509C18.7462 9.0113 18.6414 9.0113 18.5366 9.0113C18.4319 8.65044 18.2922 8.31287 18.1059 7.9753C18.234 7.84725 18.362 7.71921 18.5017 7.57952L18.8509 7.23031L18.5599 6.83453C18.1525 6.27579 17.6752 5.78689 17.1048 5.39111L16.7091 5.11174L16.3715 5.46096C16.2784 5.55408 16.1853 5.6472 16.0921 5.74033C16.0572 5.77525 16.0106 5.82181 15.9757 5.85673C15.6498 5.68213 15.3006 5.5308 14.9397 5.42604V5.18159C14.9397 5.08846 14.9397 4.9837 14.9397 4.86729V4.37839L14.4625 4.29691C13.799 4.19215 13.1122 4.19215 12.4603 4.29691L11.9598 4.37839L11.983 4.89057C11.983 4.9837 11.983 5.08846 11.983 5.18159V5.32127V5.42604C11.6222 5.5308 11.273 5.67049 10.947 5.85673C10.9121 5.82181 10.8656 5.77525 10.8306 5.74033C10.7375 5.6472 10.6444 5.55408 10.5513 5.46096L10.2137 5.11174L9.81792 5.40275C9.25918 5.79853 8.77028 6.28743 8.36286 6.84617L8.07185 7.24195L8.42107 7.59116C8.54911 7.71921 8.6888 7.84725 8.81684 7.98694C8.64223 8.31287 8.49091 8.66208 8.38614 9.02294C8.28138 9.02294 8.17662 9.02294 8.07185 9.02294L7.3385 9.04622L7.25702 9.51184C7.19882 9.84941 7.17554 10.1986 7.17554 10.5362C7.17554 10.8738 7.19882 11.223 7.25702 11.5606L7.32686 11.9913L7.83904 12.0378H7.87396C7.96709 12.0378 8.06021 12.0378 8.15334 12.0378C8.23482 12.0378 8.3163 12.0378 8.39779 12.0378C8.50255 12.3987 8.65388 12.7479 8.82848 13.0855C8.78192 13.132 8.72372 13.1902 8.67716 13.2368L8.50255 13.4114C8.46763 13.4463 8.44435 13.4696 8.42107 13.4929L8.10677 13.8421L8.3745 14.2146C8.77028 14.7617 9.25918 15.2506 9.81792 15.6464L10.1904 15.9141L10.528 15.5998L10.5746 15.5532C10.6793 15.4368 10.7957 15.3321 10.9005 15.2273C10.9121 15.2157 10.9354 15.1924 10.947 15.1807C11.273 15.3553 11.6222 15.5067 11.983 15.6114C11.983 15.658 11.983 15.7162 11.983 15.7628C11.983 15.8908 11.983 16.0189 11.983 16.1469L12.018 16.6591L12.4603 16.7289C12.7862 16.7871 13.1238 16.8104 13.4614 16.8104C13.799 16.8104 14.1365 16.7871 14.4625 16.7289L14.9281 16.6591L14.9514 16.1585V16.1469C14.9514 16.0189 14.9514 15.8908 14.9514 15.7628C14.9514 15.7162 14.9514 15.658 14.9514 15.6114C15.3122 15.5067 15.6614 15.367 15.9874 15.1807C15.999 15.1924 16.0106 15.204 16.0339 15.2273C16.1387 15.3321 16.2551 15.4485 16.3599 15.5649L16.744 15.9141L17.1165 15.6464C17.6752 15.2506 18.1525 14.7733 18.5599 14.2146L18.8393 13.8304L18.525 13.4812C18.5017 13.458 18.4784 13.4347 18.4435 13.3998L18.2689 13.2251C18.2223 13.1786 18.1641 13.1204 18.1176 13.0738C18.3038 12.7362 18.4435 12.387 18.5599 12.0262C18.5715 12.0262 18.5832 12.0262 18.5948 12.0262C18.7578 12.0262 18.9208 12.0262 19.0721 12.0262L19.6192 11.9796L19.689 11.5489C19.7472 11.2113 19.7705 10.8738 19.7705 10.5246C19.7705 10.187 19.7472 9.83777 19.689 9.5002L19.561 9.0113ZM18.5832 10.8738C18.5715 10.8738 18.5715 10.8738 18.5599 10.8738C18.4086 10.8738 18.2689 10.8738 18.1176 10.8738L17.6054 10.9203L17.5239 11.3394C17.4191 11.8749 17.2096 12.3754 16.8953 12.841L16.6858 13.1553L16.8953 13.4696C16.9302 13.5162 16.9652 13.5627 17.0117 13.6093C17.1165 13.7024 17.2096 13.8072 17.3144 13.9119C17.1631 14.0865 16.9884 14.2495 16.8138 14.4008C16.7091 14.2961 16.6043 14.2029 16.5112 14.0865C16.4646 14.04 16.4181 14.0051 16.3715 13.9701L16.0572 13.7606L15.7429 13.9701C15.2889 14.2728 14.7884 14.4823 14.2529 14.5871L13.8921 14.6569L13.8106 15.0178C13.799 15.0876 13.7873 15.1691 13.7873 15.2506C13.7873 15.3903 13.7873 15.5183 13.7873 15.658C13.5662 15.6696 13.3333 15.6696 13.1122 15.658C13.1122 15.5183 13.1122 15.3903 13.1122 15.2506C13.1122 15.1691 13.1122 15.0993 13.0889 15.0294L13.0074 14.6686L12.6466 14.5987C12.1111 14.494 11.6106 14.2844 11.1566 13.9818L10.8423 13.7722L10.528 13.9818C10.4814 14.0167 10.4232 14.0516 10.3767 14.1098C10.2719 14.2146 10.1788 14.3193 10.074 14.4125C9.8994 14.2611 9.73644 14.0982 9.57347 13.9236C9.67824 13.8188 9.77136 13.7257 9.87612 13.6209C9.92269 13.5744 9.95761 13.5278 9.99253 13.4812L10.2137 13.1553L9.99253 12.8294C9.68988 12.3754 9.48035 11.8749 9.36394 11.3277L9.28246 10.9087L8.79356 10.8621H8.77028C8.6888 10.8621 8.60731 10.8621 8.53747 10.8621C8.45599 10.8621 8.38614 10.8621 8.30466 10.8621C8.29302 10.7457 8.29302 10.6293 8.29302 10.5013C8.29302 10.3849 8.29302 10.2568 8.30466 10.1404C8.43271 10.1404 8.56075 10.1404 8.70044 10.1404C8.79356 10.1404 8.87504 10.1288 8.95653 10.1171L9.2941 10.024L9.36394 9.6748C9.46871 9.15098 9.67824 8.65044 9.98089 8.19647L10.1904 7.89381L9.99253 7.57952C9.94597 7.49804 9.88776 7.43984 9.81792 7.36999L9.7248 7.27687C9.67824 7.23031 9.62003 7.1721 9.57347 7.12554C9.73644 6.95094 9.8994 6.77633 10.0857 6.625C10.1788 6.71813 10.2719 6.81125 10.365 6.90437C10.4465 6.98586 10.528 7.0557 10.6211 7.09062L10.9121 7.21867L11.1682 7.04406C11.6222 6.74141 12.1227 6.54352 12.6466 6.43876L12.9958 6.36891L13.0889 6.03134C13.1122 5.9615 13.1122 5.88001 13.1122 5.79853C13.1122 5.69377 13.1122 5.589 13.1122 5.48424V5.37947C13.3333 5.36783 13.5662 5.36783 13.7873 5.37947V5.48424C13.7873 5.589 13.7873 5.69377 13.7873 5.79853C13.7873 5.88001 13.7873 5.9615 13.8106 6.03134L13.9037 6.36891L14.2529 6.43876C14.7768 6.54352 15.2773 6.74141 15.7313 7.04406L15.9874 7.21867L16.2784 7.09062C16.3715 7.04406 16.453 6.98586 16.5345 6.90437C16.6276 6.81125 16.7207 6.71813 16.8138 6.625C17.0001 6.77633 17.1631 6.95094 17.326 7.12554C17.2795 7.1721 17.2213 7.23031 17.1747 7.27687L17.0816 7.36999C17.0117 7.43984 16.9535 7.49804 16.907 7.57952L16.7091 7.89381L16.9186 8.20811C17.2213 8.66208 17.4308 9.15098 17.5355 9.68644L17.6054 10.0357L17.943 10.1288C18.0244 10.1521 18.1059 10.1637 18.1991 10.1521C18.3271 10.1521 18.4551 10.1521 18.5832 10.1521C18.5948 10.2685 18.5948 10.3965 18.5948 10.5129C18.5948 10.641 18.5948 10.7574 18.5832 10.8738Z" fill="#2D2D2D"/>
<path d="M13.5673 0.00145132C9.31857 -0.0683914 5.4423 2.38775 3.69623 6.25238C3.06764 7.63759 2.74171 9.11593 2.74171 10.6525C2.74171 10.7107 2.74171 11.025 2.74171 11.5255C2.67187 11.8864 2.35758 12.2356 2.03164 12.5499C1.92688 12.6546 1.75227 12.8176 1.55438 13.0038C0.879238 13.6557 0.588226 13.9351 0.483462 14.0631C0.273933 14.3192 0.145889 14.552 0.0644054 14.7848C-0.203325 15.5997 0.4369 16.0071 0.646428 16.1351C0.890878 16.2865 1.13533 16.4029 1.32158 16.4843C1.50782 16.5775 1.70571 16.659 1.9036 16.7404L1.93852 16.7521C1.9618 16.7637 1.98508 16.7754 2.00836 16.787C2.17133 17.8696 2.78827 21.9204 2.78827 21.9437C2.85812 22.6305 3.09092 23.1543 3.47506 23.5035C4.15021 24.1205 5.04652 24.0856 5.77987 24.0739C6.31533 24.0623 6.78095 24.0623 7.26985 24.0623C7.30477 24.5046 7.35133 25.1798 7.38625 25.7618C7.42118 26.3438 7.46774 26.9375 7.49102 27.4031C7.5143 27.6708 7.64234 27.9269 7.86351 28.0899C8.02648 28.2179 8.23601 28.2878 8.4339 28.2878C8.4921 28.2878 8.56194 28.2761 8.62014 28.2645L20.4119 25.9131C21.0522 25.7851 21.5178 25.2147 21.5178 24.5628V22.421C21.5178 19.895 22.0649 17.3457 23.1358 14.843C23.7411 13.4462 24.0321 11.9562 23.9972 10.4197C23.939 4.68092 19.3294 0.094575 13.5673 0.00145132ZM22.1231 14.4123C20.9823 17.0547 20.4119 19.7553 20.4119 22.4443V24.5861C20.4119 24.6909 20.3304 24.7956 20.2257 24.8073L8.65506 27.1121C8.63178 26.693 8.59686 26.1925 8.56194 25.7036C8.42226 23.5501 8.41061 23.4453 8.38733 23.3522L8.27093 22.9332H7.82859H7.72383C7.0836 22.9332 6.46666 22.9215 5.77987 22.9448C5.19785 22.9564 4.60418 22.9797 4.27825 22.6771C4.10364 22.5141 3.99888 22.2347 3.95232 21.8157C3.94068 21.7691 3.12585 16.3796 3.12585 16.3796L3.10257 16.2283L2.9978 16.1118L2.86976 15.9722C2.74171 15.8674 2.59039 15.8092 2.48562 15.7743L2.36922 15.7277C2.18297 15.6462 2.00836 15.5764 1.82211 15.4833C1.64751 15.4018 1.46126 15.3087 1.27501 15.1923C1.24009 15.169 1.20517 15.1457 1.19353 15.1341C1.22845 15.0409 1.29829 14.9362 1.39142 14.8081C1.48454 14.7034 2.03164 14.1679 2.36922 13.8536C2.5671 13.6674 2.74171 13.4927 2.84648 13.388C3.30045 12.934 3.77771 12.3869 3.89412 11.6768L3.90576 11.6303V11.5837C3.90576 11.0599 3.90576 10.7223 3.90576 10.6641C3.90576 9.29054 4.18513 7.97517 4.75551 6.74128C6.31533 3.2957 9.77255 1.08401 13.5673 1.1655C18.7124 1.24698 22.8215 5.34442 22.9146 10.4895C22.9263 11.8398 22.6702 13.1668 22.1231 14.4123Z" fill="#2D2D2D"/>
</svg>
