<svg width="18" height="18" viewBox="0 0 18 18" fill="none" xmlns="http://www.w3.org/2000/svg">
<g clip-path="url(#clip0_19_1419)">
<path fill-rule="evenodd" clip-rule="evenodd" d="M11.0675 1.96609C12.4389 0.594638 14.6625 0.594638 16.0339 1.96609C17.4054 3.33753 17.4054 5.56109 16.0339 6.93254L8.91995 14.0465C8.51351 14.453 8.27426 14.6923 8.00809 14.8999C7.69436 15.1446 7.35491 15.3544 6.99575 15.5255C6.69102 15.6708 6.37001 15.7777 5.82468 15.9595L3.32633 16.7923L2.72477 16.9928C2.23685 17.1554 1.69892 17.0284 1.33524 16.6648C0.971565 16.3011 0.844577 15.7632 1.00722 15.2752L2.04051 12.1754C2.22227 11.63 2.32926 11.309 2.47449 11.0043C2.64566 10.6451 2.85545 10.3057 3.10015 9.99193C3.30776 9.72575 3.54704 9.48649 3.95353 9.08004L11.0675 1.96609ZM3.30038 15.6151L5.43152 14.9047C6.02486 14.7069 6.27695 14.6219 6.51175 14.51C6.79715 14.3739 7.06689 14.2072 7.31619 14.0128C7.52128 13.8528 7.7101 13.6654 8.15234 13.2231L13.8295 7.54602C13.238 7.33741 12.476 6.95072 11.7626 6.23738C11.0493 5.52404 10.6626 4.76204 10.454 4.17056L4.77688 9.84767C4.33463 10.2899 4.14719 10.4787 3.98723 10.6838C3.79278 10.9331 3.62607 11.2029 3.49005 11.4883C3.37816 11.7231 3.2931 11.9752 3.09532 12.5685L2.38494 14.6996L3.30038 15.6151ZM11.3665 3.25803C11.3922 3.38925 11.4355 3.56763 11.5079 3.77616C11.6707 4.24562 11.9784 4.86216 12.5581 5.44188C13.1379 6.02161 13.7544 6.32928 14.2239 6.49215C14.4324 6.5645 14.6108 6.60785 14.742 6.6335L15.2384 6.13704C16.1705 5.20494 16.1705 3.69369 15.2384 2.76158C14.3063 1.82947 12.7951 1.82947 11.863 2.76158L11.3665 3.25803Z" fill="#3684B3"/>
</g>
<defs>
<clipPath id="clip0_19_1419">
<rect width="18" height="18" fill="white"/>
</clipPath>
</defs>
</svg>
