<svg width="311" height="24" viewBox="0 0 311 24" fill="none" xmlns="http://www.w3.org/2000/svg">
<path d="M9.875 5.25H4.25C3.85218 5.25 3.47064 5.40804 3.18934 5.68934C2.90804 5.97064 2.75 6.35218 2.75 6.75V12.75C2.75 13.1478 2.90804 13.5294 3.18934 13.8107C3.47064 14.092 3.85218 14.25 4.25 14.25H9.875V15C9.875 15.7956 9.55893 16.5587 8.99632 17.1213C8.43371 17.6839 7.67065 18 6.875 18C6.67609 18 6.48532 18.079 6.34467 18.2197C6.20402 18.3603 6.125 18.5511 6.125 18.75C6.125 18.9489 6.20402 19.1397 6.34467 19.2803C6.48532 19.421 6.67609 19.5 6.875 19.5C8.06809 19.4988 9.21196 19.0243 10.0556 18.1806C10.8993 17.337 11.3738 16.1931 11.375 15V6.75C11.375 6.35218 11.217 5.97064 10.9357 5.68934C10.6544 5.40804 10.2728 5.25 9.875 5.25ZM9.875 12.75H4.25V6.75H9.875V12.75ZM20.75 5.25H15.125C14.7272 5.25 14.3456 5.40804 14.0643 5.68934C13.783 5.97064 13.625 6.35218 13.625 6.75V12.75C13.625 13.1478 13.783 13.5294 14.0643 13.8107C14.3456 14.092 14.7272 14.25 15.125 14.25H20.75V15C20.75 15.7956 20.4339 16.5587 19.8713 17.1213C19.3087 17.6839 18.5456 18 17.75 18C17.5511 18 17.3603 18.079 17.2197 18.2197C17.079 18.3603 17 18.5511 17 18.75C17 18.9489 17.079 19.1397 17.2197 19.2803C17.3603 19.421 17.5511 19.5 17.75 19.5C18.9431 19.4988 20.087 19.0243 20.9306 18.1806C21.7743 17.337 22.2488 16.1931 22.25 15V6.75C22.25 6.35218 22.092 5.97064 21.8107 5.68934C21.5294 5.40804 21.1478 5.25 20.75 5.25ZM20.75 12.75H15.125V6.75H20.75V12.75Z" fill="#636363"/>
<line x1="39" y1="11.5" x2="311" y2="11.5" stroke="#A9A8AA"/>
</svg>
