<svg width="24" height="24" viewBox="0 0 24 24" fill="none" xmlns="http://www.w3.org/2000/svg">
<path d="M9.75 16.5C9.75 16.6989 9.67098 16.8897 9.53033 17.0304C9.38968 17.171 9.19891 17.25 9 17.25H6C5.80109 17.25 5.61032 17.171 5.46967 17.0304C5.32902 16.8897 5.25 16.6989 5.25 16.5C5.25 16.3011 5.32902 16.1103 5.46967 15.9697C5.61032 15.829 5.80109 15.75 6 15.75H9C9.19891 15.75 9.38968 15.829 9.53033 15.9697C9.67098 16.1103 9.75 16.3011 9.75 16.5ZM9 12.75H6C5.80109 12.75 5.61032 12.829 5.46967 12.9697C5.32902 13.1103 5.25 13.3011 5.25 13.5C5.25 13.6989 5.32902 13.8897 5.46967 14.0304C5.61032 14.171 5.80109 14.25 6 14.25H9C9.19891 14.25 9.38968 14.171 9.53033 14.0304C9.67098 13.8897 9.75 13.6989 9.75 13.5C9.75 13.3011 9.67098 13.1103 9.53033 12.9697C9.38968 12.829 9.19891 12.75 9 12.75ZM9 9.75002H6C5.80109 9.75002 5.61032 9.82904 5.46967 9.96969C5.32902 10.1103 5.25 10.3011 5.25 10.5C5.25 10.6989 5.32902 10.8897 5.46967 11.0304C5.61032 11.171 5.80109 11.25 6 11.25H9C9.19891 11.25 9.38968 11.171 9.53033 11.0304C9.67098 10.8897 9.75 10.6989 9.75 10.5C9.75 10.3011 9.67098 10.1103 9.53033 9.96969C9.38968 9.82904 9.19891 9.75002 9 9.75002ZM21.75 8.25002V18.75C21.75 19.1478 21.592 19.5294 21.3107 19.8107C21.0294 20.092 20.6478 20.25 20.25 20.25H3.75C3.35218 20.25 2.97064 20.092 2.68934 19.8107C2.40804 19.5294 2.25 19.1478 2.25 18.75V7.50002C2.25005 7.33878 2.30205 7.18185 2.39831 7.0525C2.49456 6.92314 2.62994 6.82825 2.78438 6.7819L17.7844 2.2819C17.8787 2.25358 17.9778 2.24413 18.0758 2.25408C18.1738 2.26403 18.2689 2.29319 18.3557 2.3399C18.4424 2.3866 18.5191 2.44994 18.5814 2.52629C18.6437 2.60263 18.6903 2.6905 18.7186 2.78487C18.7469 2.87923 18.7564 2.97825 18.7464 3.07627C18.7365 3.17429 18.7073 3.26939 18.6606 3.35614C18.6139 3.44289 18.5506 3.5196 18.4742 3.58187C18.3979 3.64414 18.31 3.69077 18.2156 3.71909L8.11031 6.75002H20.25C20.6478 6.75002 21.0294 6.90806 21.3107 7.18936C21.592 7.47067 21.75 7.8522 21.75 8.25002ZM20.25 18.75V8.25002H3.75V18.75H20.25ZM18.75 13.5C18.75 14.2417 18.5301 14.9667 18.118 15.5834C17.706 16.2001 17.1203 16.6807 16.4351 16.9646C15.7498 17.2484 14.9958 17.3227 14.2684 17.178C13.541 17.0333 12.8728 16.6761 12.3483 16.1517C11.8239 15.6272 11.4667 14.959 11.3221 14.2316C11.1774 13.5042 11.2516 12.7502 11.5355 12.065C11.8193 11.3797 12.2999 10.7941 12.9166 10.382C13.5333 9.96996 14.2583 9.75002 15 9.75002C15.9946 9.75002 16.9484 10.1451 17.6517 10.8484C18.3549 11.5516 18.75 12.5055 18.75 13.5ZM17.25 13.5C17.25 13.055 17.118 12.62 16.8708 12.25C16.6236 11.88 16.2722 11.5916 15.861 11.4213C15.4499 11.251 14.9975 11.2064 14.561 11.2933C14.1246 11.3801 13.7237 11.5944 13.409 11.909C13.0943 12.2237 12.88 12.6246 12.7932 13.0611C12.7064 13.4975 12.751 13.9499 12.9213 14.3611C13.0916 14.7722 13.38 15.1236 13.75 15.3708C14.12 15.6181 14.555 15.75 15 15.75C15.5967 15.75 16.169 15.513 16.591 15.091C17.0129 14.6691 17.25 14.0968 17.25 13.5Z" fill="#8F5F2F"/>
</svg>
