<svg width="21" height="20" viewBox="0 0 21 20" fill="none" xmlns="http://www.w3.org/2000/svg">
<path d="M7.52076 11.875C7.33534 11.875 7.15408 11.82 6.99991 11.717C6.84574 11.614 6.72558 11.4676 6.65462 11.2963C6.58366 11.125 6.5651 10.9365 6.60127 10.7546C6.63744 10.5727 6.72673 10.4057 6.85784 10.2746C6.98895 10.1435 7.156 10.0542 7.33786 10.018C7.51972 9.98184 7.70822 10.0004 7.87952 10.0714C8.05083 10.1423 8.19724 10.2625 8.30026 10.4167C8.40327 10.5708 8.45826 10.7521 8.45826 10.9375C8.45826 11.1861 8.35948 11.4246 8.18367 11.6004C8.00785 11.7762 7.7694 11.875 7.52076 11.875ZM13.1458 10C12.9603 10 12.7791 10.055 12.6249 10.158C12.4707 10.261 12.3506 10.4074 12.2796 10.5787C12.2087 10.75 12.1901 10.9385 12.2263 11.1204C12.2624 11.3023 12.3517 11.4693 12.4828 11.6004C12.614 11.7315 12.781 11.8208 12.9629 11.857C13.1447 11.8932 13.3332 11.8746 13.5045 11.8036C13.6758 11.7327 13.8222 11.6125 13.9253 11.4583C14.0283 11.3042 14.0833 11.1229 14.0833 10.9375C14.0833 10.6889 13.9845 10.4504 13.8087 10.2746C13.6329 10.0988 13.3944 10 13.1458 10ZM18.4583 10C18.4583 11.607 17.9817 13.1779 17.0889 14.514C16.1962 15.8502 14.9272 16.8916 13.4426 17.5065C11.9579 18.1215 10.3242 18.2824 8.74815 17.9689C7.17205 17.6554 5.72431 16.8815 4.58801 15.7452C3.45171 14.6089 2.67788 13.1612 2.36438 11.5851C2.05087 10.009 2.21177 8.37535 2.82673 6.8907C3.4417 5.40605 4.4831 4.1371 5.81925 3.24431C7.1554 2.35152 8.72628 1.875 10.3333 1.875C12.4874 1.87727 14.5527 2.73403 16.076 4.25727C17.5992 5.78051 18.456 7.84581 18.4583 10ZM17.2083 10C17.2083 8.64025 16.805 7.31104 16.0496 6.18045C15.2942 5.04987 14.2204 4.16868 12.9642 3.64833C11.708 3.12798 10.3256 2.99183 8.99201 3.2571C7.65839 3.52237 6.43338 4.17715 5.4719 5.13864C4.51041 6.10013 3.85563 7.32513 3.59036 8.65875C3.32508 9.99237 3.46123 11.3747 3.98158 12.6309C4.50194 13.8872 5.38312 14.9609 6.51371 15.7164C7.6443 16.4718 8.97351 16.875 10.3333 16.875C12.156 16.8729 13.9035 16.1479 15.1923 14.8591C16.4812 13.5702 17.2062 11.8227 17.2083 10ZM13.7364 6.35469L10.3333 8.62422L6.93013 6.35859C6.79214 6.2666 6.62325 6.23319 6.46062 6.26571C6.29799 6.29824 6.15494 6.39404 6.06294 6.53203C5.97095 6.67003 5.93754 6.83892 5.97006 7.00154C6.00259 7.16417 6.09838 7.30722 6.23638 7.39922L9.98638 9.89922C10.0891 9.96774 10.2098 10.0043 10.3333 10.0043C10.4567 10.0043 10.5774 9.96774 10.6801 9.89922L14.4301 7.39922C14.5681 7.30722 14.6639 7.16417 14.6965 7.00154C14.729 6.83892 14.6956 6.67003 14.6036 6.53203C14.5116 6.39404 14.3685 6.29824 14.2059 6.26571C14.0433 6.23319 13.8744 6.2666 13.7364 6.35859V6.35469ZM12.5543 13.8547C11.8958 13.4164 11.2661 13.125 10.3333 13.125C9.40044 13.125 8.77076 13.4164 8.11216 13.8547C7.97732 13.9478 7.88445 14.0902 7.85355 14.2511C7.82265 14.412 7.85619 14.5787 7.94695 14.7151C8.0377 14.8515 8.17842 14.9469 8.33879 14.9806C8.49915 15.0143 8.66634 14.9837 8.80435 14.8953C9.31216 14.5578 9.70826 14.375 10.3333 14.375C10.9583 14.375 11.3543 14.5578 11.8622 14.8953C11.9305 14.9425 12.0075 14.9756 12.0887 14.9927C12.1699 15.0097 12.2537 15.0105 12.3352 14.9948C12.4167 14.9792 12.4943 14.9475 12.5634 14.9015C12.6325 14.8555 12.6918 14.7963 12.7377 14.7272C12.7837 14.6581 12.8154 14.5805 12.8311 14.499C12.8468 14.4175 12.846 14.3337 12.829 14.2525C12.8119 14.1713 12.7788 14.0943 12.7317 14.026C12.6845 13.9577 12.6242 13.8994 12.5543 13.8547Z" fill="white"/>
</svg>
