<svg width="21" height="20" viewBox="0 0 21 20" fill="none" xmlns="http://www.w3.org/2000/svg">
<path d="M10.6668 1.875C9.05978 1.875 7.48889 2.35152 6.15274 3.24431C4.81659 4.1371 3.77519 5.40605 3.16023 6.8907C2.54527 8.37535 2.38437 10.009 2.69787 11.5851C3.01138 13.1612 3.78521 14.6089 4.92151 15.7452C6.05781 16.8815 7.50555 17.6554 9.08164 17.9689C10.6577 18.2824 12.2914 18.1215 13.7761 17.5065C15.2607 16.8916 16.5297 15.8502 17.4224 14.514C18.3152 13.1779 18.7918 11.607 18.7918 10C18.7895 7.84581 17.9327 5.78051 16.4095 4.25727C14.8862 2.73403 12.8209 1.87727 10.6668 1.875ZM10.6668 16.875C9.30701 16.875 7.97779 16.4718 6.84721 15.7164C5.71662 14.9609 4.83543 13.8872 4.31508 12.6309C3.79473 11.3747 3.65858 9.99237 3.92385 8.65875C4.18913 7.32513 4.84391 6.10013 5.80539 5.13864C6.76688 4.17715 7.99189 3.52237 9.32551 3.2571C10.6591 2.99183 12.0415 3.12798 13.2977 3.64833C14.5539 4.16868 15.6277 5.04987 16.3831 6.18045C17.1385 7.31104 17.5418 8.64025 17.5418 10C17.5397 11.8227 16.8147 13.5702 15.5258 14.8591C14.237 16.1479 12.4895 16.8729 10.6668 16.875ZM6.91675 8.4375C6.91675 8.25208 6.97173 8.07082 7.07475 7.91665C7.17776 7.76248 7.32418 7.64232 7.49549 7.57136C7.66679 7.50041 7.85529 7.48184 8.03715 7.51801C8.21901 7.55419 8.38605 7.64348 8.51716 7.77459C8.64828 7.9057 8.73756 8.07275 8.77374 8.2546C8.80991 8.43646 8.79135 8.62496 8.72039 8.79627C8.64943 8.96757 8.52927 9.11399 8.3751 9.217C8.22093 9.32002 8.03967 9.375 7.85425 9.375C7.60561 9.375 7.36715 9.27623 7.19134 9.10041C7.01552 8.9246 6.91675 8.68614 6.91675 8.4375ZM14.4168 8.4375C14.4168 8.62292 14.3618 8.80418 14.2588 8.95835C14.1557 9.11252 14.0093 9.23268 13.838 9.30364C13.6667 9.37459 13.4782 9.39316 13.2964 9.35699C13.1145 9.32081 12.9475 9.23152 12.8163 9.10041C12.6852 8.9693 12.5959 8.80225 12.5598 8.6204C12.5236 8.43854 12.5422 8.25004 12.6131 8.07873C12.6841 7.90743 12.8042 7.76101 12.9584 7.658C13.1126 7.55498 13.2938 7.5 13.4793 7.5C13.7279 7.5 13.9663 7.59877 14.1422 7.77459C14.318 7.9504 14.4168 8.18886 14.4168 8.4375ZM14.3324 13.4375C14.3776 13.5086 14.408 13.5882 14.4216 13.6714C14.4353 13.7545 14.432 13.8396 14.412 13.9215C14.3919 14.0034 14.3555 14.0803 14.3049 14.1478C14.2544 14.2152 14.1907 14.2717 14.1177 14.3139C14.0447 14.3561 13.964 14.3831 13.8803 14.3932C13.7966 14.4034 13.7117 14.3965 13.6308 14.373C13.5498 14.3496 13.4745 14.3099 13.4092 14.2566C13.344 14.2032 13.2902 14.1372 13.2511 14.0625C12.6675 13.0539 11.7503 12.5 10.6668 12.5C9.58316 12.5 8.66597 13.0547 8.08238 14.0625C8.0433 14.1372 7.98953 14.2032 7.92428 14.2566C7.85904 14.3099 7.78367 14.3496 7.70271 14.373C7.62176 14.3965 7.53689 14.4034 7.45321 14.3932C7.36953 14.3831 7.28877 14.3561 7.2158 14.3139C7.14282 14.2717 7.07913 14.2152 7.02855 14.1478C6.97798 14.0803 6.94157 14.0034 6.92152 13.9215C6.90147 13.8396 6.89818 13.7545 6.91186 13.6714C6.92554 13.5882 6.95591 13.5086 7.00113 13.4375C7.80503 12.0477 9.14097 11.25 10.6668 11.25C12.1925 11.25 13.5285 12.0469 14.3324 13.4375Z" fill="white"/>
</svg>
