<svg width="205" height="126" viewBox="0 0 205 126" fill="none" xmlns="http://www.w3.org/2000/svg">
<rect width="205" height="126" rx="10" fill="white"/>
<path d="M86.9199 53H82.0719V44.84H86.9199V45.62H82.9119V48.524H86.7999V49.316H82.9119V52.22H86.9199V53ZM91.8244 53L90.5044 50.948L89.1844 53H88.1164L89.9644 50.348L88.1164 47.72H89.1844L90.5044 49.748L91.8244 47.72H92.8924L91.0444 50.36L92.8924 53H91.8244ZM99.2553 50.24V50.684H94.6113C94.6833 51.14 94.9113 51.512 95.2713 51.8C95.6313 52.1 96.0393 52.244 96.4953 52.244C96.7953 52.244 97.0833 52.184 97.3593 52.04C97.6353 51.896 97.8633 51.704 98.0553 51.452H99.0153C98.7873 51.956 98.4513 52.364 97.9953 52.652C97.5393 52.94 97.0833 53.084 96.6153 53.084C96.1473 53.084 95.7513 53.012 95.4153 52.868C95.0793 52.724 94.7913 52.532 94.5393 52.28C93.9993 51.752 93.7353 51.104 93.7353 50.336C93.7353 49.58 93.9993 48.932 94.5393 48.392C95.0793 47.852 95.7273 47.576 96.4953 47.576C97.2273 47.576 97.8753 47.84 98.4153 48.356C98.9673 48.896 99.2553 49.52 99.2553 50.24ZM98.3673 49.964C98.2593 49.52 98.0433 49.148 97.6833 48.848C97.3353 48.56 96.9393 48.416 96.4953 48.416C95.7993 48.416 95.2593 48.728 94.8753 49.352C94.7553 49.544 94.6713 49.748 94.6233 49.964H98.3673ZM103.346 48.812C103.142 48.644 102.938 48.548 102.722 48.548C102.506 48.548 102.314 48.62 102.158 48.74C102.002 48.86 101.87 49.016 101.774 49.196C101.57 49.544 101.474 49.928 101.474 50.36V53H100.634V47.72H101.474V48.812L101.51 48.596C101.786 47.948 102.218 47.612 102.818 47.612C102.998 47.612 103.178 47.648 103.346 47.72V48.812ZM109.293 49.616H108.381C108.237 49.28 108.009 49.016 107.709 48.8C107.397 48.596 107.097 48.488 106.785 48.488C106.473 48.488 106.197 48.548 105.981 48.644C105.753 48.74 105.561 48.884 105.393 49.052C105.033 49.424 104.865 49.868 104.865 50.36C104.865 50.876 105.033 51.32 105.393 51.692C105.753 52.064 106.185 52.244 106.701 52.244C107.037 52.244 107.337 52.16 107.625 51.98C107.913 51.812 108.129 51.572 108.297 51.272H109.245C108.945 52.124 108.369 52.688 107.529 52.988C107.265 53.084 106.965 53.12 106.629 53.12C106.293 53.12 105.957 53.048 105.633 52.904C105.297 52.76 105.021 52.556 104.781 52.304C104.253 51.752 104.001 51.116 104.001 50.36C104.001 49.616 104.253 48.968 104.781 48.428C105.297 47.888 105.945 47.612 106.701 47.612C107.301 47.612 107.841 47.804 108.333 48.176C108.801 48.548 109.125 49.028 109.293 49.616ZM111.471 45.896C111.567 46.004 111.627 46.136 111.627 46.28C111.627 46.424 111.567 46.556 111.471 46.652C111.363 46.76 111.231 46.808 111.087 46.808C110.943 46.808 110.811 46.76 110.715 46.652C110.607 46.556 110.559 46.424 110.559 46.28C110.559 46.136 110.607 46.004 110.715 45.896C110.811 45.8 110.943 45.74 111.087 45.74C111.231 45.74 111.363 45.8 111.471 45.896ZM111.519 53H110.679V47.72H111.519V53ZM114.117 52.256C114.333 52.4 114.609 52.46 114.933 52.46C115.701 52.46 116.085 52.184 116.085 51.608C116.085 51.272 115.809 51.008 115.269 50.828C115.029 50.756 114.777 50.684 114.513 50.624C114.249 50.552 113.997 50.468 113.757 50.36C113.493 50.24 113.289 50.084 113.145 49.88C113.013 49.688 112.941 49.46 112.941 49.208C112.941 48.68 113.133 48.284 113.493 48.008C113.865 47.744 114.309 47.6 114.813 47.6C115.329 47.6 115.749 47.708 116.097 47.924C116.433 48.128 116.661 48.5 116.769 49.028H115.869C115.785 48.74 115.641 48.548 115.461 48.452C115.281 48.356 115.053 48.296 114.789 48.296C114.537 48.296 114.309 48.356 114.117 48.476C113.925 48.584 113.829 48.764 113.829 49.004C113.829 49.244 113.913 49.412 114.069 49.52C114.225 49.628 114.417 49.724 114.657 49.796C114.885 49.868 115.137 49.94 115.401 50C115.677 50.06 115.929 50.144 116.157 50.252C116.709 50.516 116.973 50.924 116.973 51.5C116.973 52.064 116.769 52.484 116.361 52.76C116.157 52.892 115.941 52.988 115.689 53.06C115.437 53.132 115.173 53.156 114.885 53.156C113.661 53.156 112.965 52.616 112.785 51.524H113.673C113.757 51.872 113.913 52.112 114.117 52.256ZM123.349 50.24V50.684H118.705C118.777 51.14 119.005 51.512 119.365 51.8C119.725 52.1 120.133 52.244 120.589 52.244C120.889 52.244 121.177 52.184 121.453 52.04C121.729 51.896 121.957 51.704 122.149 51.452H123.109C122.881 51.956 122.545 52.364 122.089 52.652C121.633 52.94 121.177 53.084 120.709 53.084C120.241 53.084 119.845 53.012 119.509 52.868C119.173 52.724 118.885 52.532 118.633 52.28C118.093 51.752 117.829 51.104 117.829 50.336C117.829 49.58 118.093 48.932 118.633 48.392C119.173 47.852 119.821 47.576 120.589 47.576C121.321 47.576 121.969 47.84 122.509 48.356C123.061 48.896 123.349 49.52 123.349 50.24ZM122.461 49.964C122.353 49.52 122.137 49.148 121.777 48.848C121.429 48.56 121.033 48.416 120.589 48.416C119.893 48.416 119.353 48.728 118.969 49.352C118.849 49.544 118.765 49.748 118.717 49.964H122.461Z" fill="#636363"/>
<g clip-path="url(#clip0_530_1519)">
<path d="M103 10C96.3833 10 91 15.3833 91 22C91 28.6167 96.3833 34 103 34C109.617 34 115 28.6167 115 22C115 15.3833 109.617 10 103 10Z" fill="#303C42"/>
<path d="M103 33C96.9346 33 92 28.0654 92 22C92 15.9346 96.9346 11 103 11C109.065 11 114 15.9346 114 22C114 28.0654 109.065 33 103 33Z" fill="#FED600"/>
<path opacity="0.1" d="M110.119 13.6302C111.756 15.551 112.75 18.0349 112.75 20.75C112.75 26.8154 107.815 31.75 101.75 31.75C99.0345 31.75 96.5506 30.7562 94.6299 29.1198C96.6491 31.4899 99.6493 33 103 33C109.065 33 114 28.0654 114 22C114 18.6497 112.49 15.6495 110.119 13.6302Z" fill="#010101"/>
<path d="M109.5 18.5C109.224 18.5 109 18.7236 109 19C109 20.103 108.103 21 107 21C105.897 21 105 20.103 105 19C105 18.7236 104.776 18.5 104.5 18.5C104.224 18.5 104 18.7236 104 19C104 20.6543 105.346 22 107 22C108.654 22 110 20.6543 110 19C110 18.7236 109.776 18.5 109.5 18.5Z" fill="#303C42"/>
<path d="M102 19C102 18.7236 101.776 18.5 101.5 18.5C101.224 18.5 101 18.7236 101 19C101 20.103 100.103 21 99 21C97.897 21 97 20.103 97 19C97 18.7236 96.7764 18.5 96.5 18.5C96.2236 18.5 96 18.7236 96 19C96 20.6543 97.3457 22 99 22C100.654 22 102 20.6543 102 19Z" fill="#303C42"/>
<path d="M103 25H102.998C98.7975 25 97.1672 27.1104 97.0998 27.2002C96.9347 27.4199 96.9792 27.73 97.1979 27.8965C97.4172 28.0625 97.7292 28.02 97.8976 27.8027C97.9543 27.729 99.3322 26 102.998 26H103C106.667 26.0005 108.045 27.7295 108.1 27.8003C108.198 27.9312 108.348 28 108.5 28C108.605 28 108.71 27.9673 108.8 27.8999C109.021 27.7344 109.066 27.4209 108.9 27.1997C108.832 27.1104 107.201 25.0005 103 25Z" fill="#303C42"/>
<path d="M110.598 17.0098L105.598 16.0098C105.324 15.9521 105.064 16.1309 105.01 16.4019C104.956 16.6729 105.131 16.936 105.402 16.9902L110.402 17.9902C110.435 17.9971 110.468 18 110.501 18C110.734 18 110.943 17.8359 110.99 17.5981C111.044 17.3271 110.869 17.064 110.598 17.0098Z" fill="#303C42"/>
<path d="M100.99 16.4019C100.936 16.1313 100.677 15.9531 100.402 16.0098L95.4019 17.0098C95.1314 17.064 94.9556 17.3271 95.0098 17.5981C95.0572 17.8359 95.2662 18 95.4996 18C95.5318 18 95.565 17.9971 95.5982 17.9902L100.598 16.9902C100.869 16.936 101.044 16.6729 100.99 16.4019Z" fill="#303C42"/>
<path d="M103 10C96.3833 10 91 15.3833 91 22C91 28.6167 96.3833 34 103 34C109.617 34 115 28.6167 115 22C115 15.3833 109.617 10 103 10Z" fill="url(#paint0_linear_530_1519)"/>
</g>
<rect x="58.4834" y="80" width="120.517" height="5" rx="2.5" fill="#F0F0F0"/>
<rect x="26" y="80" width="95.5662" height="5" rx="2.5" fill="#EE5F64"/>
<circle cx="128.741" cy="83" r="10" fill="#EE5F64"/>
<circle cx="128.741" cy="83" r="4" fill="white"/>
<path d="M28.5622 110V101.474H27.1902V100.62L29.5422 100.368V110H28.5622Z" fill="#A9A8AA"/>
<path d="M39.964 110L44.892 105.03C45.312 104.61 45.522 104.106 45.522 103.49C45.522 102.902 45.298 102.398 44.864 101.964C44.43 101.544 43.912 101.334 43.31 101.334C42.68 101.334 42.148 101.572 41.714 102.034C41.266 102.524 41.07 103.056 41.126 103.644H40.132C40.09 102.734 40.384 101.95 41.014 101.306C41.658 100.662 42.428 100.326 43.352 100.326C44.22 100.326 44.976 100.648 45.62 101.264C46.25 101.88 46.572 102.622 46.572 103.504C46.572 104.372 46.264 105.114 45.648 105.73L42.33 109.02H46.67V110H39.964Z" fill="#A9A8AA"/>
<path d="M61.1246 109.902C60.7326 110.07 60.3546 110.14 59.9626 110.14C59.5706 110.14 59.2206 110.098 58.9126 109.986C58.5906 109.888 58.2966 109.748 58.0306 109.566C57.4566 109.174 57.0646 108.67 56.8546 108.04L57.8066 107.718C57.9606 108.166 58.2266 108.516 58.6186 108.768C58.9966 109.02 59.3746 109.146 59.7666 109.146C60.1446 109.146 60.4666 109.09 60.7466 108.978C61.0126 108.866 61.2506 108.698 61.4466 108.502C61.8946 108.082 62.1186 107.564 62.1186 106.962C62.1186 106.36 61.8946 105.842 61.4606 105.408C61.0266 104.974 60.5086 104.75 59.8926 104.75C59.2766 104.75 58.7446 104.974 58.2966 105.422L57.5546 104.82L60.4386 101.46H57.3026V100.48H62.4266L59.4446 104.008L59.8646 103.756C60.7746 103.826 61.5306 104.148 62.1326 104.722C62.7766 105.338 63.0986 106.094 63.0986 106.976C63.0986 107.872 62.7766 108.614 62.1466 109.23C61.8526 109.51 61.5166 109.734 61.1246 109.902Z" fill="#A9A8AA"/>
<path d="M77.5147 101.544L73.8747 107.046H77.5147V101.544ZM78.5367 108.054V110H77.5147V108.054H72.1387L77.1507 100.48H78.5227L78.5367 107.046H79.7407V108.054H78.5367Z" fill="#A9A8AA"/>
<path d="M91.213 104.008C91.689 103.868 92.123 103.784 92.543 103.784C92.949 103.784 93.341 103.868 93.733 104.036C94.111 104.204 94.447 104.414 94.741 104.694C95.357 105.296 95.665 106.038 95.665 106.92C95.665 107.816 95.343 108.586 94.727 109.216C94.097 109.86 93.327 110.168 92.431 110.168C91.759 110.168 91.129 109.986 90.569 109.594C90.009 109.216 89.617 108.698 89.393 108.068L90.345 107.76C90.499 108.18 90.765 108.53 91.157 108.782C91.535 109.048 91.913 109.174 92.305 109.174C92.697 109.174 93.019 109.118 93.285 109.006C93.551 108.894 93.789 108.726 93.999 108.53C94.433 108.124 94.657 107.606 94.657 106.99C94.657 106.416 94.433 105.898 94.013 105.436C93.593 105.002 93.089 104.778 92.529 104.778C91.969 104.778 91.479 104.932 91.087 105.226L90.023 104.75L91.115 100.48H95.301V101.46H91.857L91.213 104.008Z" fill="#A9A8AA"/>
<path d="M108.46 104.806C108.152 104.806 107.872 104.876 107.606 104.988C107.326 105.1 107.088 105.254 106.892 105.45C106.444 105.87 106.234 106.388 106.234 106.976C106.234 107.592 106.444 108.096 106.892 108.53C107.326 108.964 107.858 109.174 108.46 109.174C109.076 109.174 109.594 108.964 110.014 108.544C110.434 108.124 110.658 107.606 110.658 107.018C110.658 106.43 110.434 105.912 110.014 105.464C109.58 105.03 109.062 104.806 108.46 104.806ZM111.652 106.948C111.652 107.424 111.568 107.844 111.4 108.222C111.232 108.614 110.994 108.95 110.714 109.23C110.098 109.846 109.342 110.154 108.446 110.154C107.564 110.154 106.808 109.846 106.178 109.23C105.548 108.614 105.24 107.872 105.24 106.976C105.24 106.22 105.478 105.548 105.954 104.974L109.678 100.48H110.966L108.054 103.98L108.334 103.798C109.286 103.84 110.056 104.134 110.672 104.68C111.316 105.282 111.652 106.038 111.652 106.948Z" fill="#A9A8AA"/>
<path d="M122.593 110H121.501L125.253 101.502H120.801V100.522H126.779L122.593 110Z" fill="#A9A8AA"/>
<path d="M139.22 105.156C138.646 105.156 138.17 105.352 137.778 105.73C137.386 106.108 137.204 106.584 137.204 107.13C137.204 107.69 137.386 108.166 137.778 108.558C138.156 108.964 138.632 109.16 139.22 109.16C139.794 109.16 140.27 108.964 140.662 108.558C141.04 108.166 141.236 107.69 141.236 107.13C141.236 106.584 141.04 106.108 140.648 105.73C140.256 105.352 139.78 105.156 139.22 105.156ZM139.22 101.292C138.758 101.292 138.366 101.446 138.058 101.74C137.722 102.048 137.568 102.426 137.568 102.874C137.568 103.322 137.722 103.7 138.058 104.022C138.366 104.344 138.758 104.498 139.22 104.498C139.668 104.498 140.06 104.344 140.382 104.022C140.704 103.7 140.872 103.322 140.872 102.874C140.872 102.426 140.704 102.048 140.382 101.74C140.06 101.446 139.668 101.292 139.22 101.292ZM139.22 110.14C138.338 110.14 137.61 109.888 137.008 109.37C136.392 108.838 136.098 108.152 136.098 107.284C136.098 106.822 136.224 106.374 136.504 105.926C136.784 105.478 137.176 105.114 137.694 104.834C136.938 104.218 136.56 103.532 136.56 102.79C136.56 102.076 136.812 101.474 137.33 100.998C137.82 100.55 138.45 100.326 139.22 100.326C139.976 100.326 140.606 100.55 141.096 100.998C141.614 101.474 141.88 102.076 141.88 102.804C141.88 103.532 141.502 104.218 140.746 104.834C141.25 105.114 141.642 105.478 141.922 105.926C142.202 106.374 142.342 106.822 142.342 107.27C142.342 107.718 142.258 108.124 142.09 108.474C141.922 108.824 141.698 109.118 141.418 109.37C140.816 109.888 140.088 110.14 139.22 110.14Z" fill="#A9A8AA"/>
<path d="M155.085 105.674C155.393 105.674 155.673 105.618 155.953 105.506C156.219 105.394 156.457 105.226 156.653 105.03C157.101 104.61 157.325 104.092 157.325 103.504C157.325 102.902 157.101 102.398 156.667 101.964C156.219 101.53 155.687 101.306 155.099 101.306C154.483 101.306 153.965 101.516 153.545 101.936C153.111 102.37 152.901 102.874 152.901 103.462C152.901 104.064 153.111 104.582 153.531 105.016C153.965 105.464 154.483 105.674 155.085 105.674ZM151.907 103.532C151.907 103.07 151.991 102.65 152.159 102.258C152.327 101.88 152.551 101.544 152.845 101.25C153.461 100.634 154.217 100.326 155.113 100.326C155.981 100.326 156.737 100.648 157.381 101.264C157.997 101.88 158.319 102.622 158.319 103.504C158.319 104.274 158.081 104.946 157.605 105.506L153.881 110H152.593L155.505 106.5L155.225 106.682C154.259 106.654 153.489 106.36 152.887 105.8C152.229 105.212 151.907 104.456 151.907 103.532Z" fill="#A9A8AA"/>
<path d="M169.145 110V101.474H167.773V100.62L170.125 100.368V110H169.145ZM175.769 101.586C175.545 101.446 175.265 101.376 174.957 101.376C174.649 101.376 174.369 101.446 174.145 101.586C173.921 101.726 173.725 101.894 173.557 102.118C173.389 102.342 173.263 102.594 173.165 102.874C173.053 103.154 172.983 103.448 172.927 103.728C172.815 104.246 172.773 104.694 172.773 105.044C172.773 105.394 172.773 105.702 172.801 105.968C172.829 106.248 172.871 106.528 172.927 106.808C172.983 107.102 173.053 107.382 173.165 107.662C173.277 107.942 173.403 108.18 173.571 108.404C173.935 108.894 174.411 109.132 174.999 109.132C175.517 109.132 175.951 108.894 176.315 108.39C176.749 107.816 177.015 107.004 177.127 105.968C177.155 105.702 177.169 105.464 177.169 105.268C177.169 104.428 177.029 103.644 176.763 102.888C176.539 102.3 176.217 101.866 175.769 101.586ZM175.013 110.126C173.879 110.126 173.039 109.58 172.465 108.474C172.017 107.592 171.793 106.514 171.793 105.226C171.793 103.952 172.017 102.874 172.465 101.992C173.039 100.886 173.879 100.326 175.013 100.326C176.133 100.326 176.973 100.886 177.547 101.992C177.995 102.874 178.233 103.952 178.233 105.226C178.233 106.514 177.995 107.592 177.547 108.474C176.973 109.58 176.133 110.126 175.013 110.126Z" fill="#A9A8AA"/>
<defs>
<linearGradient id="paint0_linear_530_1519" x1="92.1249" y1="16.9289" x2="113.875" y2="27.0711" gradientUnits="userSpaceOnUse">
<stop stop-color="white" stop-opacity="0.2"/>
<stop offset="1" stop-color="white" stop-opacity="0"/>
</linearGradient>
<clipPath id="clip0_530_1519">
<rect width="24" height="24" fill="white" transform="translate(91 10)"/>
</clipPath>
</defs>
</svg>
