<svg width="177" height="126" viewBox="0 0 177 126" fill="none" xmlns="http://www.w3.org/2000/svg">
<rect width="177" height="126" fill="#3684B3"/>
<path d="M76.3591 52.16H79.2751V53H76.3591H75.9391H75.5191V44.84H76.3591V52.16ZM84.6176 50.36C84.6176 49.856 84.4376 49.4 84.0776 49.016C83.7176 48.632 83.2736 48.44 82.7576 48.44C82.2296 48.44 81.7856 48.632 81.4256 49.016C81.0656 49.4 80.8976 49.856 80.8976 50.36C80.8976 50.876 81.0656 51.332 81.4256 51.704C81.7856 52.088 82.2296 52.28 82.7576 52.28C83.2736 52.28 83.7176 52.088 84.0776 51.704C84.4376 51.332 84.6176 50.876 84.6176 50.36ZM85.4576 53H84.6176V52.1C84.5696 52.172 84.5096 52.232 84.4616 52.28C83.9576 52.844 83.3456 53.12 82.6256 53.12C81.8936 53.12 81.2816 52.844 80.7776 52.28C80.2976 51.74 80.0576 51.104 80.0576 50.36C80.0576 49.628 80.2976 48.992 80.7776 48.44C81.2816 47.888 81.8936 47.6 82.6256 47.6C83.3456 47.6 83.9576 47.888 84.4616 48.44C84.5096 48.5 84.5696 48.56 84.6176 48.632V47.72H85.4576V53ZM88.1013 53H87.2613V44H88.1013V48.632C88.1373 48.56 88.1973 48.5 88.2453 48.44C88.7493 47.888 89.3613 47.6 90.0933 47.6C90.8133 47.6 91.4253 47.888 91.9293 48.44C92.4093 48.992 92.6613 49.628 92.6613 50.36C92.6613 51.104 92.4093 51.74 91.9293 52.28C91.4253 52.844 90.8133 53.12 90.0933 53.12C89.3613 53.12 88.7493 52.844 88.2453 52.28C88.1973 52.232 88.1373 52.172 88.1013 52.1V53ZM91.8213 50.36C91.8213 49.856 91.6413 49.4 91.2813 49.016C90.9213 48.632 90.4773 48.44 89.9613 48.44C89.4333 48.44 88.9893 48.632 88.6293 49.016C88.2693 49.4 88.1013 49.856 88.1013 50.36C88.1013 50.876 88.2693 51.332 88.6293 51.704C88.9893 52.088 89.4333 52.28 89.9613 52.28C90.4773 52.28 90.9213 52.088 91.2813 51.704C91.6413 51.332 91.8213 50.876 91.8213 50.36ZM99.2651 50.24V50.684H94.6211C94.6931 51.14 94.9211 51.512 95.2811 51.8C95.6411 52.1 96.0491 52.244 96.5051 52.244C96.8051 52.244 97.0931 52.184 97.3691 52.04C97.6451 51.896 97.8731 51.704 98.0651 51.452H99.0251C98.7971 51.956 98.4611 52.364 98.0051 52.652C97.5491 52.94 97.0931 53.084 96.6251 53.084C96.1571 53.084 95.7611 53.012 95.4251 52.868C95.0891 52.724 94.8011 52.532 94.5491 52.28C94.0091 51.752 93.7451 51.104 93.7451 50.336C93.7451 49.58 94.0091 48.932 94.5491 48.392C95.0891 47.852 95.7371 47.576 96.5051 47.576C97.2371 47.576 97.8851 47.84 98.4251 48.356C98.9771 48.896 99.2651 49.52 99.2651 50.24ZM98.3771 49.964C98.2691 49.52 98.0531 49.148 97.6931 48.848C97.3451 48.56 96.9491 48.416 96.5051 48.416C95.8091 48.416 95.2691 48.728 94.8851 49.352C94.7651 49.544 94.6811 49.748 94.6331 49.964H98.3771ZM101.484 53H100.644V44H101.484V53Z" fill="white"/>
<g clip-path="url(#clip0_530_1488)">
<path d="M89 10C82.3828 10 77 15.3833 77 22C77 28.6167 82.3828 34 89 34C95.6172 34 101 28.6167 101 22C101 15.3833 95.6172 10 89 10Z" fill="#303C42"/>
<path d="M89 33C82.9346 33 78 28.0654 78 22C78 15.9346 82.9346 11 89 11C95.0654 11 100 15.9346 100 22C100 28.0654 95.0654 33 89 33Z" fill="#FED600"/>
<path opacity="0.1" d="M96.1194 13.6302C97.7558 15.551 98.7496 18.0349 98.7496 20.75C98.7496 26.8154 93.8151 31.75 87.7496 31.75C85.0345 31.75 82.5506 30.7562 80.6299 29.1198C82.6491 31.4899 85.6493 33 88.9996 33C95.0651 33 99.9996 28.0654 99.9996 22C99.9996 18.6497 98.4895 15.6495 96.1194 13.6302Z" fill="#010101"/>
<path d="M95.4393 24.021C95.1747 23.9551 94.9012 24.123 94.8377 24.3916C94.1932 27.105 91.7928 29 88.9999 29C86.203 29 83.8016 27.1021 83.16 24.3853C83.0975 24.1162 82.8309 23.9531 82.5585 24.0132C82.2899 24.0767 82.1239 24.3462 82.1873 24.6147C82.9354 27.7856 85.7372 30 88.9999 30C92.2586 30 95.0585 27.7891 95.8104 24.623C95.8739 24.354 95.7079 24.0845 95.4393 24.021Z" fill="#303C42"/>
<path d="M84 23C84.124 23 84.249 22.9536 84.3457 22.8613L87.2783 20.0605C87.7432 19.6108 88 19.0122 88 18.375C88 17.0654 86.9033 16 85.5557 16C84.9346 16 84.4043 16.3462 84 16.7451C83.5957 16.3462 83.0654 16 82.4443 16C81.0967 16 80 17.0654 80 18.375C80 19.0122 80.2568 19.6108 80.7236 20.062L83.6543 22.8613C83.751 22.9536 83.876 23 84 23Z" fill="#303C42"/>
<path d="M81 18.375C81 17.6167 81.6475 17 82.4443 17C82.7861 17 83.209 17.2935 83.6045 17.8057C83.7939 18.0508 84.2061 18.0508 84.3955 17.8057C84.791 17.2935 85.2139 17 85.5557 17C86.3525 17 87 17.6167 87 18.375C87 18.7388 86.8516 19.0815 86.585 19.3394L84 21.8086L81.417 19.3408C81.1484 19.0815 81 18.7388 81 18.375Z" fill="#EF4438"/>
<path opacity="0.1" d="M86.3713 17.2417C86.5114 17.4536 86.5957 17.7023 86.5957 17.9707C86.5957 18.3345 86.4473 18.6772 86.1807 18.9351L83.5957 21.4043L84 21.8086L86.585 19.3394C86.8516 19.0815 87 18.7388 87 18.375C87 17.9048 86.7504 17.4897 86.3713 17.2417Z" fill="#010101"/>
<path d="M95.5557 16C94.9346 16 94.4043 16.3462 94 16.7451C93.5957 16.3462 93.0654 16 92.4443 16C91.0967 16 90 17.0654 90 18.375C90 19.0122 90.2568 19.6108 90.7236 20.062L93.6543 22.8613C93.751 22.9536 93.876 23 94 23C94.124 23 94.249 22.9536 94.3457 22.8613L97.2783 20.0605C97.7432 19.6108 98 19.0122 98 18.375C98 17.0654 96.9033 16 95.5557 16Z" fill="#303C42"/>
<path d="M96.585 19.3394L94 21.8086L91.417 19.3408C91.1484 19.0815 91 18.7388 91 18.375C91 17.6167 91.6475 17 92.4443 17C92.7861 17 93.209 17.2935 93.6045 17.8057C93.7939 18.0508 94.2061 18.0508 94.3955 17.8057C94.791 17.2935 95.2139 17 95.5557 17C96.3525 17 97 17.6167 97 18.375C97 18.7388 96.8516 19.0815 96.585 19.3394Z" fill="#EF4438"/>
<path opacity="0.1" d="M96.3713 17.2417C96.5114 17.4536 96.5957 17.7023 96.5957 17.9707C96.5957 18.3345 96.4473 18.6772 96.1807 18.9351L93.5957 21.4043L94 21.8086L96.585 19.3394C96.8516 19.0815 97 18.7388 97 18.375C97 17.9048 96.7504 17.4897 96.3713 17.2417Z" fill="#010101"/>
<path d="M89 10C82.3828 10 77 15.3833 77 22C77 28.6167 82.3828 34 89 34C95.6172 34 101 28.6167 101 22C101 15.3833 95.6172 10 89 10Z" fill="url(#paint0_linear_530_1488)"/>
</g>
<rect x="44.4834" y="80" width="120.517" height="5" rx="2.5" fill="#F0F0F0"/>
<rect x="12" y="80" width="95.5662" height="5" rx="2.5" fill="#EE5F64"/>
<circle cx="114.741" cy="83" r="10" fill="#EE5F64"/>
<circle cx="114.741" cy="83" r="4" fill="white"/>
<path d="M14.5622 110V101.474H13.1902V100.62L15.5422 100.368V110H14.5622Z" fill="white"/>
<path d="M45.0754 110L50.0034 105.03C50.4234 104.61 50.6334 104.106 50.6334 103.49C50.6334 102.902 50.4094 102.398 49.9754 101.964C49.5414 101.544 49.0234 101.334 48.4214 101.334C47.7914 101.334 47.2594 101.572 46.8254 102.034C46.3774 102.524 46.1814 103.056 46.2374 103.644H45.2434C45.2014 102.734 45.4954 101.95 46.1254 101.306C46.7694 100.662 47.5394 100.326 48.4634 100.326C49.3314 100.326 50.0874 100.648 50.7314 101.264C51.3614 101.88 51.6834 102.622 51.6834 103.504C51.6834 104.372 51.3754 105.114 50.7594 105.73L47.4414 109.02H51.7814V110H45.0754Z" fill="white"/>
<path d="M85.3473 109.902C84.9553 110.07 84.5773 110.14 84.1853 110.14C83.7933 110.14 83.4433 110.098 83.1353 109.986C82.8133 109.888 82.5193 109.748 82.2533 109.566C81.6793 109.174 81.2873 108.67 81.0773 108.04L82.0293 107.718C82.1833 108.166 82.4493 108.516 82.8413 108.768C83.2193 109.02 83.5973 109.146 83.9893 109.146C84.3673 109.146 84.6893 109.09 84.9693 108.978C85.2353 108.866 85.4733 108.698 85.6693 108.502C86.1173 108.082 86.3413 107.564 86.3413 106.962C86.3413 106.36 86.1173 105.842 85.6833 105.408C85.2493 104.974 84.7313 104.75 84.1153 104.75C83.4993 104.75 82.9673 104.974 82.5193 105.422L81.7773 104.82L84.6613 101.46H81.5253V100.48H86.6493L83.6673 104.008L84.0873 103.756C84.9973 103.826 85.7533 104.148 86.3553 104.722C86.9993 105.338 87.3213 106.094 87.3213 106.976C87.3213 107.872 86.9993 108.614 86.3693 109.23C86.0753 109.51 85.7393 109.734 85.3473 109.902Z" fill="white"/>
<path d="M120.848 101.544L117.208 107.046H120.848V101.544ZM121.87 108.054V110H120.848V108.054H115.472L120.484 100.48H121.856L121.87 107.046H123.074V108.054H121.87Z" fill="white"/>
<path d="M153.657 104.008C154.133 103.868 154.567 103.784 154.987 103.784C155.393 103.784 155.785 103.868 156.177 104.036C156.555 104.204 156.891 104.414 157.185 104.694C157.801 105.296 158.109 106.038 158.109 106.92C158.109 107.816 157.787 108.586 157.171 109.216C156.541 109.86 155.771 110.168 154.875 110.168C154.203 110.168 153.573 109.986 153.013 109.594C152.453 109.216 152.061 108.698 151.837 108.068L152.789 107.76C152.943 108.18 153.209 108.53 153.601 108.782C153.979 109.048 154.357 109.174 154.749 109.174C155.141 109.174 155.463 109.118 155.729 109.006C155.995 108.894 156.233 108.726 156.443 108.53C156.877 108.124 157.101 107.606 157.101 106.99C157.101 106.416 156.877 105.898 156.457 105.436C156.037 105.002 155.533 104.778 154.973 104.778C154.413 104.778 153.923 104.932 153.531 105.226L152.467 104.75L153.559 100.48H157.745V101.46H154.301L153.657 104.008Z" fill="white"/>
<defs>
<linearGradient id="paint0_linear_530_1488" x1="78.1249" y1="16.9288" x2="99.8751" y2="27.0712" gradientUnits="userSpaceOnUse">
<stop stop-color="white" stop-opacity="0.2"/>
<stop offset="1" stop-color="white" stop-opacity="0"/>
</linearGradient>
<clipPath id="clip0_530_1488">
<rect width="24" height="24" fill="white" transform="translate(77 10)"/>
</clipPath>
</defs>
</svg>
